<svg xmlns="http://www.w3.org/2000/svg" xmlns:xlink="http://www.w3.org/1999/xlink" width="60" height="52" viewBox="0 0 60 52">
  <defs>
    <rect id="a" width="1280" height="664"/>
  </defs>
  <g fill="none" fill-rule="evenodd" transform="translate(-778 -381)">
    <g stroke-linecap="square">
      <use fill="#FFFFFF" xlink:href="#a"/>
      <rect width="1281" height="665" x="-.5" y="-.5" stroke="#CBCCD0"/>
    </g>
    <g transform="translate(440 349)">
      <rect width="400" height="85" fill="#FFFFFF" stroke="#E6E7ED"/>
      <path fill="#FD9D24" d="M360.264477,61.9080284 L366.84297,61.9080284 C366.93273,61.9080284 367.005884,61.8357965 367.005884,61.7477087 C367.005884,61.7063075 366.988829,61.6697511 366.963248,61.641563 L363.646625,57.4331714 L363.615209,57.3988172 C363.585139,57.3662248 363.542503,57.3468455 363.494931,57.3468455 C363.453641,57.3468455 363.417289,57.3635821 363.387219,57.3873658 L363.367472,57.4102686 L363.336954,57.4441824 L360.110988,61.5988404 L360.061171,61.6582997 C360.043668,61.6834047 360.033346,61.7146758 360.033346,61.7477087 C360.033346,61.8357965 360.1065,61.9080284 360.196709,61.9080284 L360.264477,61.9080284 Z M360.163363,62.5003303 C360.073154,62.5003303 360,62.5721218 360,62.6597691 L360,67.7745835 C360,67.8631117 360.073154,67.9353436 360.163363,67.9353436 L362.306826,67.9353436 L362.306826,64.7174986 C362.306826,64.62853 362.37998,64.5576194 362.46974,64.5576194 L364.459265,64.5576194 C364.549922,64.5576194 364.622628,64.62853 364.622628,64.7174986 L364.622628,67.9353436 L366.822639,67.9353436 C366.912399,67.9353436 366.985553,67.8631117 366.985553,67.7745835 L366.985553,62.6597691 C366.985553,62.5721218 366.912399,62.5003303 366.822639,62.5003303 L360.163363,62.5003303 Z M389.24153,63.2547137 C389.24153,63.3397184 389.169722,63.4093077 389.079962,63.4093077 L387.111531,63.4093077 C387.021771,63.4093077 386.949963,63.3397184 386.949963,63.2547137 L386.949963,62.0796233 C386.949963,61.9950591 387.021771,61.9259102 387.111531,61.9259102 L389.079962,61.9259102 C389.169722,61.9259102 389.24153,61.9950591 389.24153,62.0796233 L389.24153,63.2547137 Z M389.24153,65.4256359 C389.24153,65.5106406 389.169722,65.5797895 389.079962,65.5797895 L387.111531,65.5797895 C387.021771,65.5797895 386.949963,65.5106406 386.949963,65.4256359 L386.949963,64.2514264 C386.949963,64.1651004 387.021771,64.0968324 387.111531,64.0968324 L389.079962,64.0968324 C389.169722,64.0968324 389.24153,64.1651004 389.24153,64.2514264 L389.24153,65.4256359 Z M386.231885,63.2547137 C386.231885,63.3397184 386.160078,63.4093077 386.071664,63.4093077 L384.101886,63.4093077 C384.012575,63.4093077 383.93987,63.3397184 383.93987,63.2547137 L383.93987,62.0796233 C383.93987,61.9950591 384.012575,61.9259102 384.101886,61.9259102 L386.071664,61.9259102 C386.160078,61.9259102 386.231885,61.9950591 386.231885,62.0796233 L386.231885,63.2547137 Z M386.231885,65.4256359 C386.231885,65.5106406 386.160078,65.5797895 386.071664,65.5797895 L384.101886,65.5797895 C384.012575,65.5797895 383.93987,65.5106406 383.93987,65.4256359 L383.93987,64.2514264 C383.93987,64.1651004 384.012575,64.0968324 384.101886,64.0968324 L386.071664,64.0968324 C386.160078,64.0968324 386.231885,64.1651004 386.231885,64.2514264 L386.231885,65.4256359 Z M383.247373,61.1608682 C383.158062,61.1608682 383.086255,61.2291362 383.086255,61.3154622 L383.086255,67.8467273 C383.086255,67.9308511 383.158062,68 383.247373,68 L389.838432,68 C389.927743,68 390,67.9308511 390,67.8467273 L390,61.3154622 C390,61.2291362 389.927743,61.1608682 389.838432,61.1608682 L383.247373,61.1608682 Z M373.576074,50.6422237 C373.576074,50.6875888 373.537926,50.7250261 373.491251,50.7250261 L372.014703,50.7250261 C371.967579,50.7250261 371.92988,50.6875888 371.92988,50.6422237 L371.92988,49.0266946 C371.92988,48.9804485 371.967579,48.9434517 372.014703,48.9434517 L373.491251,48.9434517 C373.537926,48.9434517 373.576074,48.9804485 373.576074,49.0266946 L373.576074,50.6422237 Z M373.576074,54.3511578 C373.576074,54.3969634 373.537926,54.4339602 373.491251,54.4339602 L372.014703,54.4339602 C371.967579,54.4339602 371.92988,54.3969634 371.92988,54.3511578 L371.92988,52.7351882 C371.92988,52.6893826 371.967579,52.6532667 372.014703,52.6532667 L373.491251,52.6532667 C373.537926,52.6532667 373.576074,52.6893826 373.576074,52.7351882 L373.576074,54.3511578 Z M373.576074,58.0605323 C373.576074,58.1063379 373.537926,58.1437752 373.491251,58.1437752 L372.014703,58.1437752 C371.967579,58.1437752 371.92988,58.1063379 371.92988,58.0605323 L371.92988,56.4450032 C371.92988,56.3991976 371.967579,56.3617603 372.014703,56.3617603 L373.491251,56.3617603 C373.537926,56.3617603 373.576074,56.3991976 373.576074,56.4450032 L373.576074,58.0605323 Z M373.576074,61.7694664 C373.576074,61.8161529 373.537926,61.8527093 373.491251,61.8527093 L372.014703,61.8527093 C371.967579,61.8527093 371.92988,61.8161529 371.92988,61.7694664 L371.92988,60.1548182 C371.92988,60.1076913 371.967579,60.0715753 372.014703,60.0715753 L373.491251,60.0715753 C373.537926,60.0715753 373.576074,60.1076913 373.576074,60.1548182 L373.576074,61.7694664 Z M373.576074,65.4792814 C373.576074,65.5246465 373.537926,65.5620838 373.491251,65.5620838 L372.014703,65.5620838 C371.967579,65.5620838 371.92988,65.5246465 371.92988,65.4792814 L371.92988,63.8637523 C371.92988,63.8179467 371.967579,63.7813903 372.014703,63.7813903 L373.491251,63.7813903 C373.537926,63.7813903 373.576074,63.8179467 373.576074,63.8637523 L373.576074,65.4792814 Z M370.679526,50.6422237 C370.679526,50.6875888 370.641378,50.7250261 370.595152,50.7250261 L369.118155,50.7250261 C369.07148,50.7250261 369.033332,50.6875888 369.033332,50.6422237 L369.033332,49.0266946 C369.033332,48.9804485 369.07148,48.9434517 369.118155,48.9434517 L370.595152,48.9434517 C370.641378,48.9434517 370.679526,48.9804485 370.679526,49.0266946 L370.679526,50.6422237 Z M370.679526,54.3511578 C370.679526,54.3969634 370.641378,54.4339602 370.595152,54.4339602 L369.118155,54.4339602 C369.07148,54.4339602 369.033332,54.3969634 369.033332,54.3511578 L369.033332,52.7351882 C369.033332,52.6893826 369.07148,52.6532667 369.118155,52.6532667 L370.595152,52.6532667 C370.641378,52.6532667 370.679526,52.6893826 370.679526,52.7351882 L370.679526,54.3511578 Z M370.679526,58.0605323 C370.679526,58.1063379 370.641378,58.1437752 370.595152,58.1437752 L369.118155,58.1437752 C369.07148,58.1437752 369.033332,58.1063379 369.033332,58.0605323 L369.033332,56.4450032 C369.033332,56.3991976 369.07148,56.3617603 369.118155,56.3617603 L370.595152,56.3617603 C370.641378,56.3617603 370.679526,56.3991976 370.679526,56.4450032 L370.679526,58.0605323 Z M370.679526,61.7694664 C370.679526,61.8161529 370.641378,61.8527093 370.595152,61.8527093 L369.118155,61.8527093 C369.07148,61.8527093 369.033332,61.8161529 369.033332,61.7694664 L369.033332,60.1548182 C369.033332,60.1076913 369.07148,60.0715753 369.118155,60.0715753 L370.595152,60.0715753 C370.641378,60.0715753 370.679526,60.1076913 370.679526,60.1548182 L370.679526,61.7694664 Z M370.679526,65.4792814 C370.679526,65.5246465 370.641378,65.5620838 370.595152,65.5620838 L369.118155,65.5620838 C369.07148,65.5620838 369.033332,65.5246465 369.033332,65.4792814 L369.033332,63.8637523 C369.033332,63.8179467 369.07148,63.7813903 369.118155,63.7813903 L370.595152,63.7813903 C370.641378,63.7813903 370.679526,63.8179467 370.679526,63.8637523 L370.679526,65.4792814 Z M368.067068,46 C367.980002,46 367.908643,46.0691489 367.908643,46.1554749 L367.908643,67.7889418 C367.908643,67.8739465 367.980002,67.9435358 368.067068,67.9435358 L374.516756,67.9435358 C374.602925,67.9435358 374.675631,67.8739465 374.675631,67.7889418 L374.675631,46.1554749 C374.675631,46.0691489 374.602925,46 374.516756,46 L368.067068,46 Z M389.992326,60.5041301 C389.992326,60.5768025 389.933084,60.6345 389.85993,60.6345 L383.225786,60.6345 C383.152632,60.6345 383.093391,60.5768025 383.093391,60.5041301 L383.093391,59.2021934 C383.093391,59.1304019 383.152632,59.072264 383.225786,59.072264 L389.85993,59.072264 C389.933084,59.072264 389.992326,59.1304019 389.992326,59.2021934 L389.992326,60.5041301 Z M381.5747,56.6954807 C381.5747,56.7813662 381.503341,56.8500747 381.416723,56.8500747 L379.494518,56.8500747 C379.407002,56.8500747 379.336541,56.7813662 379.336541,56.6954807 L379.336541,55.5142242 C379.336541,55.4283386 379.407002,55.3591898 379.494518,55.3591898 L381.416723,55.3591898 C381.503341,55.3591898 381.5747,55.4283386 381.5747,55.5142242 L381.5747,56.6954807 Z M381.5747,58.8778543 C381.5747,58.962859 381.503341,59.0320079 381.416723,59.0320079 L379.494518,59.0320079 C379.407002,59.0320079 379.336541,58.962859 379.336541,58.8778543 L379.336541,57.6965978 C379.336541,57.6111527 379.407002,57.5424443 379.494518,57.5424443 L381.416723,57.5424443 C381.503341,57.5424443 381.5747,57.6111527 381.5747,57.6965978 L381.5747,58.8778543 Z M381.5747,61.060228 C381.5747,61.1452327 381.503341,61.2143815 381.416723,61.2143815 L379.494518,61.2143815 C379.407002,61.2143815 379.336541,61.1452327 379.336541,61.060228 L379.336541,59.8789715 C379.336541,59.7930859 379.407002,59.723937 379.494518,59.723937 L381.416723,59.723937 C381.503341,59.723937 381.5747,59.7930859 381.5747,59.8789715 L381.5747,61.060228 Z M381.5747,63.2426016 C381.5747,63.3280467 381.503341,63.3971956 381.416723,63.3971956 L379.494518,63.3971956 C379.407002,63.3971956 379.336541,63.3280467 379.336541,63.2426016 L379.336541,62.0613451 C379.336541,61.9750191 379.407002,61.9067511 379.494518,61.9067511 L381.416723,61.9067511 C381.503341,61.9067511 381.5747,61.9750191 381.5747,62.0613451 L381.5747,63.2426016 Z M381.5747,65.4240944 C381.5747,65.5099799 381.503341,65.5791288 381.416723,65.5791288 L379.494518,65.5791288 C379.407002,65.5791288 379.336541,65.5099799 379.336541,65.4240944 L379.336541,64.2432783 C379.336541,64.1573928 379.407002,64.0891248 379.494518,64.0891248 L381.416723,64.0891248 C381.503341,64.0891248 381.5747,64.1573928 381.5747,64.2432783 L381.5747,65.4240944 Z M378.641351,56.2788257 L378.641351,56.3356423 L378.641351,58.8800565 C378.641351,58.9659421 378.569992,59.035091 378.483374,59.035091 L376.561618,59.035091 C376.473653,59.035091 376.402743,58.9659421 376.402743,58.8800565 L376.402743,58.5655833 L376.402743,58.5528106 C376.403641,58.53211 376.40768,58.5127307 376.414861,58.4951131 C376.418451,58.4885066 376.4189,58.4854235 376.424285,58.4770551 C376.427876,58.4691273 376.43371,58.4629611 376.438647,58.4563545 C376.443135,58.4488671 376.450765,58.4396179 376.456599,58.4308091 C376.702092,58.0859456 377.810625,56.7456907 378.276478,56.1850123 L378.323602,56.129517 C378.357262,56.0898775 378.407976,56.0634512 378.464973,56.0634512 C378.553836,56.0634512 378.624297,56.1273148 378.641351,56.208796 L378.641351,56.2788257 Z M378.635517,61.060228 C378.635517,61.1452327 378.565953,61.2143815 378.478437,61.2143815 L376.555335,61.2143815 C376.467819,61.2143815 376.397806,61.1452327 376.397806,61.060228 L376.397806,59.8789715 C376.397806,59.7930859 376.467819,59.723937 376.555335,59.723937 L378.478437,59.723937 C378.565953,59.723937 378.635517,59.7930859 378.635517,59.8789715 L378.635517,61.060228 Z M378.635517,63.2426016 C378.635517,63.3280467 378.565953,63.3971956 378.478437,63.3971956 L376.555335,63.3971956 C376.467819,63.3971956 376.397806,63.3280467 376.397806,63.2426016 L376.397806,62.0613451 C376.397806,61.9750191 376.467819,61.9067511 376.555335,61.9067511 L378.478437,61.9067511 C378.565953,61.9067511 378.635517,61.9750191 378.635517,62.0613451 L378.635517,63.2426016 Z M378.635517,65.4240944 C378.635517,65.5099799 378.565953,65.5791288 378.478437,65.5791288 L376.555335,65.5791288 C376.467819,65.5791288 376.397806,65.5099799 376.397806,65.4240944 L376.397806,64.2432783 C376.397806,64.1573928 376.467819,64.0891248 376.555335,64.0891248 L378.478437,64.0891248 C378.565953,64.0891248 378.635517,64.1573928 378.635517,64.2432783 L378.635517,65.4240944 Z M379.683911,54.3157905 C380.118348,53.7692061 380.848993,52.8861266 381.205339,52.4571393 L381.251565,52.4025249 C381.285225,52.3628854 381.336837,52.3368996 381.394283,52.3368996 C381.482248,52.3368996 381.55226,52.3994418 381.569315,52.4813634 L381.569315,52.5513932 L381.569315,52.6086502 L381.569315,54.4783124 C381.569315,54.5747685 381.491224,54.6514048 381.394732,54.6562496 C381.392039,54.6562496 381.389346,54.6580114 381.386654,54.6580114 C381.383512,54.6580114 381.381268,54.6562496 381.378575,54.6562496 L379.873304,54.6562496 L379.794316,54.6562496 C379.791174,54.6562496 379.78893,54.6580114 379.786686,54.6580114 C379.783993,54.6580114 379.781749,54.6562496 379.778608,54.6562496 C379.680769,54.6514048 379.602678,54.5747685 379.602678,54.4783124 C379.602678,54.4382325 379.616591,54.4012356 379.639031,54.3712858 L379.683911,54.3157905 Z M382.145572,49.9646968 C382.110566,49.9646968 382.080945,49.9770291 382.053569,49.9946467 C382.050876,49.9964084 382.028885,50.0213666 381.987595,50.0695212 L375.647863,57.9617419 L375.618692,58.0000601 C375.58548,58.0317716 375.564387,58.0749346 375.563041,58.1233829 L375.563041,67.8214021 C375.563041,67.9064068 375.6344,67.9755557 375.721915,67.9755557 L382.16532,67.9755557 C382.253284,67.9755557 382.323297,67.9064068 382.323297,67.8214021 L382.323297,50.1501215 C382.323297,50.1272187 382.316565,50.1047563 382.308038,50.085377 C382.286495,50.0162282 382.223215,49.9646968 382.145572,49.9646968 Z"/>
      <text fill="#113750" font-family="Lato-Bold, Lato" font-size="16" font-weight="bold" letter-spacing="-.3">
        <tspan x="15" y="31">11. </tspan> <tspan x="38.96" y="31" font-family="Lato-Regular, Lato" font-weight="normal">Sustainable cities and communities</tspan>
      </text>
    </g>
  </g>
</svg>
