<svg xmlns="http://www.w3.org/2000/svg" xmlns:xlink="http://www.w3.org/1999/xlink" width="60" height="52" viewBox="0 0 60 52">
  <defs>
    <rect id="a" width="1280" height="664"/>
  </defs>
  <g fill="none" fill-rule="evenodd" transform="translate(-1164 -466)">
    <g stroke-linecap="square">
      <use fill="#FFFFFF" xlink:href="#a"/>
      <rect width="1281" height="665" x="-.5" y="-.5" stroke="#CBCCD0"/>
    </g>
    <g transform="translate(840 434)">
      <rect width="385" height="85" fill="#FFFFFF" stroke="#E6E7ED"/>
      <path fill="#56C02B" d="M354.707396,58.7655401 C354.764604,58.7655401 354.810847,58.8111258 354.810847,58.8669451 L354.810847,62.2016809 C354.810847,62.2579653 354.764604,62.3026208 354.707396,62.3026208 L353.324392,62.3026208 C353.266707,62.3026208 353.219988,62.2579653 353.219988,62.2016809 L353.219988,58.8669451 C353.219988,58.8111258 353.266707,58.7655401 353.324392,58.7655401 L354.707396,58.7655401 Z M369.895595,63.734664 C369.951373,63.734664 370,63.7825755 370,63.8393251 L370,65.1985242 C370,65.2538783 369.951373,65.2985337 369.895595,65.2985337 L347.103928,65.2985337 C347.047197,65.2985337 347,65.2538783 347,65.1985242 L347,63.8393251 C347,63.7825755 347.047197,63.734664 347.103928,63.734664 L369.895595,63.734664 Z M369.895595,66.4361303 C369.951373,66.4361303 370,66.4807857 370,66.5361398 L370,67.8995253 C370,67.9539491 369.951373,68 369.895595,68 L347.103928,68 C347.047197,68 347,67.9539491 347,67.8995253 L347,66.5361398 C347,66.4807857 347.047197,66.4361303 347.103928,66.4361303 L369.895595,66.4361303 Z M365.558657,55.0742121 C365.851371,54.8481441 366.607947,54.3480965 367.526135,54.3480965 C368.199283,54.3480965 368.821897,54.6099819 369.378721,55.1272404 C369.417337,55.1630578 369.44022,55.2142255 369.44022,55.2653931 L369.44022,55.37238 C369.44022,55.4584347 369.380628,55.5323953 369.296246,55.5556533 C369.240945,55.5691429 369.18326,55.5575139 369.162761,55.551932 C369.109844,55.5328604 369.069798,55.5077418 369.036903,55.4761108 C368.917243,55.3979639 368.591634,55.2909769 368.121575,55.2909769 C367.639121,55.2909769 366.691852,55.4170354 365.770326,56.2529289 L365.751257,56.2715353 C365.704537,56.3208424 365.630167,56.3501475 365.558657,56.3501475 C365.483333,56.3501475 365.411823,56.3213075 365.360336,56.2696747 L365.33936,56.2510683 C364.422125,55.4170354 363.473902,55.2909769 362.990971,55.2909769 C362.524249,55.2909769 362.197687,55.3979639 362.078027,55.4761108 C362.046086,55.5077418 362.00604,55.5323953 361.964087,55.5468152 C361.950739,55.551932 361.93453,55.5556533 361.921181,55.5575139 C361.862067,55.5714687 361.810103,55.5575139 361.760999,55.5212314 C361.716186,55.4844837 361.696163,55.4286645 361.696163,55.3691239 L361.696163,55.247717 C361.696163,55.1942236 361.717616,55.1444514 361.756708,55.1081689 C362.308289,54.6039348 362.924705,54.349492 363.586888,54.349492 C364.514134,54.349492 365.27357,54.8569822 365.558657,55.0742121 Z M364.144046,46.2111829 C364.430086,46.0707044 364.717079,46 364.998829,46 C365.799264,46 366.327008,46.5665655 366.535817,46.8405451 C366.712685,46.7772833 367.012551,46.6898331 367.356275,46.6898331 C367.817276,46.6898331 368.459436,46.8470573 368.901845,47.5968961 C368.919484,47.6243406 368.928542,47.657367 368.928542,47.692254 C368.928542,47.7113256 368.926158,47.7294669 368.920437,47.7466778 L368.901368,47.8113351 C368.886589,47.8615725 368.851311,47.9029717 368.804591,47.9262298 C368.775034,47.9406497 368.744999,47.9476272 368.714489,47.9476272 C368.707338,47.9476272 368.700187,47.9476272 368.693989,47.9462317 C368.682547,47.9457665 368.670629,47.944371 368.660141,47.9420452 C368.639641,47.9350678 368.605317,47.918322 368.585771,47.9071582 C368.55526,47.8848305 368.527609,47.8569208 368.50997,47.8243596 C368.422251,47.7290017 368.046108,47.4996776 367.470215,47.4996776 C367.130304,47.4996776 366.786102,47.5829413 366.453819,47.7452823 L366.438564,47.7522597 C366.408529,47.7694707 366.3661,47.7801694 366.323671,47.7801694 C366.302695,47.7801694 366.268847,47.7741223 366.251207,47.7694707 C366.190186,47.75319 366.138222,47.7131862 366.105327,47.6550412 L366.097699,47.6410864 C365.489864,46.6330835 364.571199,46.6028481 364.469178,46.6028481 C364.393378,46.6028481 364.351425,46.6140119 364.331402,46.6181983 C364.296124,46.6358744 364.260369,46.6442473 364.2208,46.6456428 C364.213172,46.6479686 364.203161,46.6456428 364.192673,46.6442473 C364.136895,46.6419215 364.086838,46.6149422 364.05156,46.5693565 C364.015328,46.5223753 364.004363,46.4609741 364.021526,46.4023639 L364.044409,46.3284033 C364.060618,46.2763054 364.095419,46.2330454 364.144046,46.2111829 Z M359.328563,49.632206 C359.326179,49.5805732 359.344771,49.5280101 359.38148,49.4898669 C359.848202,49.0065651 360.392155,48.7609603 360.998559,48.7609603 C361.688869,48.7609603 362.276682,49.0926198 362.518862,49.2535653 C362.783926,49.0270322 363.423225,48.5651278 364.225091,48.5651278 C364.740439,48.5651278 365.229568,48.7525875 365.682941,49.1247159 C365.723464,49.1582074 365.748254,49.2051887 365.751591,49.2568215 L365.756835,49.3442717 C365.762556,49.4298612 365.708685,49.5070778 365.62764,49.5349875 C365.612861,49.5401042 365.594269,49.545221 365.57949,49.5461513 C365.543258,49.5498726 365.50941,49.5442907 365.496062,49.5414997 C365.447435,49.5280101 365.40882,49.5070778 365.377355,49.481494 C365.29488,49.4354431 365.082734,49.3749722 364.783345,49.3749722 C364.363343,49.3749722 363.545269,49.4917275 362.785356,50.2764534 L362.770101,50.292734 C362.729101,50.3397152 362.662836,50.3718113 362.591326,50.376928 L362.57464,50.376928 C362.510281,50.376928 362.447352,50.35367 362.398725,50.3122707 L362.382993,50.2964553 C361.696497,49.7461704 361.02335,49.6312757 360.580464,49.6312757 C360.120417,49.6312757 359.808156,49.7559387 359.711379,49.823387 C359.685636,49.8550179 359.651788,49.8787411 359.612696,49.8945566 C359.603161,49.8982778 359.590289,49.9024643 359.579324,49.9047901 C359.528791,49.9192101 359.471106,49.9099069 359.426293,49.8819972 C359.371945,49.849436 359.338097,49.7950122 359.33476,49.7326807 L359.328563,49.632206 Z M347.794762,51.4179108 C347.794762,50.0861562 348.90126,49.0065186 350.265671,49.0065186 C350.319065,49.0065186 350.371029,49.0111702 350.423947,49.0148915 C350.554095,47.3296149 351.993353,46.0001861 353.754406,46.0001861 C355.600794,46.0001861 357.09726,47.460325 357.09726,49.2618917 C357.09726,49.772638 356.973786,50.2531488 356.759256,50.6838875 C358.433067,51.044852 359.685445,52.4989439 359.685445,54.2395746 C359.685445,56.2532545 358.012588,57.8850377 355.949286,57.8850377 C355.798638,57.8850377 350.963132,57.8571281 350.963132,57.8571281 C349.501944,57.8566629 348.317739,56.7012041 348.317739,55.2759523 C348.317739,54.5903056 348.592814,53.9702466 349.039036,53.5083422 C348.296286,53.0929539 347.794762,52.3133448 347.794762,51.4179108 Z"/>
    </g>
  </g>
</svg>
