<svg xmlns="http://www.w3.org/2000/svg" xmlns:xlink="http://www.w3.org/1999/xlink" width="60" height="52" viewBox="0 0 60 52">
  <defs>
    <rect id="a" width="1280" height="664"/>
  </defs>
  <g fill="none" fill-rule="evenodd" transform="translate(-378 -466)">
    <g stroke-linecap="square">
      <use fill="#FFFFFF" xlink:href="#a"/>
      <rect width="1281" height="665" x="-.5" y="-.5" stroke="#CBCCD0"/>
    </g>
    <g transform="translate(55 434)">
      <rect width="384.987" height="85" fill="#FFFFFF" stroke="#E6E7ED"/>
      <path fill="#3F7E44" d="M363.729815,63.2002154 C363.57336,63.1587507 362.917173,62.2691438 363.435742,61.6844911 C363.52185,61.5883683 363.261989,61.3052773 363.333105,61.2992461 C363.616799,61.2777598 363.767487,61.4504039 363.842063,61.6995692 C363.847444,61.8092623 363.852057,61.9197092 363.852057,62.031287 C363.852057,62.432364 363.809388,62.8228864 363.729815,63.2002154 M362.129903,66.0921917 C362.071473,66.0759828 362.011505,66.0571352 361.94654,66.0250942 C361.627864,65.8660205 361.665921,66.1204631 361.509466,66.0646742 C361.351474,66.0070005 361.686294,65.6504039 361.215008,65.9523425 C360.746029,66.2531502 360.872884,65.9056004 360.667994,65.3959612 C360.461566,64.886322 360.903637,64.3039311 361.27267,64.1716209 C361.78009,63.9921917 362.094922,63.9552504 362.333256,63.8975767 C363.034803,63.7260635 363.183185,63.3178244 363.310424,63.5662359 C363.334258,63.612601 363.357707,63.6570813 363.378849,63.6981691 C363.419597,63.7728056 363.466495,63.9228325 363.469185,64.0717286 C363.170884,64.8373183 362.711514,65.5245019 362.129903,66.0921917 M358.010956,67.7594507 C357.440108,67.7594507 356.889633,67.6776521 356.369143,67.5283791 C356.294183,67.4684437 356.251514,67.3685514 356.298412,67.2483037 C356.479084,66.7865374 357.017257,66.6056004 357.44203,66.5656435 C358.389215,66.475175 359.633932,67.1680129 359.831903,67.0564351 C360.030643,66.9448573 360.431198,66.4337103 361.018575,66.4555735 C361.419514,66.4710285 361.416439,66.5369952 361.550982,66.5863759 C360.568816,67.3214324 359.34255,67.7594507 358.010956,67.7594507 M357.216766,64.0257404 C357.13604,64.1546581 356.916542,65.1185245 356.768929,65.0058158 C356.620931,64.8934841 356.828897,63.8885299 356.871566,63.8123856 C357.102212,63.3973613 357.601175,63.4180937 357.216766,64.0257404 M359.601642,62.888853 C359.486704,62.9891222 359.191093,62.9529348 359.043479,62.8394723 C358.896635,62.7275175 359.136891,62.5420571 359.224536,62.534518 C359.421354,62.5175552 359.716196,62.786699 359.601642,62.888853 M362.179492,62.8986537 C362.116833,62.8760366 362.061094,62.8168551 362.013427,62.676629 C361.96576,62.5356489 362.086465,62.4557351 362.204094,62.5122779 C362.32403,62.5718363 362.479716,62.747496 362.479716,62.8409801 C362.479716,62.9348411 362.244073,62.9235326 362.179492,62.8986537 M362.42782,63.0746904 C362.624253,63.0592353 362.919096,63.3257404 362.803773,63.4282714 C362.688834,63.5296715 362.394377,63.4927302 362.246763,63.3796446 C362.099919,63.2673129 362.33979,63.0822294 362.42782,63.0746904 M356.162331,65.358643 C356.04893,65.7966613 355.916309,65.9542272 355.803292,66.0925687 C355.69066,66.2320409 355.272423,66.4103393 355.00718,66.3911147 C354.741553,66.3715132 354.70465,65.6760366 354.70465,65.3186861 C354.70465,65.1954227 354.526284,65.5618201 354.433257,64.8173398 C354.373673,64.3408724 354.061917,64.8674744 354.040006,64.5493269 C354.01771,64.2323102 353.862024,64.2952612 353.698266,64.0977383 C353.535276,63.8990845 353.331924,64.1169628 353.103969,64.2168551 C352.877552,64.3156166 352.970963,64.3680129 352.648828,64.2681206 C352.640756,64.265482 352.636527,64.2632202 352.628455,64.2605816 C352.332844,63.5749058 352.16947,62.8217555 352.16947,62.031287 C352.16947,61.8382876 352.180233,61.6483037 352.1983,61.4598277 C352.209448,61.4406031 352.220981,61.4221325 352.234435,61.4063005 C352.5435,61.0478191 352.536581,60.9641357 352.536581,60.9641357 L352.878321,60.8484114 C352.878321,60.8484114 353.423798,60.930587 353.835116,61.0824987 C354.173396,61.2068928 354.706956,61.488476 355.01679,61.3648358 C355.240901,61.2739903 355.416192,61.1533656 355.395434,60.9709208 C355.370063,60.7409801 355.185546,60.686322 354.962589,60.8408724 C354.879941,60.898546 354.70465,60.4948304 354.567031,60.5159397 C354.429413,60.5359181 354.737325,60.9893915 354.620464,61.008616 C354.503604,61.0278406 354.268345,60.5359181 354.227982,60.4560043 C354.188388,60.3768444 354.006562,60.1789445 353.843957,60.3301023 C353.499142,60.6505116 352.939826,60.631287 352.827579,60.7134626 C352.485454,60.9645127 352.395502,60.631287 352.402806,60.4281099 C352.416645,60.3813678 352.430484,60.3346257 352.44586,60.2886376 C352.557339,60.1680129 352.958278,60.128433 353.095512,60.2181475 C353.246969,60.3176629 353.355373,60.1925148 353.414187,60.1322025 C353.474155,60.0737749 353.453013,59.978406 353.415341,59.899623 C353.377284,59.8200862 353.491069,59.7620355 353.569104,59.7413032 C353.647908,59.7213247 353.908154,59.5426494 354.011944,59.4827141 C354.116888,59.4235326 354.656599,59.3594507 354.898777,59.4778137 C355.14057,59.5973075 355.362759,59.5000539 355.481926,59.3624663 C355.630692,59.1886914 355.820975,59.0567582 355.905161,59.0160474 C355.990115,58.9779752 355.696811,58.7095854 355.455786,59.0017232 C355.214377,59.2931072 355.09175,59.3194938 354.977965,59.3194938 C354.864564,59.3194938 354.19031,59.1551427 354.107278,58.9459343 C354.025014,58.7371029 354.317934,58.5806677 354.567031,58.4626817 C354.815744,58.3462036 355.496533,58.3480883 355.670671,58.3088853 C356.024712,58.232741 356.477162,58.0585891 356.704732,58.2108778 C356.931918,58.3601508 355.753319,58.6232633 356.140419,58.8283253 C356.278422,58.9029618 356.90155,58.4773829 357.114897,58.3684437 C357.61732,58.114378 356.62785,58.0299408 356.756243,57.5138934 C356.90155,56.9299946 355.542663,57.1561659 354.865718,57.2059235 C355.773693,56.6348411 356.85273,56.3027464 358.010956,56.3027464 C360.766018,56.3027464 363.074397,58.1746904 363.689836,60.6919763 C363.694065,60.8163705 363.67446,60.9057081 363.66139,60.9569736 C363.608342,61.1635433 363.209325,61.3407108 362.977526,61.008616 C362.918327,60.9249327 362.667692,60.6931072 362.676533,61.0892838 C362.684606,61.4862143 363.069784,61.5273021 362.696138,61.7651589 C362.323645,62.0033926 362.254836,61.9464728 362.082236,62.0060312 C361.910405,62.0655897 361.743571,62.4745827 361.784703,62.6932149 C361.826219,62.9118471 362.358627,63.5089391 361.963838,63.4848142 C361.871195,63.4776521 361.173108,63.0102316 361.058169,62.7098008 C360.936312,62.393161 360.80369,62.0836834 360.70951,61.8450727 C360.614176,61.6072159 360.368154,61.5461497 360.159036,61.6863759 C359.951839,61.8258481 360.217082,61.9653204 360.067931,62.2638665 C359.919164,62.5616586 359.811914,62.8274098 359.592801,62.5808831 C359.022721,61.9404416 358.194319,62.2567044 358.064389,61.543888 C357.994042,61.1571352 357.654608,61.1948304 357.371298,60.9758212 C357.086067,60.7579429 356.927305,60.63958 356.879254,60.7971459 C356.836969,60.9354873 357.771853,61.6626279 357.838356,61.8484653 C357.937533,62.1247711 357.558506,62.369413 357.280962,62.4350027 C357.004572,62.4998384 356.882714,62.2819602 356.610552,62.0041465 C356.33839,61.7270867 356.219223,61.528056 356.200387,61.7463113 C356.173094,62.0614432 356.459095,62.5239634 356.736254,62.6966074 C356.972666,62.8439957 357.237524,62.9099623 357.160642,63.148196 C357.08376,63.3871836 357.159489,63.2526117 356.894631,63.5089391 C356.629388,63.7675283 356.57903,63.8504577 356.598251,64.2070544 C356.617087,64.564405 356.522522,64.5851373 356.465245,64.8825525 C356.408737,65.1795907 356.277269,64.9221325 356.162331,65.358643 M353.024781,59.0462036 C353.038235,59.0307485 353.050152,59.0179321 353.055149,59.0119009 C353.160477,58.8939149 353.370365,58.8690361 353.515287,58.846419 C353.660978,58.822294 353.854721,58.8939149 353.87817,58.9885299 C353.903156,59.0827679 353.51375,59.2557889 353.442634,59.3202477 C353.240819,59.5026925 352.925219,59.8743673 352.740318,59.9135703 C352.679965,59.9271405 352.630377,59.9180937 352.589629,59.8984922 C352.711103,59.601454 352.856409,59.3157243 353.024781,59.0462036 M353.324236,58.4626817 C353.39958,58.3537426 353.650984,58.0431341 353.681352,58.004308 C353.745933,57.9221325 353.873941,57.9055466 353.964277,57.8900915 C354.053076,57.8731287 354.171474,57.9221325 354.186082,57.9880991 C354.201074,58.0540657 354.151485,58.3081314 354.107662,58.3522348 C353.984651,58.4773829 353.664438,58.6537964 353.487994,58.625902 C353.351913,58.6055466 353.29848,58.5018848 353.324236,58.4626817 M371.891981,61.8465805 C370.894823,60.4752289 366.384547,55 358.001345,55 C349.615838,55 345.107099,60.4752289 344.108788,61.8465805 C344.066503,61.905385 344.0296,61.9558966 344,61.9992461 C344.0296,62.0437264 344.066503,62.0938611 344.108788,62.1537964 C345.107099,63.5240172 349.615838,69 358.001345,69 C366.384547,69 370.894823,63.5240172 371.891981,62.1537964 C371.935419,62.0938611 371.971169,62.0437264 372,61.9992461 C371.971169,61.9558966 371.935419,61.905385 371.891981,61.8465805"/>
      <text fill="#113750" font-family="Lato-Bold, Lato" font-size="16" font-weight="bold" letter-spacing="-.3">
        <tspan x="15" y="31">13. </tspan> <tspan x="38.96" y="31" font-family="Lato-Regular, Lato" font-weight="normal">Climate action</tspan>
      </text>
    </g>
  </g>
</svg>
