<svg xmlns="http://www.w3.org/2000/svg" xmlns:xlink="http://www.w3.org/1999/xlink" width="60" height="52" viewBox="0 0 60 52">
  <defs>
    <rect id="a" width="1280" height="664"/>
  </defs>
  <g fill="none" fill-rule="evenodd" transform="translate(-378 -381)">
    <g stroke-linecap="square">
      <use fill="#FFFFFF" xlink:href="#a"/>
      <rect width="1281" height="665" x="-.5" y="-.5" stroke="#CBCCD0"/>
    </g>
    <g transform="translate(55 349)">
      <rect width="384.987" height="85" fill="#FFFFFF" stroke="#E6E7ED"/>
      <path fill="#DD1367" d="M362.469318,60.0388919 C362.523795,60.0388919 362.567017,60.0824468 362.567017,60.1359831 L362.567017,62.1590195 C362.567017,62.2134632 362.523795,62.2565645 362.469318,62.2565645 L353.609331,62.2565645 C353.556205,62.2565645 353.512983,62.2134632 353.512983,62.1590195 L353.512983,60.1359831 C353.512983,60.0824468 353.556205,60.0388919 353.609331,60.0388919 L362.469318,60.0388919 Z M362.566476,56.3317763 L362.566476,58.3557201 C362.566476,58.4088027 362.523705,58.4528113 362.468778,58.4528113 L353.609241,58.4528113 C353.556115,58.4528113 353.513343,58.4088027 353.513343,58.3557201 L353.513343,57.1284688 L353.513343,56.3317763 C353.513343,56.2786937 353.556115,56.234685 353.609241,56.234685 L355.1247,56.234685 L362.468778,56.234685 C362.523705,56.234685 362.566476,56.2786937 362.566476,56.3317763 Z M367.693104,57.1235235 C369.065391,62.682677 365.706709,68.3094314 360.190997,69.6923009 C359.391397,69.8928352 358.592246,69.9903801 357.803902,69.999454 C355.351974,70.0248611 353.012602,69.1623824 351.175232,67.6447648 C349.331109,66.187489 347.93586,64.1254346 347.325805,61.6545988 C345.869776,55.7610704 349.430609,49.7944966 355.280838,48.3267857 C358.922712,47.4144004 362.587997,48.4665245 365.1894,50.8098713 C365.201556,50.8203063 365.214162,50.8311951 365.225868,50.8420838 C365.280796,50.9042403 365.316814,50.9831837 365.316814,51.072562 C365.316814,51.1496906 365.286649,51.2168378 365.244778,51.2744574 L365.17004,51.34841 L364.043126,52.4704035 L364.007108,52.5053382 C363.947228,52.5579671 363.87159,52.5929018 363.785597,52.5929018 C363.708608,52.5929018 363.641075,52.5615967 363.583896,52.5184955 C363.564986,52.5017087 363.546527,52.4840145 363.527618,52.4672277 C361.411558,50.5857448 358.449075,49.7441362 355.50415,50.4823018 C350.743016,51.6764332 347.844014,56.5337169 349.028107,61.3315663 C349.336962,62.583771 349.897042,63.7075793 350.636763,64.6662418 C351.820406,66.325413 353.540267,67.6152745 355.637417,68.2318492 C360.627716,69.698199 365.851682,66.8108691 367.30681,61.7825415 C368.031673,59.2758637 367.680047,56.7133811 366.530621,54.5887164 C366.313163,54.1118805 366.057885,53.659998 365.772892,53.2335225 L365.793602,53.2185505 C366.66839,54.3369144 367.329772,55.6530904 367.693104,57.1235235 Z"/>
    </g>
  </g>
</svg>
