<svg xmlns="http://www.w3.org/2000/svg" xmlns:xlink="http://www.w3.org/1999/xlink" width="60" height="52" viewBox="0 0 60 52">
  <defs>
    <rect id="a" width="1280" height="664"/>
  </defs>
  <g fill-rule="evenodd" transform="translate(-1164 -381)">
    <g transform="translate(840 349)">
      <path d="M372.4794,56.5566289 C370.725028,55.151542 368.62249,55 367.799473,55 C367.365685,55 366.964224,55.0394364 366.670227,55.1103332 L366.554463,55.1373626 C365.444001,55.4036689 363.584786,55.8489897 361.420215,58.5736441 L361.356873,58.653403 C361.321051,58.7056895 361.302704,58.7610776 361.302704,58.8182382 C361.302704,58.8683091 361.314936,58.9157214 361.340273,58.9631336 L361.389636,59.044665 C361.746976,59.6503899 362.044031,60.176799 362.279928,60.6238922 C362.364239,60.7900567 362.590088,60.8441156 362.742547,60.6899149 C362.757837,60.6695321 362.773126,60.648263 362.783174,60.6323112 C364.652873,58.0095711 366.117617,57.659961 367.087414,57.42866 L367.20711,57.3998582 C367.340785,57.3675115 367.557023,57.3489011 367.80122,57.3489011 C368.252045,57.3489011 369.818573,57.4251152 371.040868,58.4034917 C372.128613,59.2741935 372.679913,60.665101 372.679913,62.5372208 C372.679913,65.6739631 371.183279,66.8978199 369.927785,67.3719426 C369.448565,67.5536157 368.93265,67.6457816 368.393146,67.6457816 C367.10052,67.6457816 366.104948,67.1207019 366.091843,67.1136122 L366.00229,67.0701879 C364.922407,66.5938497 363.309573,65.6026232 361.785418,62.4973414 C358.660224,56.1308047 356.035219,55.5277384 354.297447,55.1285005 L354.205709,55.1076746 C354.072908,55.0771003 353.697221,55.0057604 353.0852,55.0057604 C352.079144,55.0057604 350.143044,55.2064871 348.483468,56.5499823 C347.350727,57.4667671 346,59.2476072 346,62.5239277 C346,64.5210032 346.404956,65.8392414 347.443775,67.2261609 C347.639919,67.4968983 349.450644,69.8688408 352.927936,69.8688408 C353.442977,69.8688408 353.977239,69.8156682 354.515433,69.7110954 C355.150169,69.587469 356.130014,69.2693194 357.223876,68.4557781 L358.138194,69.2919178 C358.240416,69.3867423 358.417338,69.376994 358.509076,69.2746367 C358.553634,69.2263382 358.577224,69.1620879 358.57504,69.0982808 L359.281856,64.680078 L359.28273,64.6286778 C359.281419,64.5533499 359.249092,64.4815668 359.197545,64.4363701 C359.151239,64.3920596 359.091391,64.3676888 359.014506,64.3676888 L359.012322,64.3676888 L354.771861,65.5569833 L354.691045,65.5702765 C354.637749,65.5813541 354.59057,65.6097129 354.556496,65.6495923 C354.508443,65.7036512 354.48398,65.7718894 354.487475,65.8441156 C354.491406,65.9154555 354.522859,65.9819213 354.574407,66.0275611 L355.452904,66.8335697 C354.991158,67.121145 354.529412,67.3112371 354.080334,67.3994151 C353.698094,67.4734137 353.319349,67.5110776 352.955457,67.5110776 C350.552806,67.5110776 349.370264,65.9114676 349.321774,65.8436725 L349.298185,65.8104396 C348.566905,64.8369373 348.320087,64.0074442 348.320087,62.5239277 C348.320087,60.6460475 348.862213,59.2546969 349.930737,58.3884261 C351.119394,57.4264445 352.649665,57.3515597 353.091316,57.3515597 C353.332018,57.3515597 353.551314,57.369727 353.691979,57.4025168 L353.7859,57.424229 C355.173322,57.7428217 357.072727,58.1788373 359.707344,63.5461716 C361.098697,66.3793867 362.843022,68.2333392 365.036424,69.2099433 C365.291542,69.3419887 366.651442,70 368.394893,70 C369.209611,70 369.997243,69.8586494 370.739007,69.5786069 C372.019839,69.0934066 375,67.4361928 375,62.5372208 C375,59.2626728 373.629178,57.4778447 372.4794,56.5566289"/>
    </g>
  </g>
</svg>
