<svg xmlns="http://www.w3.org/2000/svg" xmlns:xlink="http://www.w3.org/1999/xlink" width="60" height="52" viewBox="0 0 60 52">
  <defs>
    <rect id="a" width="1280" height="664"/>
  </defs>
  <g fill-rule="evenodd" transform="translate(-778 -551)">
    <g transform="translate(440 519)">
      <path d="M378.599345,58.6790864 C379.787459,57.552493 380.533265,55.9457517 380.533265,54.1631003 C380.533265,53.8963514 380.514444,53.6329669 380.482917,53.37535 C382.897729,53.6396957 384.785065,55.7323526 384.785065,58.2686296 C384.785065,59.7100347 384.172422,61.0038868 383.202169,61.9050654 C382.294026,60.1675931 380.594906,58.9246876 378.599345,58.6790864 M382.695397,64.7970076 C382.695397,67.5096753 380.533265,69.7186442 377.876125,69.7186442 C377.011273,69.7186442 376.201944,69.4812137 375.500368,69.0717181 C376.525205,67.966753 377.15714,66.4763238 377.15714,64.8373804 C377.15714,64.4346136 377.117615,64.0395369 377.04421,63.6579178 C377.910945,64.1505621 378.906137,64.4317298 379.966264,64.4317298 C380.909227,64.4317298 381.802312,64.2091988 382.597525,63.8131609 C382.661518,64.1318176 382.695397,64.4600869 382.695397,64.7970076 M366.304603,64.8373804 C366.304603,64.4879634 366.340835,64.1462365 366.410004,63.8174865 C367.203805,64.2111213 368.094067,64.4317298 369.033265,64.4317298 C370.089628,64.4317298 371.081997,64.1524846 371.946379,63.6627241 C371.879562,64.0308856 371.84239,64.4096209 371.84239,64.7970076 C371.84239,66.4609437 372.493617,67.9734818 373.547627,69.0827726 C372.834759,69.5095708 372.007549,69.759017 371.123404,69.759017 C368.466264,69.759017 366.304603,67.5505287 366.304603,64.8373804 M364.214464,58.2686296 C364.214464,55.7323526 366.10133,53.6401764 368.516142,53.37535 C368.484615,53.6329669 368.466264,53.8963514 368.466264,54.1631003 C368.466264,55.9644962 369.227128,57.5875789 370.436886,58.7151335 C368.435209,58.948719 366.72856,60.1839345 365.810536,61.9175618 C364.834165,61.0163832 364.214464,59.7162829 364.214464,58.2686296 M374.499529,49.2405024 C376.473445,49.2405024 378.172565,50.4603377 378.91696,52.2006938 C376.95669,52.5539558 375.319681,53.8756844 374.499529,55.6641033 C373.679849,53.8752037 372.04284,52.5534752 370.082099,52.2006938 C370.826493,50.4603377 372.525143,49.2405024 374.499529,49.2405024 M375.647177,60.4367451 C376.314403,60.0791574 377.071502,59.873929 377.876125,59.873929 C379.770049,59.873929 381.40847,60.9995612 382.196154,62.6284114 C381.527987,62.9859991 380.769476,63.1912275 379.966264,63.1912275 C378.07187,63.1912275 376.433449,62.0655954 375.647177,60.4367451 M373.336354,60.4703891 C372.543965,62.0800142 370.915426,63.1912275 369.033265,63.1912275 C368.235229,63.1912275 367.483306,62.9879216 366.819845,62.6356208 C367.612234,61.0255151 369.241244,59.9152631 371.123404,59.9152631 C371.922381,59.9152631 372.672893,60.1176077 373.336354,60.4703891 M369.743781,53.4056296 C372.064014,53.7588916 373.852537,55.8020437 373.852537,58.2686296 C373.852537,58.5262465 373.826187,58.7776152 373.788543,59.025139 C371.468781,58.671877 369.681199,56.6296861 369.681199,54.1631003 C369.681199,53.9045221 369.706137,53.6526727 369.743781,53.4056296 M374.522115,68.3219376 C373.619619,67.4270071 373.057324,66.1783341 373.057324,64.7970076 C373.057324,63.4358674 373.601739,62.2020939 374.476944,61.3110085 C375.378498,62.2059389 375.942205,63.4550926 375.942205,64.8373804 C375.942205,66.1980399 375.398732,67.4303715 374.522115,68.3219376 M379.31786,54.1631003 C379.31786,56.6296861 377.530749,58.671877 375.210516,59.025139 C375.172872,58.7776152 375.147934,58.5262465 375.147934,58.2686296 C375.147934,55.8020437 376.935045,53.7588916 379.255278,53.4061103 C379.292921,53.6526727 379.31786,53.9045221 379.31786,54.1631003 M386,58.2686296 C386,54.9455636 383.412029,52.2304927 380.188359,52.1103356 C379.358797,49.7187278 377.121849,48 374.499529,48 C371.877209,48 369.640732,49.7187278 368.810229,52.1103356 C365.587029,52.2309734 363,54.9460442 363,58.2686296 C363,60.2406486 363.912377,61.9978267 365.328232,63.1273039 C365.174366,63.6708948 365.089669,64.2438041 365.089669,64.8373804 C365.089669,68.2349438 367.796686,71 371.123404,71 C372.386334,71 373.55892,70.6005977 374.528703,69.9205082 C375.487664,70.5751243 376.638605,70.9586659 377.876125,70.9586659 C381.203314,70.9586659 383.909861,68.1940904 383.909861,64.7970076 C383.909861,64.215447 383.828457,63.6531115 383.681178,63.1196138 C385.090917,61.9906173 386,60.2358424 386,58.2686296"/>
    </g>
  </g>
</svg>
