<svg xmlns="http://www.w3.org/2000/svg" xmlns:xlink="http://www.w3.org/1999/xlink" width="60" height="52" viewBox="0 0 60 52">
  <defs>
    <rect id="a" width="1280" height="664"/>
  </defs>
  <g fill="none" fill-rule="evenodd" transform="translate(-778 -466)">
    <g stroke-linecap="square">
      <use fill="#FFFFFF" xlink:href="#a"/>
      <rect width="1281" height="665" x="-.5" y="-.5" stroke="#CBCCD0"/>
    </g>
    <g transform="translate(440 434)">
      <rect width="400" height="85" fill="#FFFFFF" stroke="#E6E7ED"/>
      <path fill="#0A97D9" d="M379.813871,65.200337 C379.033323,65.200337 378.400774,64.5493248 378.400774,63.7479767 C378.400774,62.9452981 379.033323,62.2960598 379.813871,62.2960598 C380.596144,62.2960598 381.228694,62.9452981 381.228694,63.7479767 C381.228694,64.5493248 380.596144,65.200337 379.813871,65.200337 M385.951243,64.5240471 C385.965913,64.5422293 385.977995,64.5590811 385.98835,64.5746025 C385.994391,64.5896805 386,64.6091931 386,64.6287057 C386,64.6491053 385.994391,64.6655136 385.98835,64.6828089 C385.977995,64.696113 385.965913,64.7138517 385.951243,64.7338078 C385.416639,65.4744008 381.963504,70 377.121867,70 C372.917525,70 368.420209,66.0806226 368.420209,66.0806226 C368.420209,66.0806226 366.724492,69.6452249 363.25755,69.9773831 C363.245038,69.9809308 363.232956,69.9809308 363.221306,69.9809308 L363.183767,69.9835917 C363.113005,69.9773831 363.056481,69.9192887 363.056481,69.843899 C363.056481,69.81463 363.06511,69.7920131 363.078055,69.7689527 L363.107827,69.7210581 C363.549231,68.9645003 364.692653,66.7963813 364.692653,64.6287057 C364.692653,62.4681257 363.555703,60.3057717 363.110416,59.5456662 C363.110416,59.5456662 363.065973,59.4778155 363.056481,59.4157298 C363.048283,59.3518703 363.116025,59.2791414 363.188514,59.2755937 L363.209656,59.2755937 C363.232525,59.2755937 363.25453,59.2795849 363.27481,59.2795849 C366.730533,59.6210559 368.420209,63.1759019 368.420209,63.1759019 C368.420209,63.1759019 372.917525,59.2560811 377.121867,59.2560811 C381.963504,59.2560811 385.416639,63.7812368 385.951243,64.5240471 Z M363.165688,50.7503492 C363.187694,50.7632098 363.211425,50.775627 363.236883,50.7876006 C363.95616,51.1583405 366.184754,52.0381827 368.207964,50.0705115 C368.227812,50.0523293 368.249386,50.0341471 368.267077,50.0128606 C368.286062,50.0044347 368.30591,50 368.325327,50 C368.34086,50 368.355099,50.0035478 368.369338,50.0062086 C368.39911,50.0190692 368.421978,50.0385818 368.437943,50.0625291 C369.040289,50.5352669 371.811254,52.4608084 374.275005,50.0971197 L374.313406,50.0611987 C374.337569,50.0381383 374.373814,50.0190692 374.410058,50.0190692 C374.449323,50.0190692 374.484273,50.0381383 374.510161,50.0611987 L374.545974,50.0971197 C377.011451,52.4608084 379.779396,50.5352669 380.382605,50.0625291 C380.399001,50.0385818 380.422732,50.0190692 380.452936,50.0062086 C380.465449,50.0035478 380.480551,50 380.494789,50 C380.517226,50 380.535349,50.0044347 380.553902,50.0128606 C380.57375,50.0341471 380.593167,50.0523293 380.612583,50.0705115 C382.636225,52.0381827 384.865682,51.1583405 385.584096,50.7876006 C385.609985,50.775627 385.632422,50.7632098 385.654428,50.7503492 C385.664783,50.7481319 385.674276,50.7445841 385.6842,50.7445841 C385.761003,50.7445841 385.82141,50.8088871 385.82141,50.8887115 L385.82141,51.8794208 C385.82141,51.9206634 385.805446,51.9574713 385.781283,51.9814187 C383.44223,54.0683829 381.231326,52.1126854 380.720022,51.5964877 C380.707941,51.5805228 380.696722,51.5658884 380.681189,51.5556886 C380.659183,51.5410541 380.632863,51.5304109 380.604385,51.5304109 C380.56771,51.5304109 380.535349,51.5446019 380.510323,51.5689927 C380.509028,51.5716535 380.505576,51.5734273 380.505576,51.5747578 C377.865782,54.1637287 375.097406,52.0670081 374.521811,51.5747578 L374.464856,51.521098 C374.449323,51.5140025 374.429475,51.5108982 374.410058,51.5108982 C374.391073,51.5108982 374.373814,51.5140025 374.357417,51.521098 L374.300894,51.5747578 C373.724868,52.0670081 370.956923,54.1637287 368.316697,51.5747578 C368.31454,51.5734273 368.311951,51.5716535 368.309793,51.5689927 C368.286062,51.5446019 368.251975,51.5304109 368.216162,51.5304109 C368.187253,51.5304109 368.162227,51.5410541 368.139359,51.5556886 C368.124257,51.5658884 368.11347,51.5805228 368.102683,51.5964877 C367.590516,52.1126854 365.377886,54.0683829 363.040559,51.9814187 C363.015533,51.9574713 363,51.9206634 363,51.8794208 L363,50.8887115 C363,50.8088871 363.062565,50.7445841 363.138937,50.7445841 C363.147998,50.7445841 363.155333,50.7481319 363.165688,50.7503492 Z M368.102812,55.1997605 C367.591077,55.7172886 365.378016,57.6734296 363.040257,55.584248 C363.015663,55.5589703 363.000129,55.5252666 363.000129,55.4844675 L363.000129,54.4906539 C363.000129,54.4121599 363.062694,54.3487439 363.139497,54.3487439 C363.148127,54.3487439 363.155031,54.3531786 363.165818,54.3549524 C363.187823,54.3655957 363.211555,54.3780128 363.236581,54.3913169 C363.956289,54.7616133 366.184452,55.6392381 368.207662,53.6742278 C368.228373,53.6560456 368.248653,53.6374199 368.267638,53.6174638 C368.286191,53.6059336 368.305608,53.6028293 368.325456,53.6028293 C368.340558,53.6028293 368.355228,53.6059336 368.369467,53.6139161 C368.398808,53.621455 368.422108,53.6409676 368.438072,53.6671323 C369.039987,54.1385397 371.811383,56.0654116 374.275134,53.7017229 L374.313104,53.6644715 C374.337699,53.6391938 374.373512,53.6250028 374.409756,53.6250028 C374.449021,53.6250028 374.484402,53.6391938 374.509859,53.6644715 L374.545672,53.7017229 C377.011149,56.0654116 379.779956,54.1385397 380.382734,53.6671323 C380.398699,53.6409676 380.42243,53.621455 380.453065,53.6139161 C380.465578,53.6059336 380.48068,53.6028293 380.494919,53.6028293 C380.517356,53.6028293 380.535478,53.6059336 380.554032,53.6174638 C380.57388,53.6374199 380.593728,53.6560456 380.612713,53.6742278 C382.635923,55.6392381 384.866243,54.7616133 385.584226,54.3913169 C385.610115,54.3780128 385.632552,54.3655957 385.654126,54.3549524 C385.664913,54.3531786 385.673974,54.3487439 385.684329,54.3487439 C385.76027,54.3487439 385.821971,54.4121599 385.821971,54.4906539 L385.821971,55.4844675 C385.821971,55.5252666 385.805575,55.5589703 385.781412,55.584248 C383.441496,57.6734296 381.231024,55.7172886 380.71972,55.1997605 C380.70807,55.1837956 380.697283,55.171822 380.680455,55.1602918 C380.659313,55.1461008 380.633424,55.1341271 380.604083,55.1341271 C380.567407,55.1341271 380.535478,55.1492051 380.510452,55.1735959 C380.508295,55.1758132 380.506137,55.1775871 380.505706,55.179361 C377.86548,57.7656711 375.097535,55.6698375 374.521941,55.179361 L374.465417,55.1239274 C374.449021,55.1177188 374.430036,55.1155015 374.409756,55.1155015 C374.391202,55.1155015 374.373512,55.1177188 374.357547,55.1239274 L374.301023,55.179361 C373.724997,55.6698375 370.95619,57.7656711 368.316826,55.179361 C368.314669,55.1775871 368.31208,55.1758132 368.310354,55.1735959 C368.286191,55.1492051 368.252104,55.1341271 368.21586,55.1341271 C368.187382,55.1341271 368.162357,55.1461008 368.13992,55.1602918 C368.124386,55.171822 368.114031,55.1837956 368.102812,55.1997605 Z"/>
      <text fill="#113750" font-family="Lato-Bold, Lato" font-size="16" font-weight="bold" letter-spacing="-.3">
        <tspan x="15" y="31">14. </tspan> <tspan x="38.96" y="31" font-family="Lato-Regular, Lato" font-weight="normal">Life below water</tspan>
      </text>
    </g>
  </g>
</svg>
