<svg xmlns="http://www.w3.org/2000/svg" xmlns:xlink="http://www.w3.org/1999/xlink" width="60" height="52" viewBox="0 0 60 52">
  <defs>
    <rect id="a" width="1280" height="664"/>
  </defs>
  <g fill="none" fill-rule="evenodd" transform="translate(-378 -551)">
    <g stroke-linecap="square">
      <use fill="#FFFFFF" xlink:href="#a"/>
      <rect width="1281" height="665" x="-.5" y="-.5" stroke="#CBCCD0"/>
    </g>
    <g transform="translate(55 519)">
      <rect width="384.987" height="85" fill="#FFFFFF" stroke="#E6E7ED"/>
      <path fill="#00689D" d="M366.261743,47.1867343 C366.261743,47.1867343 365.775314,47.8443343 365.916743,48.4849162 C366.059029,49.125498 366.776886,49.5064434 366.776886,49.5064434 C366.776886,49.5064434 367.262886,48.8492798 367.121029,48.2091343 C366.979171,47.5676798 366.261743,47.1867343 366.261743,47.1867343 M365.469057,50.941818 C365.469057,50.941818 365.955486,50.2837816 365.813629,49.6431998 C365.671771,49.0017452 364.953914,48.6221089 364.953914,48.6221089 C364.953914,48.6221089 364.467486,49.2788362 364.608914,49.919418 C364.751629,50.5604362 365.469057,50.941818 365.469057,50.941818 M367.467957,50.2374398 C367.467957,50.2374398 367.981386,50.7650034 368.566386,50.7117671 C369.151386,50.6594034 369.584243,50.0467489 369.584243,50.0467489 C369.584243,50.0467489 369.071671,49.5191852 368.486671,49.5719852 C367.901671,49.6252216 367.467957,50.2374398 367.467957,50.2374398 M368.3092,47.4206689 C367.833914,47.9124507 367.900343,48.7821234 367.900343,48.7821234 C367.900343,48.7821234 368.739486,48.8563052 369.216057,48.3649598 C369.6922,47.8740507 369.624914,47.0039416 369.624914,47.0039416 C369.624914,47.0039416 368.785343,46.9301962 368.3092,47.4206689 M367.259543,52.1925671 C367.841971,52.2628216 368.390114,51.7531489 368.390114,51.7531489 C368.390114,51.7531489 367.993257,51.1300216 367.411257,51.0602034 C366.827971,50.9903852 366.279829,51.4996216 366.279829,51.4996216 C366.279829,51.4996216 366.676686,52.1227489 367.259543,52.1925671 M367.780171,62.5007852 L363.424171,62.5007852 C363.083457,62.5007852 362.807029,62.7809307 362.807029,63.1278398 C362.807029,63.4738762 363.083457,63.7553307 363.424171,63.7553307 L367.780171,63.7553307 C368.120457,63.7553307 368.396029,63.4738762 368.396029,63.1278398 C368.396029,62.7809307 368.120457,62.5007852 367.780171,62.5007852 M367.780171,69.416538 L363.424171,69.416538 C363.083457,69.416538 362.807029,69.6971198 362.807029,70.0435925 C362.807029,70.3896289 363.083457,70.6715198 363.424171,70.6715198 L367.780171,70.6715198 C368.120457,70.6715198 368.396029,70.3896289 368.396029,70.0435925 C368.396029,69.6971198 368.120457,69.416538 367.780171,69.416538 M355.2499,63.6922762 C355.537043,63.6975125 355.825043,63.6879125 356.113471,63.6682762 L356.113471,65.9858034 L355.2499,65.9652943 L355.2499,63.6922762 Z M367.619329,64.1932216 L363.582614,64.1932216 C363.389757,64.1932216 363.232471,64.3542398 363.232471,64.5506034 L363.232471,65.7951125 L360.597614,66.0900943 L356.748186,66.0002034 L356.748186,63.6067489 C357.259043,63.5395489 357.771186,63.4361307 358.279471,63.2903852 C361.9849,62.225658 362.793614,59.105658 362.712614,56.9482762 C362.632043,54.7498762 363.3229,53.8963489 364.315043,53.5167125 C364.599186,53.408058 364.880757,53.3391125 365.138329,53.2950398 C365.149043,53.8343852 365.256614,54.4623125 365.493186,55.2102398 C365.581471,55.2054398 365.669329,55.1975852 365.756329,55.1884216 C365.506043,54.4230398 365.399329,53.7933671 365.393757,53.2575125 C365.906329,53.1951125 366.272329,53.2300216 366.272329,53.2300216 C366.272329,53.2300216 365.925614,53.0410762 365.436186,52.6243489 C365.602471,51.5831852 366.211471,50.9439125 366.8389,50.2906762 C367.1839,49.9306762 367.540043,49.5588943 367.820757,49.1164216 L367.602186,48.972858 C367.3369,49.3930762 366.988043,49.755258 366.651614,50.1047852 C366.040043,50.7423125 365.4229,51.3933671 365.213329,52.4275489 C365.014471,52.2447125 364.799329,52.0287125 364.579043,51.7764943 C363.665329,50.7335852 362.4889,51.4998398 360.8119,53.0903852 C359.133614,54.6796216 357.023329,54.7341671 354.9619,52.5868216 C352.242186,49.7526398 349.8709,49.7687852 348.243614,49.9293671 C349.357043,50.4115489 349.746186,51.4706034 350.309329,54.1612216 C350.899471,56.9853671 352.388329,58.2630398 354.4249,58.4388943 C353.291757,58.8468943 353.235614,59.4975125 351.718471,60.5644216 C350.533471,61.3970034 348.8659,61.1338762 348.189614,60.9772216 C349.431186,61.3716943 350.900757,62.6969307 352.215614,63.1577307 C352.981471,63.4260943 353.788471,63.5923489 354.615186,63.6591125 L354.615186,65.9508943 L347.719043,65.7903125 L347.719043,67.3895852 L360.597614,67.0884943 L363.232471,67.3847852 L363.232471,68.6284216 C363.232471,68.8247852 363.389757,68.9862398 363.582614,68.9862398 L367.619329,68.9862398 C367.813043,68.9862398 367.970757,68.8247852 367.970757,68.6284216 L367.970757,64.5506034 C367.970757,64.3542398 367.813043,64.1932216 367.619329,64.1932216 L367.619329,64.1932216 Z M347.341857,67.1247998 C347.341857,67.4616725 347.111286,67.7352725 346.826714,67.7352725 L346.516,67.7352725 C346.231857,67.7352725 346,67.4616725 346,67.1247998 L346,66.0194907 C346,65.6821816 346.231857,65.4085816 346.516,65.4085816 L346.826714,65.4085816 C347.111286,65.4085816 347.341857,65.6821816 347.341857,66.0194907 L347.341857,67.1247998 Z"/>
      <text fill="#113750" font-family="Lato-Bold, Lato" font-size="16" font-weight="bold" letter-spacing="-.3">
        <tspan x="15" y="31">16. </tspan> <tspan x="38.96" y="31" font-family="Lato-Regular, Lato" font-weight="normal">Peace, justice and strong institutions</tspan>
      </text>
    </g>
  </g>
</svg>
