<svg xmlns="http://www.w3.org/2000/svg" xmlns:xlink="http://www.w3.org/1999/xlink" width="60" height="52" viewBox="0 0 60 52">
  <defs>
    <rect id="a" width="1280" height="664"/>
  </defs>
  <g fill-rule="evenodd" transform="translate(-378 -126)">
    <g transform="translate(55 94)">
      <path d="M342.004911,64.4824368 L342.683227,66.9125576 L342.004911,66.9125576 L342.004911,68.8985758 C342.004911,69.2365455 341.723069,69.508303 341.377279,69.508303 C341.030898,69.508303 340.749648,69.2365455 340.749648,68.8985758 L340.749648,66.9864848 C340.749648,66.9864848 340.753774,66.9545176 340.750104,66.9125576 L340.562898,66.9125576 L340.37086,66.9125576 C340.367165,66.9545176 340.371292,66.9864848 340.371292,66.9864848 L340.371292,68.8985758 C340.371292,69.2365455 340.092411,69.508303 339.746621,69.508303 C339.399648,69.508303 339.11899,69.2365455 339.11899,68.8985758 L339.116621,68.8985758 L339.116621,66.9125576 L338.440792,66.9125576 L339.116621,64.4976295 L339.116621,64.053 C339.116621,63.9107879 339.038463,63.7559091 339.038463,63.7559091 L337.755963,61.4989394 C337.755963,61.4989394 337.747608,61.4758312 337.738051,61.4437985 C337.636632,61.6464022 337.422761,61.7867606 337.175463,61.7867606 C336.829674,61.7867606 336.549608,61.5132758 336.549608,61.1787606 L336.549608,57.4426697 C336.549608,57.3027606 336.509345,57.1127606 336.244674,57.1127606 C336.064082,57.1127606 336.023227,57.3004576 336.017898,57.4202152 L336.017898,68.6181242 C336.017898,69.0988818 335.617042,69.4915485 335.119082,69.4915485 C334.621713,69.4915485 334.220858,69.0988818 334.220858,68.6181242 L334.220858,62.1650333 C334.21849,62.0936394 334.190661,61.9088212 333.961516,61.9088212 L333.960924,61.9088212 C333.732371,61.9088212 333.708095,62.0936394 333.704542,62.1650333 L333.704542,68.6181242 C333.704542,69.0988818 333.302503,69.4915485 332.805727,69.4915485 C332.307766,69.4915485 331.907503,69.0988818 331.907503,68.6181242 L331.907503,57.4202152 C331.899805,57.3004576 331.861911,57.1127606 331.680134,57.1127606 C331.416648,57.1127606 331.3752,57.3027606 331.3752,57.4426697 L331.3752,61.1787606 C331.3752,61.4623264 331.17395,61.702037 330.902013,61.7684786 C330.907302,61.7959063 330.907524,61.8247465 330.901871,61.8538364 L329.468977,69.2402303 C329.447661,69.3502 329.348187,69.4273515 329.236871,69.4273515 C329.222661,69.4273515 329.207266,69.4262 329.192463,69.4233212 C329.063977,69.3997152 328.979898,69.2793818 329.004174,69.1544424 L330.437069,61.7680485 C330.440634,61.7493285 330.446453,61.7315348 330.454209,61.714897 C330.257086,61.6121899 330.122898,61.4100652 330.122898,61.1787606 L330.122898,57.5779727 L330.122898,57.3499727 L330.122898,56.8289121 C330.122898,55.7367 330.982634,54.8408212 332.076845,54.7446697 C332.11474,54.7400636 332.153819,54.7348818 332.200003,54.7348818 L333.960924,54.7348818 L335.726582,54.7348818 C335.770398,54.7348818 335.808884,54.7400636 335.845003,54.7446697 C336.942174,54.8408212 337.800727,55.7367 337.800727,56.8289121 L337.800727,57.3499727 L337.800727,57.5779727 L337.800727,61.0353514 C337.885299,60.9241639 338.021268,60.8517879 338.17399,60.8517879 C338.339187,60.8517879 338.483069,60.9364242 338.566555,61.0630909 L338.5707,61.0607879 C338.608003,61.0918788 339.199516,62.1196061 339.397871,62.3101818 C339.603924,62.5134242 339.791029,62.4909697 339.791029,62.4909697 L340.560766,62.4909697 L341.332279,62.4909697 C341.332279,62.4909697 341.517608,62.5134242 341.724845,62.3101818 C341.920832,62.1196061 342.514121,61.0918788 342.551424,61.0607879 L342.556753,61.0630909 C342.637871,60.9364242 342.781753,60.8517879 342.949319,60.8517879 C343.094945,60.8517879 343.224716,60.916989 343.30966,61.0186919 C343.316309,60.8823142 343.347391,60.7814879 343.347391,60.7814879 L344.616865,56.760397 C344.616865,56.760397 345.072786,55.5979424 346.076996,55.5979424 L347.697588,55.5979424 L349.31522,55.5979424 C350.321207,55.5979424 350.773575,56.760397 350.773575,56.760397 L352.044233,60.7814879 C352.044233,60.7814879 352.271602,61.5190333 351.627391,61.7027 C350.988509,61.8875182 350.793115,61.1672455 350.793115,61.1672455 L349.769957,57.8111545 C349.769957,57.8111545 349.713707,57.5526394 349.514167,57.6090636 C349.31522,57.6643364 349.391009,57.9407 349.391009,57.9407 L351.172062,64.2302758 L349.514167,64.2302758 L349.514167,68.735003 C349.514167,69.1610636 349.158904,69.5076697 348.717786,69.5076697 C348.276075,69.5076697 347.921996,69.1610636 347.921996,68.735003 L347.921996,64.2302758 L347.697588,64.2302758 L347.469628,64.2302758 L347.469628,68.735003 C347.469628,69.1610636 347.114365,69.5076697 346.673838,69.5076697 C346.235088,69.5076697 345.876865,69.1610636 345.876865,68.735003 L345.876865,64.2302758 L344.21897,64.2302758 L346.001207,57.9407 C346.001207,57.9407 346.076996,57.6643364 345.876865,57.6090636 C345.677325,57.5526394 345.621667,57.8111545 345.621667,57.8111545 L344.597325,61.1672455 C344.597325,61.1672455 344.403115,61.8875182 343.763641,61.7027 C343.563543,61.6455988 343.447631,61.5349618 343.382899,61.4095962 C343.340412,61.5225302 343.267871,61.6722424 343.267871,61.6722424 L342.082477,63.7559091 C342.082477,63.7559091 342.004911,63.9107879 342.004911,64.053 L342.004911,64.4824368 Z M367.97293,52.5700909 C367.97293,51.7024242 368.696483,51 369.587602,51 C370.477536,51 371.199312,51.7024242 371.199312,52.5700909 C371.199312,53.4366061 370.477536,54.1396061 369.587602,54.1396061 C368.696483,54.1396061 367.97293,53.4366061 367.97293,52.5700909 Z M371.471503,54.7446697 C372.566305,54.8408212 373.424858,55.7367 373.424858,56.8289121 L373.424858,57.3499727 L373.424858,57.5779727 L373.424858,61.1787606 C373.424858,61.5132758 373.1442,61.7867606 372.799595,61.7867606 C372.452621,61.7867606 372.17374,61.5132758 372.17374,61.1787606 L372.17374,57.4426697 C372.17374,57.3027606 372.1317,57.1127606 371.868805,57.1127606 C371.686437,57.1127606 371.648542,57.3004576 371.642029,57.4202152 L371.642029,68.6181242 C371.642029,69.0988818 371.240582,69.4915485 370.743213,69.4915485 C370.245845,69.4915485 369.842621,69.0988818 369.842621,68.6181242 L369.842621,62.1650333 C369.840253,62.0936394 369.815977,61.9088212 369.588016,61.9088212 L369.586832,61.9088212 C369.357687,61.9088212 369.329858,62.0936394 369.326898,62.1650333 L369.326898,68.6181242 C369.326898,69.0988818 368.926634,69.4915485 368.429266,69.4915485 C367.930713,69.4915485 367.529858,69.0988818 367.529858,68.6181242 L367.529858,57.4202152 C367.523937,57.3004576 367.484858,57.1127606 367.303674,57.1127606 C367.039003,57.1127606 366.99874,57.3027606 366.99874,57.4426697 L366.99874,61.1787606 C366.99874,61.5132758 366.718674,61.7867606 366.372884,61.7867606 C366.027095,61.7867606 365.748213,61.5132758 365.748213,61.1787606 L365.748213,57.5779727 L365.748213,57.3499727 L365.748213,56.8289121 C365.748213,55.7367 366.606766,54.8408212 367.703937,54.7446697 C367.739463,54.7400636 367.778542,54.7348818 367.821766,54.7348818 L369.588016,54.7348818 L371.348937,54.7348818 C371.395121,54.7348818 371.433016,54.7400636 371.471503,54.7446697 Z M358.376384,53.394403 C358.376384,54.2154333 357.693687,54.8804333 356.849345,54.8804333 C356.005003,54.8804333 355.320529,54.2154333 355.320529,53.394403 C355.320529,52.5739485 356.005003,51.9066455 356.849345,51.9066455 C357.693687,51.9066455 358.376384,52.5739485 358.376384,53.394403 Z M353.77022,56.760397 C353.77022,56.760397 354.224957,55.5979424 355.229759,55.5979424 L356.849759,55.5979424 L358.468575,55.5979424 C359.47397,55.5979424 359.927523,56.760397 359.927523,56.760397 L361.19818,60.7814879 C361.19818,60.7814879 361.425549,61.5190333 360.780746,61.7027 C360.141865,61.8875182 359.947062,61.1672455 359.947062,61.1672455 L358.923312,57.8111545 C358.923312,57.8111545 358.867062,57.5526394 358.667523,57.6090636 C358.468575,57.6643364 358.54318,57.9407 358.54318,57.9407 L360.324825,64.2302758 L358.667523,64.2302758 L358.667523,68.735003 C358.667523,69.1610636 358.311075,69.5076697 357.869957,69.5076697 C357.42943,69.5076697 357.074759,69.1610636 357.074759,68.735003 L357.074759,64.2302758 L356.849759,64.2302758 L356.622391,64.2302758 L356.622391,68.735003 C356.622391,69.1610636 356.266536,69.5076697 355.827194,69.5076697 C355.387259,69.5076697 355.03022,69.1610636 355.03022,68.735003 L355.03022,64.2302758 L353.372325,64.2302758 L355.155154,57.9407 C355.155154,57.9407 355.229759,57.6643364 355.03022,57.6090636 C354.83068,57.5526394 354.775023,57.8111545 354.775023,57.8111545 L353.75068,61.1672455 C353.75068,61.1672455 353.55647,61.8875182 352.916996,61.7027 C352.273378,61.5190333 352.499562,60.7814879 352.499562,60.7814879 L353.77022,56.760397 Z M349.223621,53.394403 C349.223621,54.2154333 348.540332,54.8804333 347.69599,54.8804333 C346.851055,54.8804333 346.167766,54.2154333 346.167766,53.394403 C346.167766,52.5739485 346.851055,51.9066455 347.69599,51.9066455 C348.540332,51.9066455 349.223621,52.5739485 349.223621,53.394403 Z M363.508457,61.7111061 C362.805036,61.7111061 362.236023,61.1572273 362.236023,60.4732273 C362.236023,59.7892273 362.805036,59.2370758 363.508457,59.2370758 C364.211878,59.2370758 364.779707,59.7892273 364.779707,60.4732273 C364.779707,61.1572273 364.211878,61.7111061 363.508457,61.7111061 Z M360.458878,65.553597 L360.454141,65.5524455 C360.458878,65.501203 360.811773,64.6490818 360.916575,64.3853848 C361.647233,62.556203 361.856838,62.2262939 362.519404,62.2061424 C363.183154,62.1865667 363.504667,62.1998091 363.504667,62.1998091 C363.504667,62.1998091 363.805457,62.1877182 364.308154,62.1998091 C364.811444,62.2130515 365.333088,62.2061424 365.620259,63.0202636 C365.713812,63.2862636 366.507825,65.1805061 366.52322,65.2282939 L366.518483,65.2329 C366.612036,65.3595667 366.638088,65.5276879 366.570588,65.6837182 C366.467562,65.9238091 366.184536,66.0378091 365.939996,65.9376273 C365.867759,65.9088394 365.632102,65.2524758 365.632102,65.2524758 L365.090325,63.7842939 C365.090325,63.7842939 365.009799,63.6783545 365.009799,63.8263242 L365.009799,68.8745667 C365.009799,69.2257788 364.716115,69.5090515 364.356115,69.5090515 C363.99493,69.5090515 363.701838,69.2257788 363.701838,68.8745667 L363.701838,66.8824455 C363.701838,66.8824455 363.737957,66.6009 363.504667,66.6009 C363.271378,66.6009 363.30868,66.8824455 363.30868,66.8824455 L363.30868,68.8745667 C363.30868,69.2257788 363.017365,69.5090515 362.656773,69.5090515 C362.294404,69.5090515 362.004273,69.2257788 362.004273,68.8745667 L362.00072,68.8745667 L362.00072,63.8263242 C362.00072,63.6783545 361.881115,63.8217182 361.881115,63.8217182 L361.189536,65.9658394 C361.189536,65.9658394 360.994733,66.2951727 360.644207,66.1385667 C360.345786,66.0049909 360.396707,65.6981121 360.458878,65.553597 Z M335.576009,52.5700909 C335.576009,53.4366061 334.851865,54.1396061 333.960746,54.1396061 C333.07022,54.1396061 332.349036,53.4366061 332.349036,52.5700909 C332.349036,51.7024242 333.07022,51 333.960746,51 C334.851865,51 335.576009,51.7024242 335.576009,52.5700909 Z M340.560884,61.7111061 C339.858055,61.7111061 339.289634,61.1572273 339.289634,60.4732273 C339.289634,59.7892273 339.858055,59.2370758 340.560884,59.2370758 C341.264305,59.2370758 341.832134,59.7892273 341.832134,60.4732273 C341.832134,61.1572273 341.264305,61.7111061 340.560884,61.7111061 Z"/>
      <text fill="#113750" font-family="Lato-Bold, Lato" font-size="16" font-weight="bold" letter-spacing="-.3">
        <tspan x="15" y="31">1. </tspan> <tspan x="29.98" y="31" font-family="Lato-Regular, Lato" font-weight="normal">No povert</tspan> <tspan x="97.664" y="31" font-family="Lato-Regular, Lato" font-weight="normal">y</tspan>
      </text>
    </g>
  </g>
</svg>
