<svg xmlns="http://www.w3.org/2000/svg" xmlns:xlink="http://www.w3.org/1999/xlink" width="60" height="52" viewBox="0 0 60 52">
  <defs>
    <rect id="a" width="1280" height="664"/>
  </defs>
  <g fill="none" fill-rule="evenodd" transform="translate(-778 -126)">
    <g stroke-linecap="square">
      <use fill="#FFFFFF" xlink:href="#a"/>
      <rect width="1281" height="665" x="-.5" y="-.5" stroke="#CBCCD0"/>
    </g>
    <g transform="translate(440 94)">
      <rect width="400" height="85" fill="#FFFFFF" stroke="#E6E7ED"/>
      <path fill="#DDA63A" d="M371.132045,68.6801052 L371.132045,68.0375298 C366.91295,66.7027003 363.730767,63.2432864 363.015375,59.0112963 L363,58.8738669 C363,58.7057944 363.132497,58.5692936 363.298005,58.5692936 L363.437737,58.5692936 L386.703352,58.5692936 C386.867955,58.5692936 387,58.7057944 387,58.8738669 C387,58.8882598 386.998643,58.9017242 386.99186,58.9411887 C386.310836,63.1337143 383.21412,66.5736281 379.080041,67.9651008 C379.080644,68.4513657 379.080644,68.695272 379.080041,68.6968196 C379.078684,68.861642 378.950709,68.9958214 378.777514,68.9986071 C373.8783,68.9995357 371.42613,68.9995357 371.421005,68.9986071 C371.264993,68.9958214 371.138375,68.8690706 371.132045,68.6801052 Z M379.123724,54.4989224 C376.715268,51.7962987 378.976304,48.4534212 379.073077,48.3127418 C379.285614,48.0077042 379.73963,47.9092751 380.090543,48.0931333 C380.439195,48.2779202 380.552699,48.6739583 380.341066,48.980853 C380.313934,49.0221747 378.516862,51.714584 380.291323,53.7059175 C381.545294,55.1127118 381.674626,56.4818987 381.361698,57.5734411 L379.816506,57.5734411 C380.132146,56.8338294 380.228014,55.7395013 379.123724,54.4989224 Z M376.706043,57.5733482 L375.16085,57.5733482 C375.475586,56.8346652 375.571454,55.7398728 374.467164,54.4992938 C372.056447,51.7962059 374.319745,48.4533284 374.416969,48.3126489 C374.628602,48.0071471 375.083523,47.9101108 375.432627,48.0930405 C375.783087,48.2782916 375.89433,48.6738654 375.684054,48.9793673 C375.655565,49.0234747 373.85985,51.7140268 375.634763,53.706289 C376.888734,55.1130832 377.018518,56.4813416 376.706043,57.5733482 Z M369.809293,54.4989224 C367.400384,51.7962987 369.661421,48.4534212 369.75955,48.3127418 C369.971635,48.0072399 370.426104,47.9083465 370.775208,48.0931333 C371.125216,48.2779202 371.237364,48.6739583 371.027539,48.9794601 C370.99905,49.0221747 369.201978,51.714584 370.976892,53.7059175 C372.23222,55.1131761 372.361099,56.482363 372.048624,57.5734411 L370.503883,57.5734411 C370.81862,56.834758 370.914488,55.7399656 369.809293,54.4989224 Z"/>
      <text fill="#113750" font-family="Lato-Bold, Lato" font-size="16" font-weight="bold" letter-spacing="-.3">
        <tspan x="17" y="34">2. </tspan> <tspan x="31.98" y="34" font-family="Lato-Regular, Lato" font-weight="normal">Zero hunge</tspan> <tspan x="108.724" y="34" font-family="Lato-Regular, Lato" font-weight="normal">r</tspan>
      </text>
    </g>
  </g>
</svg>
