<svg xmlns="http://www.w3.org/2000/svg" xmlns:xlink="http://www.w3.org/1999/xlink" width="60" height="52" viewBox="0 0 60 52">
  <defs>
    <rect id="a" width="1280" height="664"/>
  </defs>
  <g fill-rule="evenodd" transform="translate(-1164 -126)">
    <g transform="translate(840 94)">
      <path d="M374,63.1098443 C374,63.7401845 373.74358,64.3109471 373.328894,64.7238972 L373.331242,64.7261712 L370.094996,67.8669571 L366.854055,64.7225328 C366.439368,64.3095827 366.182948,63.7392749 366.182948,63.1093895 C366.182948,61.849164 367.069147,60.8277036 368.3334,60.8277036 C368.965997,60.8277036 369.677962,61.4985202 370.092178,61.9114703 C370.506395,61.498975 371.268611,60.8286132 371.900738,60.8286132 C373.165461,60.8286132 374,61.8500736 374,63.1098443 Z M360.201741,73 C360.190939,73 360.179668,72.9995452 360.168867,72.9990904 C359.922309,72.9845371 359.718958,72.8076235 359.67716,72.571587 L358.030625,63.2870309 L355.53734,67.7644472 C355.427915,67.9604621 355.199673,68.0659736 354.975658,68.0273164 C354.749294,67.9882043 354.574591,67.8131099 354.541716,67.5929911 L353.483162,60.4273057 L351.546393,64.6404886 C351.46092,64.826498 351.270248,64.9461081 351.060322,64.9461081 L343.532095,64.9461081 C343.238104,64.9461081 343,64.7155291 343,64.43083 C343,64.1461309 343.238104,63.9155519 343.532095,63.9155519 L350.714202,63.9155519 L353.262434,58.3739248 C353.358709,58.1642662 353.586951,58.0414727 353.821768,58.0728533 C354.056585,58.1046886 354.24162,58.2829667 354.275434,58.5103621 L355.366863,65.898895 L357.825864,61.4833302 C357.93388,61.2895893 358.156486,61.183623 358.380502,61.2195515 C358.604517,61.2550252 358.78063,61.4242074 358.81914,61.6406878 L360.34357,70.2398741 L365.899806,52.3665919 C365.963206,52.1633004 366.148712,52.0182221 366.367561,52.0013948 C366.58688,51.9859319 366.793519,52.1000845 366.888854,52.2915514 L369.812324,58.1606279 C369.940064,58.41713 369.829231,58.7250234 369.564357,58.8487265 C369.299953,58.9724297 368.981542,58.865099 368.853802,58.6085969 L366.524419,53.9328918 L360.710824,72.6334385 C360.643197,72.852193 360.435149,73 360.201741,73 Z"/>
    </g>
  </g>
</svg>
