<svg xmlns="http://www.w3.org/2000/svg" xmlns:xlink="http://www.w3.org/1999/xlink" width="60" height="52" viewBox="0 0 60 52">
  <defs>
    <rect id="a" width="1280" height="664"/>
  </defs>
  <g fill="none" fill-rule="evenodd" transform="translate(-378 -211)">
    <g stroke-linecap="square">
      <use fill="#FFFFFF" xlink:href="#a"/>
      <rect width="1281" height="665" x="-.5" y="-.5" stroke="#CBCCD0"/>
    </g>
    <g transform="translate(55 179)">
      <rect width="384.987" height="85" fill="#FFFFFF" stroke="#E6E7ED"/>
      <path fill="#C5192D" d="M355.34928,55.841667 L355.34928,68.3595886 L347.644323,65.9872657 L347.644323,51.3022842 L355.34928,55.841667 Z M356.196446,55.8716773 L363.951585,51.3029075 L363.951585,65.9856628 L356.196446,68.3646645 L356.196446,55.8716773 Z M370,50.9305846 L370,51.9333007 L368.177289,51.9333007 L368.177289,50.9305846 C368.177289,50.4163142 368.584857,50 369.089299,50 C369.591559,50 370,50.4163142 370,50.9305846 Z M368.403241,65.7270582 L368.176329,65.7270582 L368.176329,52.661472 L368.403241,52.661472 L368.630152,52.661472 L368.853137,52.661472 L369.30696,52.661472 L369.546526,52.661472 L369.773438,52.661472 L369.999476,52.661472 L369.999476,65.7270582 L369.773438,65.7270582 L369.999476,65.7270582 L369.088776,68.978316 L368.176766,65.7270582 L368.403241,65.7270582 Z M365.606468,51.9328554 L365.606468,66.9896255 L364.847624,67.2171513 L356.258148,70 L355.823525,70 L355.744979,70 L355.310356,70 L346,67.3703192 L346,51.9328554 L346.826045,51.267198 L346.826045,66.7790195 L355.349193,69.2083352 L355.744979,69.2083352 L355.823525,69.2083352 L356.219311,69.2083352 L364.780423,66.3858587 L364.780423,51.267198 L365.606468,51.9328554 Z"/>
      <text fill="#113750" font-family="Lato-Bold, Lato" font-size="16" font-weight="bold" letter-spacing="-.3">
        <tspan x="15" y="31">4. </tspan> <tspan x="29.98" y="31" font-family="Lato-Regular, Lato" font-weight="normal">Quality educatio</tspan> <tspan x="141.164" y="31" font-family="Lato-Regular, Lato" font-weight="normal">n</tspan>
      </text>
    </g>
  </g>
</svg>
