<svg xmlns="http://www.w3.org/2000/svg" xmlns:xlink="http://www.w3.org/1999/xlink" width="60" height="52" viewBox="0 0 60 52">
  <defs>
    <rect id="a" width="1280" height="664"/>
  </defs>
  <g fill="none" fill-rule="evenodd" transform="translate(-778 -211)">
    <g stroke-linecap="square">
      <use fill="#FFFFFF" xlink:href="#a"/>
      <rect width="1281" height="665" x="-.5" y="-.5" stroke="#CBCCD0"/>
    </g>
    <g transform="translate(440 179)">
      <rect width="400" height="85" fill="#FFFFFF" stroke="#E6E7ED"/>
      <path fill="#FF3A21" d="M384.922215,48 L378.936222,48 C378.895618,48 378.860394,48.0329192 378.860394,48.0744261 L378.860394,50.0142745 C378.860394,50.0557814 378.895618,50.0887006 378.936222,50.0887006 L381.319661,50.0887006 L378.673026,52.6702353 C377.339925,51.6492624 375.663397,51.0376329 373.839616,51.0376329 C369.517431,51.0376329 366,54.4674338 366,58.6834793 C366,62.5650846 368.981745,65.7773325 372.827926,66.2634873 L372.827926,68.4986546 L370.466502,68.4986546 C370.422962,68.4986546 370.389696,68.5315738 370.389696,68.5721265 L370.389696,70.6517624 C370.389696,70.6927921 370.422962,70.7257113 370.466502,70.7257113 L372.827926,70.7257113 L372.827926,72.9255739 C372.827926,72.9666037 372.861682,73 372.903754,73 L375.03476,73 C375.077321,73 375.112544,72.9666037 375.112544,72.9255739 L375.112544,70.7257113 L377.472501,70.7257113 C377.514573,70.7257113 377.548818,70.6927921 377.548818,70.6517624 L377.548818,68.5721265 C377.548818,68.5315738 377.514573,68.4986546 377.472501,68.4986546 L375.112544,68.4986546 L375.112544,66.2267514 C378.83202,65.63182 381.679232,62.476823 381.679232,58.6834793 C381.679232,57.0470602 381.148437,55.5308677 380.247309,54.2861396 L382.856275,51.7413408 L382.856275,53.9121009 C382.856275,53.9536078 382.891498,53.986527 382.93357,53.986527 L384.922215,53.986527 C384.964777,53.986527 385,53.9536078 385,53.9121009 L385,48.0744261 C385,48.0329192 384.964777,48 384.922215,48 M373.839616,64.3112345 C370.657294,64.3112345 368.069365,61.7864735 368.069365,58.6834793 C368.069365,55.580008 370.657294,53.0557241 373.839616,53.0557241 C377.021937,53.0557241 379.610356,55.580008 379.610356,58.6834793 C379.610356,61.7864735 377.021937,64.3112345 373.839616,64.3112345 M377.364434,56.373552 L370.364795,56.373552 C370.323212,56.373552 370.288967,56.4040858 370.288967,56.4398676 L370.288967,58.0925078 C370.288967,58.1311521 370.323212,58.1602546 370.364795,58.1602546 L377.364434,58.1602546 C377.407974,58.1602546 377.44173,58.1311521 377.44173,58.0925078 L377.44173,56.4398676 C377.44173,56.4040858 377.407974,56.373552 377.364434,56.373552 M377.364434,59.3241637 L370.364795,59.3241637 C370.323212,59.3241637 370.288967,59.3551745 370.288967,59.3928646 L370.288967,61.0455049 C370.288967,61.0822408 370.323212,61.1122975 370.364795,61.1122975 L377.364434,61.1122975 C377.407974,61.1122975 377.44173,61.0822408 377.44173,61.0455049 L377.44173,59.3928646 C377.44173,59.3551745 377.407974,59.3241637 377.364434,59.3241637"/>
      <text fill="#113750" font-family="Lato-Bold, Lato" font-size="16" font-weight="bold" letter-spacing="-.3">
        <tspan x="15" y="31">5. </tspan> <tspan x="29.98" y="31" font-family="Lato-Regular, Lato" font-weight="normal">Gender equality</tspan>
      </text>
    </g>
  </g>
</svg>
