<svg xmlns="http://www.w3.org/2000/svg" xmlns:xlink="http://www.w3.org/1999/xlink" width="60" height="52" viewBox="0 0 60 52">
  <defs>
    <rect id="a" width="1280" height="664"/>
  </defs>
  <g fill="none" fill-rule="evenodd" transform="translate(-1164 -211)">
    <g stroke-linecap="square">
      <use fill="#FFFFFF" xlink:href="#a"/>
      <rect width="1281" height="665" x="-.5" y="-.5" stroke="#CBCCD0"/>
    </g>
    <g transform="translate(840 179)">
      <rect width="385" height="85" fill="#FFFFFF" stroke="#E6E7ED"/>
      <path fill="#26BDE2" d="M366.613311,52.5072745 C366.168555,52.3151569 365.605257,52.3841569 365.063555,52.5992745 C363.02723,53.4096863 361.64196,53.7010196 359.500419,53.0425882 C358.151446,52.6285882 356.889311,51.760451 355.397906,52.289 C354.40823,52.6385098 353.486095,52.9717843 352.366392,52.9632157 L351.719933,49.7102941 L367.078284,49.7102941 L366.613311,52.5072745 Z M361.407636,62.1668235 C361.407636,62.1668235 360.661933,62.9186078 359.449419,62.8374314 C358.234149,62.9186078 357.489365,62.1668235 357.489365,62.1668235 C356.259852,60.9613529 356.698636,59.4613922 357.126852,58.6866078 C357.391041,58.200902 359.279419,55.416549 359.442528,55.1797843 L359.442528,55.1608431 C359.442528,55.1608431 359.444825,55.164451 359.449419,55.1698627 L359.455852,55.1608431 L359.455852,55.1797843 C359.614825,55.416549 361.506419,58.200902 361.770609,58.6866078 C362.199284,59.4613922 362.63669,60.9613529 361.407636,62.1668235 L361.407636,62.1668235 Z M367.750473,49.0635882 C367.711879,49.023 367.65996,49 367.601609,49 L351.192014,49 C351.135041,49 351.082203,49.023 351.043609,49.0635882 C351.007771,49.1086863 350.993528,49.1641569 351.002717,49.2160196 L353.759473,65.583451 C353.775095,65.674098 353.855501,65.7408431 353.94923,65.7408431 L357.33269,65.7408431 L357.564717,68.4065882 L356.140392,68.4083922 L359.453555,71.6604118 L362.774987,68.4007255 L361.351122,68.4025294 L361.58269,65.7408431 L365.025879,65.7408431 C365.120528,65.7408431 365.200014,65.674098 365.213798,65.5802941 L367.793203,49.2160196 C367.801933,49.160098 367.785392,49.1064314 367.750473,49.0635882 L367.750473,49.0635882 Z"/>
      <text fill="#113750" font-family="Lato-Bold, Lato" font-size="16" font-weight="bold" letter-spacing="-.3">
        <tspan x="15" y="31">6. </tspan> <tspan x="29.98" y="31" font-family="Lato-Regular, Lato" font-weight="normal">Clean water and sanitatio</tspan> <tspan x="200.4" y="31" font-family="Lato-Regular, Lato" font-weight="normal">n</tspan>
      </text>
    </g>
  </g>
</svg>
