<svg xmlns="http://www.w3.org/2000/svg" xmlns:xlink="http://www.w3.org/1999/xlink" width="60" height="52" viewBox="0 0 60 52">
  <defs>
    <rect id="a" width="1280" height="664"/>
  </defs>
  <g fill-rule="evenodd" transform="translate(-378 -296)">
    <g transform="translate(55 264)">
      <path d="M356.499502,62.2425182 C354.436694,62.2425182 352.763649,60.5704489 352.763649,58.5066206 C352.763649,56.8300712 353.867729,55.4108781 355.388951,54.9389752 L355.388951,56.3297944 C354.597478,56.7339981 354.0539,57.5558458 354.0539,58.5066206 C354.0539,59.8576168 355.148522,60.9517544 356.499502,60.9517544 C357.850482,60.9517544 358.945105,59.8576168 358.945105,58.5066206 C358.945105,57.5533569 358.399038,56.7300158 357.603582,56.3258121 L357.603582,54.9364863 C359.127791,55.4078913 360.235853,56.8275822 360.235853,58.5066206 C360.235853,60.5704489 358.562808,62.2425182 356.499502,62.2425182 L356.499502,62.2425182 Z M355.966378,54.2166851 C355.966378,53.9772491 356.206309,53.7139193 356.501493,53.7139193 C356.795682,53.7139193 357.033124,53.9772491 357.033124,54.2166851 L357.033124,56.682726 C357.033124,56.9206685 356.795682,57.1815094 356.501493,57.1815094 C356.206309,57.1815094 355.966378,56.9206685 355.966378,56.682726 L355.966378,54.2166851 Z M356.498507,51.3792944 C360.464833,51.3792944 363.680006,54.5955016 363.680006,58.5613772 C363.680006,62.5302396 360.464833,65.7454512 356.498507,65.7454512 C352.532181,65.7454512 349.31651,62.5302396 349.31651,58.5613772 C349.31651,54.5955016 352.532181,51.3792944 356.498507,51.3792944 Z M348.253546,58.4989049 C348.253546,58.8254537 347.96533,59.0907746 347.701506,59.0907746 L344.556022,59.0907746 C344.290705,59.0907746 344,58.8254537 344,58.4989049 C344,58.1738494 344.290705,57.9095241 344.556022,57.9095241 L347.701506,57.9095241 C347.96533,57.9095241 348.253546,58.1738494 348.253546,58.4989049 Z M369,58.4989049 C369,58.8254537 368.711784,59.0907746 368.44796,59.0907746 L365.302476,59.0907746 C365.037656,59.0907746 364.746454,58.8254537 364.746454,58.4989049 C364.746454,58.1738494 365.037656,57.9095241 365.302476,57.9095241 L368.44796,57.9095241 C368.711784,57.9095241 369,58.1738494 369,58.4989049 Z M356.501244,50.253597 C356.175197,50.253597 355.909382,49.9653779 355.909382,49.7015503 L355.909382,46.556029 C355.909382,46.2907081 356.175197,46 356.501244,46 C356.826296,46 357.090618,46.2907081 357.090618,46.556029 L357.090618,49.7015503 C357.090618,49.9653779 356.826296,50.253597 356.501244,50.253597 Z M356.501244,71 C356.175197,71 355.909382,70.7117808 355.909382,70.4479533 L355.909382,67.3029298 C355.909382,67.0381067 356.175197,66.746403 356.501244,66.746403 C356.826296,66.746403 357.090618,67.0381067 357.090618,67.3029298 L357.090618,70.4479533 C357.090618,70.7117808 356.826296,71 356.501244,71 Z M349.343191,54.4028577 C349.181412,54.6865968 348.799115,54.7732118 348.570633,54.6422936 L345.840797,53.0797376 C345.610324,52.9483217 345.489861,52.5729896 345.65164,52.2897484 C345.813419,52.0075027 346.197209,51.9228787 346.427184,52.0547925 L349.15702,53.6173485 C349.386,53.7487645 349.50497,54.1201142 349.343191,54.4028577 Z M367.349355,64.7081609 C367.187078,64.9919 366.80528,65.0785151 366.5763,64.9475969 L363.846464,63.3850409 C363.616489,63.2541227 363.496026,62.8782929 363.657805,62.5955494 C363.819086,62.3128059 364.203374,62.228182 364.433349,62.3600957 L367.163185,63.9226517 C367.391667,64.0540677 367.510637,64.4259152 367.349355,64.7081609 Z M360.597243,51.3434537 C360.313507,51.1816726 360.226395,50.7993716 360.35781,50.5703892 L361.919849,47.8405207 C362.051264,47.6105427 362.427089,47.4890825 362.709829,47.6513614 C362.992569,47.8131424 363.077192,48.1969368 362.944782,48.4274126 L361.382742,51.157281 C361.251328,51.3857657 360.879983,51.5047369 360.597243,51.3434537 Z M350.292063,69.3496342 C350.008327,69.1878532 349.921215,68.8050543 350.052629,68.5765697 L351.614669,65.8467013 C351.746083,65.6167233 352.121909,65.4957608 352.404649,65.6575419 C352.686891,65.8193229 352.771514,66.2036151 352.639602,66.4335931 L351.077562,69.1634616 C350.946646,69.3919462 350.574305,69.5109175 350.292063,69.3496342 Z M352.389915,51.3507712 C352.106179,51.5135478 351.733838,51.3950743 351.601926,51.1670875 L350.034411,48.4407035 C349.901503,48.2107255 349.986126,47.8259355 350.269364,47.6636567 C350.552104,47.5008801 350.924942,47.6218425 351.05785,47.8518205 L352.625863,50.5787022 C352.757278,50.8066891 352.672157,51.1884923 352.389915,51.3507712 Z M362.73203,69.3355468 C362.448792,69.4983235 362.075456,69.3808455 361.944041,69.1528587 L360.376526,66.4254792 C360.243618,66.1955012 360.328241,65.8107112 360.611479,65.6489302 C360.894219,65.4861535 361.267556,65.607116 361.400464,65.837094 L362.967979,68.5634779 C363.099393,68.7914647 363.014272,69.1737658 362.73203,69.3355468 Z M363.649542,54.3902139 C363.486767,54.1074704 363.604741,53.733134 363.833223,53.6022158 L366.559575,52.0341841 C366.790048,51.9017725 367.173837,51.9868942 367.336612,52.2696377 C367.499387,52.5518834 367.377928,52.9257221 367.147953,53.0581337 L364.421601,54.6261653 C364.193119,54.7570835 363.811321,54.6719618 363.649542,54.3902139 Z M345.664732,64.732453 C345.501957,64.4497095 345.619932,64.075373 345.848413,63.9439571 L348.574765,62.376921 C348.804242,62.2440116 349.189525,62.3286355 349.351305,62.6118768 C349.514577,62.8941225 349.393118,63.268459 349.163143,63.399875 L346.436792,64.9679066 C346.20831,65.0993226 345.826511,65.0146987 345.664732,64.732453 Z"/>
    </g>
  </g>
</svg>
