<svg xmlns="http://www.w3.org/2000/svg" xmlns:xlink="http://www.w3.org/1999/xlink" width="60" height="52" viewBox="0 0 60 52">
  <defs>
    <rect id="a" width="1280" height="664"/>
  </defs>
  <g fill="none" fill-rule="evenodd" transform="translate(-778 -296)">
    <g stroke-linecap="square">
      <use fill="#FFFFFF" xlink:href="#a"/>
      <rect width="1281" height="665" x="-.5" y="-.5" stroke="#CBCCD0"/>
    </g>
    <g transform="translate(440 264)">
      <rect width="400" height="85" fill="#FFFFFF" stroke="#E6E7ED"/>
      <path fill="#B93156" d="M383.981655,52.206419 C384.271398,51.9206419 384.380551,52.1734447 384.380551,52.3119367 L384.380551,68.7493955 C384.380551,68.8874478 384.267848,69 384.12808,69 L379.541886,69 C379.401673,69 379.288083,68.8874478 379.288083,68.7493955 L379.288083,57.0197846 C379.288083,56.6786107 379.374163,56.5568257 379.541886,56.3915146 L383.981655,52.206419 Z M371.190319,57.658958 C371.478731,57.3723016 371.589215,57.6255441 371.589215,57.7640361 L371.589215,68.7497472 C371.589215,68.8869202 371.476512,68.9994724 371.3363,68.9994724 L366.749662,68.9994724 C366.610337,68.9994724 366.496747,68.8869202 366.496747,68.7497472 L366.496747,62.4718839 C366.496747,62.1302704 366.582827,62.008925 366.749662,61.843614 L371.190319,57.658958 Z M385.999829,47.1310178 L385.998054,47.167949 L385.251289,50.6069466 L385.250401,50.617938 C385.24907,50.6482743 385.23709,50.6772917 385.213573,50.7005935 C385.163878,50.7507144 385.082235,50.7507144 385.032539,50.7005935 L384.216999,49.8933832 L375.47368,58.5568257 C375.433302,58.5968345 375.368964,58.5968345 375.328587,58.5568257 L374.363072,57.6010112 C374.358635,57.5966146 374.357304,57.5926577 374.355085,57.5887008 L371.772689,55.0298967 L366.140226,60.6100242 C366.100292,60.650033 366.035954,60.650033 365.996463,60.6100242 L365.029618,59.6524511 C364.990127,59.6133216 364.990127,59.548692 365.029618,59.5091229 L370.733519,53.8582106 C370.733519,53.8582106 370.733519,53.8573313 370.734406,53.8573313 L371.699477,52.9006375 C371.740298,52.8601891 371.804193,52.8601891 371.84457,52.9006375 L375.402686,56.4262475 L383.106391,48.7929215 L382.329898,48.0235217 L382.291295,47.9857111 C382.241155,47.9351506 382.241155,47.8542537 382.291295,47.8041328 C382.310374,47.7869862 382.333447,47.7746758 382.357851,47.7698395 L382.419527,47.7636843 L385.819238,47.0035173 L385.855623,47.0017586 L385.880027,47 C385.908868,47.0026379 385.938597,47.0131897 385.962113,47.0356122 C385.989623,47.0619916 386.001604,47.0976039 385.999829,47.1310178 Z M377.611123,58.3931413 C377.926158,58.0805452 378.036198,58.3342273 378.036198,58.4727193 L378.036198,68.7492636 C378.036198,68.8864366 377.922608,68.9994284 377.78417,68.9994284 L373.196202,68.9994284 C373.056877,68.9994284 372.945061,68.8864366 372.945061,68.7492636 L372.945061,58.6402286 C372.945061,58.5017366 373.021823,58.2172785 373.378123,58.5681249 L375.324238,60.5342713 C375.362397,60.5716421 375.422298,60.5729611 375.462676,60.5395472 L377.611123,58.3931413 Z"/>
      <text fill="#113750" font-family="Lato-Bold, Lato" font-size="16" font-weight="bold" letter-spacing="-.3">
        <tspan x="15" y="31">8. </tspan> <tspan x="29.98" y="31" font-family="Lato-Regular, Lato" font-weight="normal">Decent work and economic growth</tspan>
      </text>
    </g>
  </g>
</svg>
