<svg xmlns="http://www.w3.org/2000/svg" xmlns:xlink="http://www.w3.org/1999/xlink" width="60" height="52" viewBox="0 0 60 52">
  <defs>
    <rect id="a" width="1280" height="664"/>
  </defs>
  <g fill="none" fill-rule="evenodd" transform="translate(-1164 -296)">
    <g stroke-linecap="square">
      <use fill="#FFFFFF" xlink:href="#a"/>
      <rect width="1281" height="665" x="-.5" y="-.5" stroke="#CBCCD0"/>
    </g>
    <g transform="translate(840 264)">
      <rect width="385" height="85" fill="#FFFFFF" stroke="#E6E7ED"/>
      <path fill="#FD6925" d="M369.297746,66.2452698 L364.675014,69.0066634 L364.675014,63.4834206 L369.297746,60.7202052 L369.297746,66.2452698 Z M354.026801,69.0066634 L354.026801,63.9028901 L358.297086,66.4552322 L354.026801,69.0066634 Z M353.324106,69.0066634 L348.702254,66.2452698 L348.702254,60.7202052 L353.324106,63.4834206 L353.324106,69.0066634 Z M358.297086,53.727225 L354.026801,56.2795671 L354.026801,51.1753384 L358.297086,53.727225 Z M363.972759,56.2795671 L359.702474,53.727225 L363.972759,51.1753384 L363.972759,56.2795671 Z M359.702474,60.0907732 L364.323446,57.3293795 L368.946179,60.0903177 L364.323446,62.8530778 L359.702474,60.0907732 Z M358.648653,59.4608858 L354.378368,56.9094545 L358.648653,54.356657 L358.648653,59.4608858 Z M363.621192,56.9094545 L359.351347,59.4608858 L359.351347,54.356657 L363.621192,56.9094545 Z M358.648653,65.8253448 L354.377928,63.2734582 L358.648653,60.7202052 L358.648653,65.8253448 Z M369.824436,59.7756017 L364.675014,56.6994921 L364.675014,50.5454509 C364.675014,50.4151922 364.608132,50.2954089 364.49945,50.2302795 L359.175344,47.0485054 C359.066661,46.9838315 358.932899,46.9838315 358.824216,47.0485054 L353.49967,50.2302795 C353.390988,50.2954089 353.324106,50.4151922 353.324106,50.5454509 L353.324106,56.6994921 L348.175564,59.7756017 C348.066881,59.8407311 348,59.9605145 348,60.0903177 L348,66.4552322 C348,66.5850355 348.066881,66.7048189 348.175564,66.7704037 L353.49967,69.9517223 C353.554231,69.9836038 353.614952,70 353.675674,70 C353.735955,70 353.796676,69.9836038 353.851237,69.9517223 L358.99978,66.8751572 L364.148323,69.9517223 C364.202444,69.9836038 364.263165,70 364.323446,70 C364.384608,70 364.444889,69.9836038 364.49945,69.9517223 L369.824436,66.7704037 C369.933119,66.7052743 370,66.5850355 370,66.4552322 L370,60.0903177 C370,59.9605145 369.933119,59.8407311 369.824436,59.7756017 L369.824436,59.7756017 Z"/>
      <text fill="#113750" font-family="Lato-Bold, Lato" font-size="16" font-weight="bold" letter-spacing="-.3">
        <tspan x="15" y="31">9. </tspan> <tspan x="29.98" y="31" font-family="Lato-Regular, Lato" font-weight="normal">Industry, innovation and infrastructure</tspan>
      </text>
    </g>
  </g>
</svg>
