<?xml version="1.0" encoding="UTF-8"?>
<svg width="49px" height="49px" viewBox="0 0 49 49" version="1.1" xmlns="http://www.w3.org/2000/svg" xmlns:xlink="http://www.w3.org/1999/xlink">
    <!-- Generator: Sketch 47.1 (45422) - http://www.bohemiancoding.com/sketch -->
    <title>vis</title>
    <desc>Created with Sketch.</desc>
    <defs>
        <rect id="path-1" x="0" y="0" width="45" height="45" rx="4"></rect>
        <filter x="-10.0%" y="-7.8%" width="120.0%" height="120.0%" filterUnits="objectBoundingBox" id="filter-2">
            <feMorphology radius="1" operator="dilate" in="SourceAlpha" result="shadowSpreadOuter1"></feMorphology>
            <feOffset dx="0" dy="1" in="shadowSpreadOuter1" result="shadowOffsetOuter1"></feOffset>
            <feGaussianBlur stdDeviation="1" in="shadowOffsetOuter1" result="shadowBlurOuter1"></feGaussianBlur>
            <feComposite in="shadowBlurOuter1" in2="SourceAlpha" operator="out" result="shadowBlurOuter1"></feComposite>
            <feColorMatrix values="0 0 0 0 0   0 0 0 0 0   0 0 0 0 0  0 0 0 0.0877774004 0" type="matrix" in="shadowBlurOuter1"></feColorMatrix>
        </filter>
    </defs>
    <g id="Platform" stroke="none" stroke-width="1" fill="none" fill-rule="evenodd">
        <g id="MyCW-3" transform="translate(-643.000000, -1466.000000)">
            <g id="Group-8" transform="translate(55.000000, 1467.000000)">
                <g id="options" transform="translate(535.000000, 0.000000)">
                    <g id="vis" transform="translate(55.000000, 0.000000)">
                        <g id="Rectangle-238">
                            <use fill="black" fill-opacity="1" filter="url(#filter-2)" xlink:href="#path-1"></use>
                            <use fill="#FFFFFF" fill-rule="evenodd" xlink:href="#path-1"></use>
                            <rect stroke-opacity="0.5" stroke="#113750" stroke-width="1" x="-0.5" y="-0.5" width="46" height="46" rx="4"></rect>
                        </g>
                        <path d="M17,30 L29,30 L29,30 C29.5522847,30 30,29.5522847 30,29 L30,29 L30,29 C30,28.4477153 29.5522847,28 29,28 L17,28 L17,28 C16.4477153,28 16,28.4477153 16,29 L16,29 L16,29 C16,29.5522847 16.4477153,30 17,30 Z" id="Line" fill="#113750" fill-rule="nonzero"></path>
                        <path d="M17,22 L17,25 L17,25 C17,25.5522847 17.4477153,26 18,26 L18,26 L18,26 C18.5522847,26 19,25.5522847 19,25 L19,22 L19,22 C19,21.4477153 18.5522847,21 18,21 L18,21 L18,21 C17.4477153,21 17,21.4477153 17,22 Z" id="Line" fill="#113750" fill-rule="nonzero"></path>
                        <path d="M22,18 L22,25 L22,25 C22,25.5522847 22.4477153,26 23,26 L23,26 L23,26 C23.5522847,26 24,25.5522847 24,25 L24,18 L24,18 C24,17.4477153 23.5522847,17 23,17 L23,17 L23,17 C22.4477153,17 22,17.4477153 22,18 Z" id="Line" fill="#113750" fill-rule="nonzero"></path>
                        <path d="M27,14 L27,25 L27,25 C27,25.5522847 27.4477153,26 28,26 L28,26 L28,26 C28.5522847,26 29,25.5522847 29,25 L29,14 L29,14 C29,13.4477153 28.5522847,13 28,13 L28,13 L28,13 C27.4477153,13 27,13.4477153 27,14 Z" id="Line" fill="#113750" fill-rule="nonzero"></path>
                    </g>
                </g>
            </g>
        </g>
    </g>
</svg>