<!-- Generated by IcoMoon.io -->
<svg version="1.1" xmlns="http://www.w3.org/2000/svg" width="32" height="32" viewBox="0 0 32 32">
<title>add-to-user</title>
<path fill="#302463" d="M12.52 10.541c-1.856 0-3.368 1.513-3.368 3.368v1.474c0 1.856 1.513 3.368 3.368 3.368s3.368-1.513 3.368-3.368v-1.474c0-1.856-1.513-3.368-3.368-3.368zM12.52 8.015c3.251 0 5.895 2.644 5.895 5.895v1.474c0 3.251-2.644 5.895-5.895 5.895s-5.895-2.644-5.895-5.895v-1.474c0-3.251 2.644-5.895 5.895-5.895zM18.832 21.489c2.754 0.898 4.635 2.948 4.635 5.589v3.008c0 0.93-0.754 1.684-1.684 1.684h-18.526c-0.93 0-1.684-0.754-1.684-1.684v-3.008c0-2.641 1.881-4.692 4.635-5.589 1.669 1.523 3.88 2.462 6.312 2.462s4.643-0.938 6.312-2.462zM12.52 26.477c-2.425 0-4.74-0.738-6.691-2.073-1.128 0.661-1.73 1.612-1.73 2.674v2.165h16.842v-2.165c0-1.062-0.602-2.013-1.73-2.674-1.951 1.335-4.266 2.073-6.691 2.073zM24.060 7.449h-4.19c-0.58 0-1.051-0.471-1.051-1.051v0c0-0.58 0.471-1.051 1.051-1.051h4.19v-4.312c0-0.603 0.489-1.091 1.091-1.091s1.091 0.489 1.091 1.091v4.312h4.19c0.58 0 1.051 0.471 1.051 1.051s-0.471 1.051-1.051 1.051h-4.19v4.312c0 0.603-0.489 1.091-1.091 1.091s-1.091-0.489-1.091-1.091v-4.312z"></path>
</svg>
