<?xml version="1.0" encoding="UTF-8"?>
<svg width="16px" height="16px" viewBox="0 0 16 16" version="1.1" xmlns="http://www.w3.org/2000/svg" xmlns:xlink="http://www.w3.org/1999/xlink">
    <!-- Generator: sketchtool 60.1 (101010) - https://sketch.com -->
    <title>9A015F9A-4402-4AA9-B5AF-C96D197CDAA4</title>
    <desc>Created with sketchtool.</desc>
    <g id="Page-1" stroke="none" stroke-width="1" fill="none" fill-rule="evenodd">
        <g id="climate_watch-country-ndc" transform="translate(-753.000000, -491.000000)" fill="#0A1941" fill-rule="nonzero">
            <g id="icon/info_fill" transform="translate(761.000000, 499.000000) rotate(180.000000) translate(-761.000000, -499.000000) translate(753.000000, 491.000000)">
                <g id="info_fill">
                    <path d="M7.99999991,0.400000006 C10.0934999,0.400000006 11.8834999,1.1435 13.3699998,2.62999998 C14.8564998,4.11649996 15.5999998,5.90649994 15.5999998,7.99999991 C15.5999998,10.0934999 14.8564998,11.8834999 13.3699998,13.3699998 C11.8834999,14.8564998 10.0934999,15.5999998 7.99999991,15.5999998 C5.90649994,15.5999998 4.11649996,14.8564998 2.62999998,13.3699998 C1.1435,11.8834999 0.400000006,10.0934999 0.400000006,7.99999991 C0.400000006,5.90649994 1.1435,4.11649996 2.62999998,2.62999998 C4.11649996,1.1435 5.90649994,0.400000006 7.99999991,0.400000006 Z M9.0270001,4.96700004 C9.0270001,4.40650005 8.57250011,3.95200005 8.01200011,3.95200005 C7.45150012,3.95200005 6.99700013,4.40650005 6.99700013,4.96700004 C6.99700013,5.52750003 7.45150012,5.98200002 8.01200011,5.98200002 C8.57250011,5.98200002 9.0270001,5.52750003 9.0270001,4.96700004 Z M9.0270001,11.5639999 L9.0270001,8.01200009 C9.0270001,7.45150011 8.57250011,6.99700013 8.01200011,6.99700013 C7.45150012,6.99700013 6.99700013,7.45150011 6.99700013,8.01200009 L6.99700013,11.5639999 C6.99700013,12.1244999 7.45150012,12.5789999 8.01200011,12.5789999 C8.57250011,12.5789999 9.0270001,12.1244999 9.0270001,11.5639999 Z" id="Shape"></path>
                </g>
            </g>
        </g>
    </g>
</svg>