<!-- Generated by IcoMoon.io -->
<svg version="1.1" xmlns="http://www.w3.org/2000/svg" width="34" height="32" viewBox="0 0 34 32">
<title>back</title>
<path fill="#302463" d="M14.166 15.13h8.645c0.604 0 0.985 0.387 0.985 0.865s-0.38 0.865-0.985 0.865h-8.655l2.884 2.884c0.45 0.45 0.556 1.075 0.235 1.396s-0.945 0.215-1.396-0.235l-4.036-4.036c-0.129-0.129-0.229-0.272-0.3-0.418-0.089-0.125-0.127-0.282-0.12-0.451-0.008-0.169 0.031-0.326 0.12-0.451 0.070-0.146 0.171-0.289 0.3-0.418l4.036-4.036c0.45-0.45 1.075-0.556 1.396-0.235s0.215 0.945-0.235 1.396l-2.874 2.874z"></path>
</svg>
