<svg xmlns="http://www.w3.org/2000/svg" width="24" height="24" viewBox="0 0 24 24">
  <g transform="translate(3 1)">
    <path d="M11.2902048 19.2647674C11.4198866 18.8713776 11.8439199 18.6576001 12.2373097 18.7872819 12.6306994 18.9169637 12.844477 19.340997 12.7147952 19.7343867 12.2187938 21.239007 10.7029387 22.2495771 9.0025 22.2495771 7.30206128 22.2495771 5.78620618 21.239007 5.29020482 19.7343867 5.16052302 19.340997 5.37430057 18.9169637 5.76769034 18.7872819 6.1610801 18.6576001 6.58511338 18.8713776 6.71479518 19.2647674 7.00047465 20.1313762 7.927776 20.7495771 9.0025 20.7495771 10.077224 20.7495771 11.0045253 20.1313762 11.2902048 19.2647674zM9 0C9.37969577 0 9.69349096.282153882 9.74315338.648229443L9.75.75 9.75 3C9.75 3.41421356 9.41421356 3.75 9 3.75 8.62030423 3.75 8.30650904 3.46784612 8.25684662 3.10177056L8.25 3 8.25.75C8.25.335786438 8.58578644 0 9 0z"/>
    <path d="M9,3.75 C12.7279221,3.75 15.75,6.77207794 15.75,10.5 L15.7515868,10.9111403 C15.7581775,11.7562806 15.7851688,12.5303808 15.8301207,13.2376145 L15.8809689,13.9227139 C16.0320471,15.6910329 16.3050595,16.9937486 16.6537317,17.9100012 L16.689,18 L1.213,18 L1.2610108,17.8769799 C1.85255194,16.2948432 2.25,13.8944534 2.25,10.5 C2.25,6.77207794 5.27207794,3.75 9,3.75 Z M-0.529061592,18.1877533 L-0.590550694,18.2876691 C-0.975958075,18.7799628 -0.625213509,19.5 0,19.5 L18,19.5 C18.672931,19.5 18.9895394,18.6954297 18.5458972,18.2348131 L18.4934085,18.1844607 L18.4419102,18.1175206 C18.4304887,18.1008925 18.4177604,18.0815066 18.4038942,18.0593293 L18.3083909,17.8925046 C18.1603144,17.6131335 18.0122101,17.2320315 17.8742504,16.7349629 C17.4833836,15.3266695 17.25,13.2840967 17.25,10.5 C17.25,5.94365081 13.5563492,2.25 9,2.25 C4.52802765,2.25 0.887097732,5.80811562 0.753782074,10.247775 L0.75,10.5 C0.75,12.7926417 0.552671233,14.6433806 0.212503359,16.0967412 C-0.0187462487,17.0847507 -0.283877521,17.766223 -0.529061592,18.1877533 Z"/>
  </g>
</svg>
