<!-- Generated by IcoMoon.io -->
<svg version="1.1" xmlns="http://www.w3.org/2000/svg" width="11018" height="1024" viewBox="0 0 11018 1024">
<title></title>
<g id="icomoon-ignore">
</g>
<path fill="#fff" d="M897.434 863.437c-42.885 49.398-95.805 88.474-158.72 117.309-62.874 28.836-135.373 43.254-217.498 43.254-74.793 0-143.892-12.37-207.258-37.069-63.406-24.699-118.333-59.72-164.864-104.98-46.49-45.302-82.985-99.533-109.404-162.693-26.46-63.078-39.69-132.71-39.69-208.65 0-77.783 13.435-148.234 40.346-211.354 26.911-63.16 64.061-116.9 111.493-161.3s103.055-78.479 166.912-102.277c63.816-23.757 132.71-35.676 206.561-35.676 68.403 0 135.66 12.124 201.769 36.372s119.726 59.72 160.727 106.373l-158.679 159.252c-21.717-29.782-50.917-52.896-84.869-66.782l-1.311-0.474c-32.321-13.864-69.933-21.946-109.427-21.996h-0.019c-41.042 0-78.643 7.578-112.845 22.651-34.553 15.262-63.894 36.351-88.082 62.306l-0.146 0.158c-24.313 26.384-43.809 57.642-56.818 92.085l-0.649 1.959c-13.681 36.127-20.48 75.694-20.48 118.702 0 43.95 6.799 84.214 20.48 120.832 13.681 36.577 32.604 67.912 56.771 94.003 23.891 25.66 52.791 46.305 85.187 60.431l1.648 0.64c33.792 14.664 70.697 21.996 110.838 21.996 46.531 0 87.081-9.175 121.774-27.443 34.652-18.309 62.464-42.107 83.436-71.393l162.775 153.723zM1029.448 997.908v-971.817h235.315v767.304h374.784v204.513h-610.058zM1781.187 997.908v-971.817h235.315v971.817h-235.315zM3126.682 997.908l5.448-687.718h-4.096l-251.699 687.718h-164.168l-244.859-687.718h-4.096l5.448 687.718h-220.242v-971.817h332.431l220.242 623.165h5.448l210.698-623.165h337.92v971.817h-228.475zM4243.661 997.908l-75.244-190.792h-374.784l-71.148 190.792h-254.484l406.323-971.817h227.082l402.186 971.817h-259.932zM3983.77 285.532l-123.126 333.537h243.507l-120.422-333.537zM4948.91 226.468v771.441h-233.923v-771.4h-273.613v-200.417h781.107v200.376h-273.572zM5361.377 997.908v-971.817h651.182v199.025h-425.452v182.559h402.227v188.047h-402.227v201.81h450.068v200.376h-675.758zM6485.934 860.692h2.703l242.156-835.994h117.637l242.156 835.994h2.703l236.667-835.994h103.997l-285.901 971.858h-114.934l-243.507-834.601h-2.744l-243.507 834.601h-114.893l-285.901-971.858h103.956l239.411 835.994zM7590.625 996.557h-108.093l418.652-971.858h95.764l415.826 971.858h-109.445l-106.701-255.304h-500.654l-105.308 255.304zM7732.879 650.65h426.803l-213.402-516.096-213.402 516.096zM8815.698 996.557h-98.509v-883.999h-324.198v-87.859h746.906v87.859h-324.198v883.999zM10091.397 840.090c-17.799 26.323-37.402 49.244-59.293 69.753l-0.222 0.206c-23.444 21.975-49.946 41.137-78.691 56.682l-2.001 0.989c-30.597 16.466-64.307 29.491-101.253 39.117s-77.292 14.418-121.078 14.418c-72.95 0-140.452-12.82-202.465-38.42-62.013-25.641-115.343-61.112-160.031-106.414-44.687-45.261-79.585-99.041-104.653-161.26-25.108-62.259-37.642-130.417-37.642-204.554s12.78-142.295 38.298-204.513c25.559-62.218 60.908-115.999 106.045-161.26 44.586-44.552 97.753-80.523 156.809-105.219l3.222-1.195c61.563-25.6 128.369-38.42 200.417-38.42 35.594 0 70.451 3.686 104.653 10.977 34.202 7.332 66.355 17.613 96.461 30.884 31.333 13.822 58.323 29.895 83.066 48.765l-0.982-0.718c23.866 18.063 44.221 39.134 60.969 62.926l0.594 0.889-82.084 60.416c-11.855-17.674-25.174-32.997-40.166-46.499l-0.221-0.196c-17.257-15.727-36.798-29.424-57.955-40.445l-1.519-0.72c-21.271-11.272-46.040-21.115-71.94-28.225l-2.608-0.61c-25.322-6.977-54.399-10.986-84.412-10.986-0.867 0-1.732 0.003-2.597 0.010l0.133-0.001c-62.956 0-119.276 11.469-168.96 34.324-49.717 22.77-91.823 54.019-126.26 92.305l-0.306 0.346c-33.822 38.011-60.799 82.98-78.457 132.38l-0.883 2.829c-17.339 47.543-27.367 102.429-27.367 159.656 0 0.808 0.002 1.616 0.006 2.424v-0.124c0 56.771 9.38 110.756 28.058 161.997 18.996 52.181 46.167 97.095 80.402 135.588l-0.367-0.42c34.741 38.648 76.847 69.911 124.206 91.718l2.36 0.974c49.684 22.856 105.554 34.324 167.526 34.324 55.665 0 108.544-11.469 158.72-34.324 50.135-22.897 92.119-59.474 125.829-109.814l76.595 49.398zM10293.207 24.658h98.509v421.396h528.015v-421.356h98.509v971.858h-98.509v-459.858h-528.015v459.858h-98.509v-971.858z"></path>
</svg>
