<svg xmlns="http://www.w3.org/2000/svg" width="13" height="15" viewBox="0 0 13 15">
    <path fill-rule="evenodd" d="M7.25 5.238h2.434a.5.5 0 0 0 .352-.855L7.602 1.97a.5.5 0 0 0-.852.355v2.413a.5.5 0 0 0 .5.5zM9 8.244a.756.756 0 0 0-.756-.756H3.78A.756.756 0 0 0 3.78 9h4.465A.756.756 0 0 0 9 8.244zm0 2.988a.756.756 0 0 0-.756-.755H3.78a.756.756 0 1 0 0 1.512h4.465A.756.756 0 0 0 9 11.231zM8.402.88l2.743 2.742a3 3 0 0 1 .878 2.122V13.5c0 .398-.152.744-.457 1.037-.304.293-.656.44-1.054.44h-9c-.399 0-.75-.147-1.055-.44A1.392 1.392 0 0 1 0 13.5L.035 1.477c0-.399.147-.745.44-1.038C.768.146 1.113 0 1.512 0H6.28a3 3 0 0 1 2.121.879z"/>
</svg>
