<!-- Generated by IcoMoon.io -->
<svg version="1.1" xmlns="http://www.w3.org/2000/svg" width="26" height="32" viewBox="0 0 26 32">
<path d="M10.869 17.484v-15.67c0-1.105 0.672-1.8 1.5-1.8s1.5 0.695 1.5 1.8v15.688l4.948-4.948c0.781-0.781 1.889-0.939 2.475-0.354s0.427 1.694-0.354 2.475l-7 7c-0.464 0.464-1.044 0.708-1.561 0.707-0.517 0.001-1.097-0.243-1.561-0.707l-7-7c-0.781-0.781-0.939-1.889-0.354-2.475s1.694-0.428 2.475 0.354l4.93 4.93zM1.769 30.114c-1.105 0-1.8-0.672-1.8-1.5s0.695-1.5 1.8-1.5h22.2c1.105 0 1.818 0.672 1.818 1.5s-0.714 1.5-1.818 1.5h-22.2z"></path>
</svg>
