<?xml version="1.0" encoding="UTF-8"?>
<svg width="18px" height="21px" viewBox="0 0 18 21" version="1.1" xmlns="http://www.w3.org/2000/svg" xmlns:xlink="http://www.w3.org/1999/xlink">
    <!-- Generator: Sketch 54.1 (76490) - https://sketchapp.com -->
    <title>Icon csv blue</title>
    <desc>Created with Sketch.</desc>
    <g id="UI-KIT" stroke="none" stroke-width="1">
        <g id="GENERAL-UI-COMPONENT" transform="translate(-779.000000, -3131.000000)">
            <path d="M788.25,3132.75 L782,3132.75 C781.309644,3132.75 780.75,3133.30964 780.75,3134 L780.75,3149 C780.75,3149.69036 781.309644,3150.25 782,3150.25 L793,3150.25 C793.690356,3150.25 794.25,3149.69036 794.25,3149 C794.25,3148.58579 794.585786,3148.25 795,3148.25 C795.414214,3148.25 795.75,3148.58579 795.75,3149 C795.75,3150.51878 794.518783,3151.75 793,3151.75 L782,3151.75 C780.481217,3151.75 779.25,3150.51878 779.25,3149 L779.25,3134 C779.25,3132.48122 780.481217,3131.25 782,3131.25 L789,3131.25 C789.198912,3131.25 789.389678,3131.32902 789.53033,3131.46967 L795.53033,3137.46967 C795.670982,3137.61032 795.75,3137.80109 795.75,3138 L795.75,3140 C795.75,3140.41421 795.414214,3140.75 795,3140.75 C794.585786,3140.75 794.25,3140.41421 794.25,3140 L794.25,3138.75 L789,3138.75 C788.585786,3138.75 788.25,3138.41421 788.25,3138 L788.25,3132.75 Z M793.18934,3137.25 L789.75,3133.81066 L789.75,3137.25 L793.18934,3137.25 Z M786.906,3142.9405 C786.864,3142.9915 786.8235,3143.032 786.7845,3143.062 C786.7455,3143.092 786.69,3143.107 786.618,3143.107 C786.549,3143.107 786.48675,3143.0905 786.43125,3143.0575 C786.37575,3143.0245 786.3135,3142.98775 786.2445,3142.94725 C786.1755,3142.90675 786.0945,3142.87 786.0015,3142.837 C785.9085,3142.804 785.793001,3142.7875 785.655,3142.7875 C785.483999,3142.7875 785.336251,3142.819 785.21175,3142.882 C785.087249,3142.945 784.9845,3143.035 784.9035,3143.152 C784.8225,3143.269 784.7625,3143.41225 784.7235,3143.58175 C784.6845,3143.75125 784.665,3143.9425 784.665,3144.1555 C784.665,3144.6025 784.751249,3144.946 784.92375,3145.186 C785.096251,3145.426 785.333998,3145.546 785.637,3145.546 C785.799001,3145.546 785.92725,3145.52575 786.02175,3145.48525 C786.11625,3145.44475 786.1965,3145.39975 786.2625,3145.35025 C786.3285,3145.30075 786.38925,3145.255 786.44475,3145.213 C786.50025,3145.171 786.57,3145.15 786.654,3145.15 C786.765001,3145.15 786.849,3145.1905 786.906,3145.2715 L787.311,3145.771 C787.166999,3145.936 787.015501,3146.07025 786.8565,3146.17375 C786.697499,3146.27725 786.534751,3146.35825 786.36825,3146.41675 C786.201749,3146.47525 786.034501,3146.51575 785.8665,3146.53825 C785.698499,3146.56075 785.535001,3146.572 785.376,3146.572 C785.090999,3146.572 784.818751,3146.518 784.55925,3146.41 C784.299749,3146.302 784.071751,3146.14525 783.87525,3145.93975 C783.678749,3145.73425 783.522751,3145.4815 783.40725,3145.1815 C783.291749,3144.8815 783.234,3144.5395 783.234,3144.1555 C783.234,3143.8195 783.284249,3143.50525 783.38475,3143.21275 C783.485251,3142.92025 783.633749,3142.66675 783.83025,3142.45225 C784.026751,3142.23775 784.269749,3142.069 784.55925,3141.946 C784.848751,3141.823 785.183998,3141.7615 785.565,3141.7615 C785.931002,3141.7615 786.251999,3141.82 786.528,3141.937 C786.804001,3142.054 787.052999,3142.225 787.275,3142.45 L786.906,3142.9405 Z M790.767,3142.855 C790.731,3142.912 790.69275,3142.9525 790.65225,3142.9765 C790.61175,3143.0005 790.56,3143.0125 790.497,3143.0125 C790.431,3143.0125 790.365,3142.99825 790.299,3142.96975 C790.233,3142.94125 790.16175,3142.9105 790.08525,3142.8775 C790.00875,3142.8445 789.9225,3142.81375 789.8265,3142.78525 C789.7305,3142.75675 789.621001,3142.7425 789.498,3142.7425 C789.320999,3142.7425 789.18525,3142.77625 789.09075,3142.84375 C788.99625,3142.91125 788.949,3143.005 788.949,3143.125 C788.949,3143.212 788.97975,3143.284 789.04125,3143.341 C789.10275,3143.398 789.184499,3143.44825 789.2865,3143.49175 C789.388501,3143.53525 789.503999,3143.5765 789.633,3143.6155 C789.762001,3143.6545 789.893999,3143.698 790.029,3143.746 C790.164001,3143.794 790.295999,3143.85025 790.425,3143.91475 C790.554001,3143.97925 790.669499,3144.05875 790.7715,3144.15325 C790.873501,3144.24775 790.95525,3144.3625 791.01675,3144.4975 C791.07825,3144.6325 791.109,3144.7945 791.109,3144.9835 C791.109,3145.2145 791.067,3145.4275 790.983,3145.6225 C790.899,3145.8175 790.773751,3145.9855 790.60725,3146.1265 C790.440749,3146.2675 790.235251,3146.377 789.99075,3146.455 C789.746249,3146.533 789.465002,3146.572 789.147,3146.572 C788.987999,3146.572 788.829001,3146.557 788.67,3146.527 C788.510999,3146.497 788.357251,3146.4565 788.20875,3146.4055 C788.060249,3146.3545 787.923001,3146.29375 787.797,3146.22325 C787.670999,3146.15275 787.563,3146.077 787.473,3145.996 L787.797,3145.483 C787.836,3145.423 787.8825,3145.37575 787.9365,3145.34125 C787.9905,3145.30675 788.061,3145.2895 788.148,3145.2895 C788.229,3145.2895 788.30175,3145.3075 788.36625,3145.3435 C788.43075,3145.3795 788.5005,3145.4185 788.5755,3145.4605 C788.6505,3145.5025 788.738249,3145.5415 788.83875,3145.5775 C788.939251,3145.6135 789.065999,3145.6315 789.219,3145.6315 C789.327001,3145.6315 789.4185,3145.62025 789.4935,3145.59775 C789.5685,3145.57525 789.6285,3145.5445 789.6735,3145.5055 C789.7185,3145.4665 789.7515,3145.423 789.7725,3145.375 C789.7935,3145.327 789.804,3145.2775 789.804,3145.2265 C789.804,3145.1335 789.7725,3145.057 789.7095,3144.997 C789.6465,3144.937 789.564001,3144.88525 789.462,3144.84175 C789.359999,3144.79825 789.243751,3144.75775 789.11325,3144.72025 C788.982749,3144.68275 788.850001,3144.64 788.715,3144.592 C788.579999,3144.544 788.447251,3144.48625 788.31675,3144.41875 C788.186249,3144.35125 788.070001,3144.26575 787.968,3144.16225 C787.865999,3144.05875 787.7835,3143.932 787.7205,3143.782 C787.6575,3143.632 787.626,3143.4505 787.626,3143.2375 C787.626,3143.0395 787.66425,3142.85125 787.74075,3142.67275 C787.81725,3142.49425 787.931999,3142.3375 788.085,3142.2025 C788.238001,3142.0675 788.429999,3141.96025 788.661,3141.88075 C788.892001,3141.80125 789.161998,3141.7615 789.471,3141.7615 C789.639001,3141.7615 789.801749,3141.7765 789.95925,3141.8065 C790.116751,3141.8365 790.264499,3141.8785 790.4025,3141.9325 C790.540501,3141.9865 790.666499,3142.05025 790.7805,3142.12375 C790.894501,3142.19725 790.995,3142.2775 791.082,3142.3645 L790.767,3142.855 Z M794.457,3146.5 L793.188,3146.5 L791.379,3141.8335 L792.54,3141.8335 C792.639,3141.8335 792.72225,3141.85675 792.78975,3141.90325 C792.85725,3141.94975 792.903,3142.0075 792.927,3142.0765 L793.575,3144.169 C793.626,3144.34 793.67475,3144.5065 793.72125,3144.6685 C793.76775,3144.8305 793.8075,3144.9925 793.8405,3145.1545 C793.8735,3144.9925 793.914,3144.8305 793.962,3144.6685 C794.01,3144.5065 794.061,3144.34 794.115,3144.169 L794.79,3142.0765 C794.814,3142.0075 794.859,3141.94975 794.925,3141.90325 C794.991,3141.85675 795.069,3141.8335 795.159,3141.8335 L796.266,3141.8335 L794.457,3146.5 Z" id="Icon-csv-blue"></path>
        </g>
    </g>
</svg>
