<svg xmlns="http://www.w3.org/2000/svg" width="13" height="13" viewBox="0 0 13 13">
  <path fill-rule="evenodd" d="M8.29717569,13 L12,13 C12.5522847,13 13,12.5522847 13,12 L13,1 C13,0.44771525 12.5522847,0 12,0 L1,0 C0.44771525,0 0,0.44771525 0,1 L0,12 C0,12.5522847 0.44771525,13 1,13 L6.06245545,13 L6.06245545,7.50409853 L5,7.50409853 L5,5.56185055 L6.06245545,5.56185055 L6.06245545,4.30542331 C6.06245545,3.4057959 6.48053279,2 8.3176675,2 L9.97260335,2.00660319 L9.97260335,3.89147174 L8.77093728,3.89147174 C8.57515146,3.89147174 8.29717569,3.99143035 8.29717569,4.42018216 L8.29717569,5.56185055 L10,5.56185055 L9.80510513,7.50409853 L8.29717569,7.50409853 L8.29717569,13 Z"/>
</svg>
