<svg xmlns="http://www.w3.org/2000/svg" width="24" height="16" viewBox="0 0 24 16">
  <path fill="#113750" d="M7.41983601,7.35532251 L4.83503259,8.95488431 C4.87287581,9.12173663 4.89285714,9.29538298 4.89285714,9.47368421 C4.89285714,10.759127 3.85432168,11.8026316 2.57142857,11.8026316 C1.28853546,11.8026316 0.25,10.759127 0.25,9.47368421 C0.25,8.18824138 1.28853546,7.14473684 2.57142857,7.14473684 C3.13297624,7.14473684 3.64770534,7.34467084 4.04901094,7.6773143 L6.60550247,6.09527284 C6.55991893,5.91316059 6.53571429,5.72255756 6.53571429,5.52631579 C6.53571429,4.24087295 7.57424975,3.19736842 8.85714286,3.19736842 C10.0894752,3.19736842 11.0963313,4.16024153 11.1737807,5.37550834 L13.1659902,5.88377133 C13.5747013,5.21939352 14.3069014,4.77631579 15.1428571,4.77631579 C15.660022,4.77631579 16.1374766,4.94589454 16.5231933,5.23254045 L19.2109767,3.26970902 C19.1434872,3.05142039 19.1071429,2.81941729 19.1071429,2.57894737 C19.1071429,1.29350453 20.1456783,0.25 21.4285714,0.25 C22.7114645,0.25 23.75,1.29350453 23.75,2.57894737 C23.75,3.8643902 22.7114645,4.90789474 21.4285714,4.90789474 C20.9308881,4.90789474 20.4699797,4.7508514 20.0922128,4.48356272 L17.3760413,6.46712537 C17.4335212,6.6699465 17.4642857,6.88402136 17.4642857,7.10526316 C17.4642857,8.39070599 16.4257503,9.43421053 15.1428571,9.43421053 C13.9414478,9.43421053 12.9543409,8.51905399 12.8337942,7.34706688 L10.7848527,6.82433015 C10.3681709,7.44598962 9.66057673,7.85526316 8.85714286,7.85526316 C8.31420782,7.85526316 7.81503918,7.66836323 7.41983601,7.35532251 Z M1,15.8105263 C0.66862917,15.8105263 0.400000036,15.5418971 0.400000036,15.2105263 C0.400000036,14.8791555 0.66862917,14.6105264 1,14.6105264 L23,14.6105264 C23.3313708,14.6105264 23.6,14.8791555 23.6,15.2105263 C23.6,15.5418971 23.3313708,15.8105263 23,15.8105263 L1,15.8105263 Z M21.4285714,3.40789474 C21.8814304,3.40789474 22.25,3.03756164 22.25,2.57894737 C22.25,2.1203331 21.8814304,1.75 21.4285714,1.75 C20.9757125,1.75 20.6071429,2.1203331 20.6071429,2.57894737 C20.6071429,3.03756164 20.9757125,3.40789474 21.4285714,3.40789474 Z M15.1428571,7.93421053 C15.5957161,7.93421053 15.9642857,7.56387743 15.9642857,7.10526316 C15.9642857,6.64664889 15.5957161,6.27631579 15.1428571,6.27631579 C14.6899982,6.27631579 14.3214286,6.64664889 14.3214286,7.10526316 C14.3214286,7.56387743 14.6899982,7.93421053 15.1428571,7.93421053 Z M2.57142857,10.3026316 C3.02428753,10.3026316 3.39285714,9.93229848 3.39285714,9.47368421 C3.39285714,9.01506994 3.02428753,8.64473684 2.57142857,8.64473684 C2.11856961,8.64473684 1.75,9.01506994 1.75,9.47368421 C1.75,9.93229848 2.11856961,10.3026316 2.57142857,10.3026316 Z M8.85714286,6.35526316 C9.31000182,6.35526316 9.67857143,5.98493006 9.67857143,5.52631579 C9.67857143,5.06770152 9.31000182,4.69736842 8.85714286,4.69736842 C8.40428389,4.69736842 8.03571429,5.06770152 8.03571429,5.52631579 C8.03571429,5.98493006 8.40428389,6.35526316 8.85714286,6.35526316 Z"/>
</svg>
