<!-- Generated by IcoMoon.io -->
<svg version="1.1" xmlns="http://www.w3.org/2000/svg" width="34" height="32" viewBox="0 0 34 32">
<title>info</title>
<path d="M17.034-0.007c4.4 0 8.162 1.562 11.287 4.688s4.688 6.887 4.688 11.288c0 4.4-1.563 8.163-4.688 11.288s-6.887 4.688-11.288 4.688c-4.4 0-8.162-1.563-11.287-4.688s-4.688-6.887-4.688-11.287c0-4.4 1.562-8.162 4.688-11.287s6.887-4.688 11.287-4.688zM16.995 3.129c-3.526 0-6.54 1.252-9.044 3.756s-3.756 5.519-3.756 9.044c0 3.526 1.252 6.54 3.756 9.044s5.519 3.756 9.044 3.756c3.526 0 6.54-1.252 9.044-3.756s3.756-5.519 3.756-9.044c0-3.526-1.252-6.54-3.756-9.044s-5.519-3.756-9.044-3.756zM19.192 9.593c0 1.178-0.955 2.133-2.133 2.133s-2.133-0.955-2.133-2.133c0-1.178 0.955-2.133 2.133-2.133s2.133 0.955 2.133 2.133zM19.192 23.46c0 1.178-0.955 2.133-2.133 2.133s-2.133-0.955-2.133-2.133v-7.467c0-1.178 0.955-2.133 2.133-2.133s2.133 0.955 2.133 2.133v7.467z"></path>
</svg>
