<!-- Generated by IcoMoon.io -->
<svg version="1.1" xmlns="http://www.w3.org/2000/svg" width="32" height="32" viewBox="0 0 32 32">
<title>legend-close</title>
<path stroke-width="1.4222" stroke-miterlimit="4" stroke-linecap="butt" stroke-linejoin="miter" d="M12.834 15.946l-8.592-8.592c-0.891-0.891-0.917-2.311-0.058-3.17s2.279-0.834 3.17 0.058l8.948 8.948 8.948-8.948c0.891-0.891 2.311-0.917 3.17-0.058s0.834 2.279-0.058 3.17l-8.592 8.592 8.592 8.592c0.891 0.891 0.917 2.311 0.058 3.17s-2.279 0.834-3.17-0.058l-8.948-8.948-8.948 8.948c-0.891 0.891-2.311 0.917-3.17 0.058s-0.834-2.279 0.058-3.17l8.592-8.592z"></path>
</svg>
