<?xml version="1.0" encoding="UTF-8"?>
<svg width="33px" height="33px" viewBox="0 0 33 33" version="1.1" xmlns="http://www.w3.org/2000/svg" xmlns:xlink="http://www.w3.org/1999/xlink">
    <!-- Generator: sketchtool 52.3 (67297) - http://www.bohemiancoding.com/sketch -->
    <title>8A684A49-B959-4B73-A368-F548CF72A331</title>
    <desc>Created with sketchtool.</desc>
    <g id="ui" stroke="none" stroke-width="1" fill="none" fill-rule="evenodd">
        <g id="GENERAL-UI-COMPONENT" transform="translate(-965.000000, -2381.000000)" fill="#0A1941">
            <g id="icon/chart/line" transform="translate(965.000000, 2381.000000)">
                <g id="line_chart-(1)">
                    <path d="M3.00088594,29.9991656 L31.4995828,29.9991656 C32.327625,29.9991656 33,30.6705094 33,31.4995828 C33,32.3286563 32.3286562,33 31.4995828,33 L1.50041719,33 C0.672375,33 -5.68434189e-14,32.3286563 -5.68434189e-14,31.4995828 L-5.68434189e-14,1.50041719 C-5.68434189e-14,0.672375 0.67134375,5.68434189e-14 1.50041719,5.68434189e-14 C2.32949062,5.68434189e-14 3.00083437,0.67134375 3.00083437,1.50041719 L3.00083437,29.9991141 L3.00088594,29.9991656 Z" id="Path"></path>
                    <path d="M16.3407234,15.8250469 L7.44959531,27.1364672 C6.93814687,27.7881656 5.99455313,27.9005719 5.34383438,27.3890719 C4.69311562,26.8775719 4.57972969,25.9340297 5.09122969,25.2833109 L14.8805766,12.8292656 C15.3807328,12.1929844 16.2964312,12.0682547 16.9481812,12.5477859 L20.0098594,14.7999844 L28.25955,2.65742813 C28.7246437,1.97272969 29.6578734,1.79432344 30.3436547,2.25936563 C31.0294359,2.72440781 31.2067594,3.65768906 30.7417172,4.34347031 L21.6175266,17.7740578 C21.1400578,18.4773703 20.1727969,18.6434016 19.4880469,18.1391203 L16.3408266,15.8250469 L16.3407234,15.8250469 Z" id="Path"></path>
                </g>
            </g>
        </g>
    </g>
</svg>