<svg xmlns="http://www.w3.org/2000/svg" width="14" height="14" viewBox="0 0 14 14">
  <path d="M7.11499595,3.01101594 C6.80182485,3.32418704 6.29390086,3.32378883 5.98051572,3.0104037 C5.66713059,2.69701857 5.66673239,2.18909457 5.97990349,1.87592347 L6.76021809,1.09560887 C8.22260481,-0.366777852 10.5952374,-0.364917743 12.0596415,1.09948636 C13.5240456,2.56389045 13.5259057,4.93652301 12.063519,6.39890973 L11.2818818,7.18054685 C10.9687107,7.49371795 10.4607867,7.49331974 10.1474016,7.17993461 C9.83401647,6.86654948 9.83361827,6.35862548 10.1467894,6.04545438 L10.9284265,5.26381726 C11.764471,4.42777275 11.7634073,3.07098818 10.9257735,2.23335435 C10.0881396,1.39572052 8.73135507,1.39465682 7.89531056,2.23070133 L7.11499595,3.01101594 Z M7.17861209,10.1487241 C7.49199723,10.4621093 7.49239543,10.9700332 7.17922433,11.2832043 L6.39890973,12.063519 C4.93652301,13.5259057 2.56389045,13.5240456 1.09948636,12.0596415 C-0.364917743,10.5952374 -0.366777852,8.22260481 1.09560887,6.76021809 L1.87592347,5.97990349 C2.18909457,5.66673239 2.69701857,5.66713059 3.0104037,5.98051572 C3.32378883,6.29390086 3.32418704,6.80182485 3.01101594,7.11499595 L2.23070133,7.89531056 C1.39465682,8.73135507 1.39572052,10.0881396 2.23335435,10.9257735 C3.07098818,11.7634073 4.42777275,11.764471 5.26381726,10.9284265 L6.04413187,10.1481119 C6.35730297,9.83494078 6.86522696,9.83533899 7.17861209,10.1487241 Z M5.58648093,8.70773935 C5.27330983,9.02091045 4.76538584,9.02051225 4.4520007,8.70712711 C4.13861557,8.39374198 4.13821737,7.88581799 4.45138847,7.57264689 L7.57264689,4.45138847 C7.88581799,4.13821737 8.39374198,4.13861557 8.70712711,4.4520007 C9.02051225,4.76538584 9.02091045,5.27330983 8.70773935,5.58648093 L5.58648093,8.70773935 Z"/>
</svg>
