<!-- Generated by IcoMoon.io -->
<svg version="1.1" xmlns="http://www.w3.org/2000/svg" width="397" height="32" viewBox="0 0 397 32">
<title>logo-wri</title>
<path fill="#fab72e" d="M4.472 21.024l2.019 1.972-1.825 1.784-2.020-1.973 1.826-1.783zM16.254 0.244l4.471 4.368-2.020 1.973-2.451-2.397-7.198 7.032-2.019-1.972 9.217-9.004zM0 16.122l4.473-4.368 2.019 1.973-2.453 2.395 7.197 7.032-2.019 1.972-9.217-9.004zM26.016 18.518l2.453-2.396-7.197-7.031 2.019-1.973 9.217 9.004-4.473 4.368-2.019-1.972zM16.254 28.054l7.197-7.031 2.020 1.972-9.217 9.004-4.473-4.369 2.020-1.971 2.453 2.395zM28.035 11.22l-2.019-1.972 1.825-1.784 2.020 1.973-1.826 1.783zM23.29 25.659l1.825 1.784-2.019 1.972-1.825-1.784 2.019-1.972zM11.236 4.613l-2.019 1.972-1.826-1.783 2.020-1.972 1.825 1.783zM13.961 21.024l2.020 1.972-6.57 6.419-2.020-1.972 6.57-6.419zM18.546 20.491l-2.019-1.972 6.924-6.765 2.019 1.972-6.924 6.765zM18.546 11.22l-2.019-1.972 6.569-6.419 2.020 1.972-6.57 6.419zM13.961 11.753l2.020 1.973-6.925 6.764-2.019-1.973 6.924-6.764zM13.801 16.389l6.924 6.764-2.019 1.973-6.924-6.765 2.019-1.972zM11.236 13.883l-2.019 1.972-6.57-6.417 2.019-1.973 6.57 6.419zM20.725 13.883l-2.019 1.972-6.925-6.764 2.020-1.972 6.924 6.764zM23.29 16.389l6.57 6.419-2.020 1.972-6.569-6.419 2.019-1.972z"></path>
<path fill="#fff" d="M43.539 12.173c-0.217-0.653-0.416-1.079-0.669-1.255-0.199-0.124-0.561-0.16-0.725-0.16-0.18 0-0.288-0.016-0.288-0.159 0-0.124 0.143-0.159 0.397-0.159 0.94 0 1.935 0.052 2.099 0.052s0.959-0.052 2.009-0.052c0.254 0 0.381 0.052 0.381 0.159 0 0.143-0.146 0.159-0.328 0.159-0.143 0-0.325 0-0.452 0.071-0.162 0.072-0.199 0.196-0.199 0.389 0 0.231 0.182 0.831 0.399 1.627 0.307 1.167 1.991 6.524 2.316 7.515h0.055l3.51-9.229c0.182-0.495 0.308-0.637 0.453-0.637 0.199 0 0.289 0.265 0.524 0.832l3.766 8.911h0.053c0.326-1.185 1.774-5.852 2.408-7.921 0.126-0.405 0.182-0.777 0.182-1.025 0-0.283-0.164-0.531-0.869-0.531-0.182 0-0.308-0.053-0.308-0.159 0-0.124 0.146-0.159 0.418-0.159 0.958 0 1.72 0.052 1.882 0.052 0.127 0 0.905-0.052 1.501-0.052 0.199 0 0.326 0.035 0.326 0.141 0 0.123-0.091 0.176-0.254 0.176-0.182 0-0.434 0.019-0.633 0.089-0.434 0.159-0.633 0.865-1.014 1.873-0.831 2.228-2.732 7.851-3.618 10.503-0.199 0.619-0.289 0.831-0.525 0.831-0.182 0-0.289-0.212-0.561-0.867l-3.764-8.876h-0.035c-0.344 0.903-2.752 7.179-3.53 8.805-0.344 0.725-0.435 0.937-0.652 0.937-0.182 0-0.252-0.195-0.416-0.655l-3.837-11.227zM63.753 17.123c0-3.024 2.045-6.929 7.475-6.929 4.507 0 7.31 2.563 7.31 6.612 0 4.048-2.895 7.248-7.492 7.248-5.193 0-7.294-3.8-7.294-6.931zM83.45 15.567c0-2.687 0-3.183-0.037-3.747-0.035-0.603-0.182-0.884-0.778-1.008-0.146-0.036-0.453-0.053-0.707-0.053-0.198 0-0.307-0.036-0.307-0.159 0-0.124 0.126-0.16 0.399-0.16 0.96 0 2.099 0.052 2.479 0.052 0.616 0 1.991-0.052 2.552-0.052 1.14 0 2.353 0.107 3.33 0.761 0.506 0.336 1.231 1.236 1.231 2.421 0 1.309-0.561 2.511-2.39 3.96 1.612 1.98 2.861 3.553 3.928 4.649 1.013 1.027 1.755 1.151 2.025 1.204 0.201 0.035 0.363 0.052 0.508 0.052s0.218 0.053 0.218 0.141c0 0.141-0.127 0.177-0.344 0.177h-1.72c-1.014 0-1.466-0.089-1.937-0.336-0.778-0.408-1.466-1.239-2.479-2.599-0.726-0.973-1.557-2.175-1.793-2.44-0.090-0.107-0.198-0.124-0.325-0.124l-1.575-0.035c-0.090 0-0.145 0.035-0.145 0.14v0.248c0 1.644 0 3.041 0.090 3.783 0.055 0.513 0.164 0.903 0.706 0.973 0.272 0.035 0.67 0.071 0.887 0.071 0.145 0 0.218 0.053 0.218 0.141 0 0.124-0.127 0.177-0.363 0.177-1.050 0-2.389-0.053-2.66-0.053-0.344 0-1.484 0.053-2.207 0.053-0.236 0-0.363-0.053-0.363-0.177 0-0.088 0.072-0.141 0.289-0.141 0.272 0 0.489-0.036 0.651-0.071 0.363-0.071 0.453-0.46 0.525-0.973 0.091-0.741 0.091-2.139 0.091-3.765v-3.112zM102.166 18.679c0 2.263 0 3.483 0.379 3.801 0.308 0.265 0.779 0.389 2.191 0.389 0.96 0 1.664-0.017 2.118-0.496 0.217-0.229 0.434-0.724 0.469-1.060 0.018-0.159 0.055-0.265 0.199-0.265 0.127 0 0.145 0.088 0.145 0.3 0 0.195-0.127 1.521-0.272 2.033-0.108 0.389-0.199 0.477-1.14 0.477-1.303 0-2.245-0.036-3.059-0.052-0.815-0.036-1.466-0.053-2.207-0.053-0.201 0-0.599 0-1.032 0.017-0.418 0-0.889 0.036-1.249 0.036-0.236 0-0.363-0.053-0.363-0.177 0-0.089 0.072-0.141 0.289-0.141 0.272 0 0.489-0.036 0.652-0.071 0.362-0.071 0.453-0.46 0.524-0.973 0.091-0.741 0.091-2.139 0.091-3.765v-3.112c0-2.688 0-3.183-0.037-3.748-0.037-0.601-0.18-0.884-0.778-1.007-0.145-0.036-0.363-0.053-0.596-0.053-0.201 0-0.308-0.036-0.308-0.159 0-0.124 0.127-0.16 0.399-0.16 0.85 0 1.99 0.052 2.479 0.052 0.435 0 1.755-0.052 2.461-0.052 0.255 0 0.381 0.036 0.381 0.16 0 0.123-0.109 0.159-0.326 0.159-0.198 0-0.487 0.017-0.704 0.053-0.49 0.088-0.635 0.389-0.671 1.007-0.035 0.565-0.035 1.060-0.035 3.748v3.112zM112.509 15.567c0-2.688 0-3.183-0.037-3.748-0.035-0.601-0.18-0.884-0.778-1.007-0.145-0.036-0.453-0.053-0.706-0.053-0.199 0-0.308-0.036-0.308-0.159 0-0.124 0.127-0.16 0.399-0.16 0.96 0 2.099 0.052 2.606 0.052 0.561 0 1.702-0.052 2.787-0.052 2.263 0 5.285 0 7.258 2.016 0.905 0.92 1.755 2.387 1.755 4.489 0 2.228-0.958 3.927-1.974 4.933-0.831 0.831-2.713 2.087-6.061 2.087-0.652 0-1.395-0.053-2.083-0.107-0.687-0.052-1.32-0.105-1.773-0.105-0.199 0-0.598 0-1.030 0.017-0.418 0-0.887 0.036-1.249 0.036-0.236 0-0.363-0.053-0.363-0.177 0-0.089 0.072-0.141 0.289-0.141 0.272 0 0.49-0.036 0.652-0.071 0.362-0.071 0.453-0.46 0.524-0.973 0.091-0.741 0.091-2.139 0.091-3.765v-3.112zM138.134 15.567c0-2.687 0-3.183-0.037-3.747-0.037-0.603-0.182-0.884-0.778-1.008-0.146-0.036-0.453-0.053-0.707-0.053-0.198 0-0.307-0.036-0.307-0.159 0-0.124 0.127-0.16 0.399-0.16 0.959 0 2.099 0.052 2.479 0.052 0.616 0 1.991-0.052 2.552-0.052 1.14 0 2.353 0.107 3.33 0.761 0.506 0.336 1.231 1.236 1.231 2.421 0 1.309-0.561 2.511-2.39 3.96 1.612 1.98 2.861 3.553 3.928 4.649 1.013 1.027 1.755 1.151 2.025 1.204 0.201 0.035 0.363 0.052 0.508 0.052s0.218 0.053 0.218 0.141c0 0.141-0.127 0.177-0.344 0.177h-1.72c-1.014 0-1.466-0.089-1.937-0.336-0.778-0.408-1.466-1.239-2.479-2.599-0.726-0.973-1.557-2.175-1.793-2.44-0.090-0.107-0.198-0.124-0.325-0.124l-1.575-0.035c-0.090 0-0.145 0.035-0.145 0.14v0.248c0 1.644 0 3.041 0.090 3.783 0.055 0.513 0.164 0.903 0.706 0.973 0.272 0.035 0.67 0.071 0.887 0.071 0.145 0 0.218 0.053 0.218 0.141 0 0.124-0.127 0.177-0.363 0.177-1.050 0-2.389-0.053-2.66-0.053-0.344 0-1.484 0.053-2.207 0.053-0.236 0-0.363-0.053-0.363-0.177 0-0.088 0.072-0.141 0.289-0.141 0.272 0 0.489-0.036 0.651-0.071 0.363-0.071 0.453-0.46 0.525-0.973 0.091-0.741 0.091-2.139 0.091-3.765v-3.112zM154.588 15.568c0-2.688 0-3.183-0.036-3.748-0.037-0.601-0.182-0.884-0.779-1.007-0.145-0.036-0.453-0.055-0.706-0.055-0.199 0-0.308-0.035-0.308-0.159 0-0.123 0.127-0.159 0.399-0.159 0.49 0 1.014 0.017 1.466 0.017 0.471 0.019 0.887 0.035 1.14 0.035 0.58 0 4.182 0 4.526-0.016 0.344-0.036 0.633-0.071 0.778-0.107 0.090-0.017 0.199-0.071 0.289-0.071s0.109 0.071 0.109 0.159c0 0.124-0.090 0.336-0.145 1.149-0.019 0.177-0.055 0.955-0.091 1.167-0.019 0.089-0.055 0.195-0.182 0.195-0.126 0-0.162-0.089-0.162-0.248 0-0.124-0.018-0.424-0.108-0.636-0.128-0.319-0.307-0.531-1.213-0.636-0.307-0.036-2.208-0.072-2.569-0.072-0.091 0-0.127 0.053-0.127 0.177v4.473c0 0.123 0.018 0.195 0.127 0.195 0.397 0 2.479 0 2.895-0.035 0.434-0.037 0.706-0.089 0.868-0.265 0.127-0.143 0.199-0.231 0.289-0.231 0.074 0 0.127 0.036 0.127 0.141s-0.072 0.389-0.143 1.291c-0.019 0.355-0.074 1.061-0.074 1.185 0 0.141 0 0.336-0.162 0.336-0.127 0-0.162-0.071-0.162-0.16-0.019-0.176-0.019-0.407-0.072-0.636-0.090-0.355-0.344-0.619-1.014-0.691-0.344-0.035-2.136-0.052-2.57-0.052-0.090 0-0.108 0.071-0.108 0.176v1.397c0 0.601-0.019 2.228 0 2.741 0.036 1.22 0.325 1.484 2.172 1.484 0.47 0 1.23 0 1.701-0.212 0.47-0.213 0.688-0.584 0.813-1.308 0.038-0.195 0.074-0.265 0.201-0.265 0.143 0 0.143 0.141 0.143 0.317 0 0.408-0.143 1.609-0.233 1.963-0.127 0.46-0.289 0.46-0.977 0.46-1.358 0-2.354-0.036-3.131-0.052-0.779-0.036-1.34-0.053-1.884-0.053-0.199 0-0.598 0-1.030 0.017-0.418 0-0.887 0.036-1.249 0.036-0.236 0-0.363-0.053-0.363-0.177 0-0.089 0.072-0.143 0.289-0.143 0.272 0 0.49-0.035 0.652-0.069 0.362-0.071 0.453-0.46 0.525-0.973 0.090-0.741 0.090-2.139 0.090-3.765v-3.112zM166.232 23.595c-0.289-0.124-0.344-0.212-0.344-0.601 0-0.973 0.072-2.033 0.091-2.316 0.018-0.265 0.071-0.46 0.217-0.46 0.162 0 0.182 0.16 0.182 0.3 0 0.231 0.071 0.603 0.162 0.903 0.399 1.308 1.466 1.785 2.588 1.785 1.63 0 2.425-1.079 2.425-2.016 0-0.865-0.273-1.679-1.774-2.828l-0.833-0.636c-1.991-1.521-2.679-2.759-2.679-4.191 0-1.945 1.665-3.341 4.182-3.341 1.175 0 1.937 0.176 2.408 0.3 0.162 0.036 0.252 0.088 0.252 0.212 0 0.231-0.074 0.744-0.074 2.123 0 0.388-0.053 0.529-0.198 0.529-0.127 0-0.182-0.105-0.182-0.317 0-0.16-0.090-0.707-0.471-1.168-0.27-0.335-0.796-0.865-1.972-0.865-1.339 0-2.154 0.76-2.154 1.821 0 0.812 0.418 1.432 1.919 2.545l0.506 0.371c2.191 1.609 2.969 2.829 2.969 4.509 0 1.025-0.399 2.245-1.702 3.076-0.905 0.567-1.918 0.725-2.877 0.725-1.050 0-1.864-0.124-2.642-0.46zM177.046 17.123c0-3.024 2.045-6.929 7.475-6.929 4.507 0 7.31 2.563 7.31 6.612 0 4.048-2.895 7.248-7.492 7.248-5.193 0-7.294-3.8-7.294-6.931zM196.214 15.568c0-2.688 0-3.183-0.036-3.748-0.037-0.601-0.182-0.884-0.779-1.007-0.145-0.036-0.453-0.055-0.706-0.055-0.199 0-0.307-0.035-0.307-0.159 0-0.123 0.127-0.159 0.397-0.159 0.959 0 2.099 0.052 2.644 0.052 0.434 0 1.574-0.052 2.226-0.052 0.27 0 0.399 0.036 0.399 0.159 0 0.124-0.109 0.159-0.291 0.159-0.199 0-0.308 0.019-0.524 0.055-0.489 0.088-0.635 0.389-0.67 1.007-0.037 0.565-0.037 1.060-0.037 3.748v2.475c0 2.564 0.525 3.643 1.413 4.349 0.813 0.655 1.647 0.725 2.262 0.725 0.797 0 1.774-0.247 2.498-0.955 0.995-0.972 1.050-2.564 1.050-4.384v-2.211c0-2.688 0-3.183-0.037-3.748-0.036-0.601-0.18-0.884-0.777-1.007-0.146-0.036-0.453-0.055-0.652-0.055s-0.307-0.035-0.307-0.159c0-0.123 0.126-0.159 0.379-0.159 0.924 0 2.064 0.052 2.081 0.052 0.217 0 1.357-0.052 2.064-0.052 0.252 0 0.379 0.036 0.379 0.159 0 0.124-0.109 0.159-0.326 0.159-0.198 0-0.308 0.019-0.525 0.055-0.487 0.088-0.633 0.389-0.669 1.007-0.036 0.565-0.036 1.060-0.036 3.748v1.892c0 1.963-0.199 4.049-1.72 5.321-1.284 1.079-2.589 1.273-3.764 1.273-0.959 0-2.697-0.053-4.018-1.22-0.923-0.813-1.611-2.121-1.611-4.685v-2.581zM214.168 15.567c0-2.687 0-3.183-0.037-3.747-0.036-0.603-0.182-0.884-0.778-1.008-0.146-0.036-0.453-0.053-0.707-0.053-0.198 0-0.307-0.036-0.307-0.159 0-0.124 0.127-0.16 0.399-0.16 0.959 0 2.099 0.052 2.479 0.052 0.616 0 1.991-0.052 2.552-0.052 1.14 0 2.353 0.107 3.33 0.761 0.506 0.336 1.231 1.236 1.231 2.421 0 1.309-0.561 2.511-2.39 3.96 1.612 1.98 2.861 3.553 3.928 4.649 1.013 1.027 1.755 1.151 2.025 1.204 0.201 0.035 0.363 0.052 0.508 0.052s0.218 0.053 0.218 0.141c0 0.141-0.127 0.177-0.344 0.177h-1.72c-1.014 0-1.466-0.089-1.937-0.336-0.778-0.408-1.466-1.239-2.479-2.599-0.726-0.973-1.557-2.175-1.793-2.44-0.090-0.107-0.198-0.124-0.325-0.124l-1.575-0.035c-0.090 0-0.145 0.035-0.145 0.14v0.248c0 1.644 0 3.041 0.090 3.783 0.055 0.513 0.164 0.903 0.706 0.973 0.272 0.035 0.67 0.071 0.887 0.071 0.145 0 0.218 0.053 0.218 0.141 0 0.124-0.127 0.177-0.363 0.177-1.050 0-2.389-0.053-2.66-0.053-0.344 0-1.484 0.053-2.207 0.053-0.236 0-0.363-0.053-0.363-0.177 0-0.088 0.072-0.141 0.289-0.141 0.272 0 0.489-0.036 0.651-0.071 0.363-0.071 0.453-0.46 0.525-0.973 0.091-0.741 0.091-2.139 0.091-3.765v-3.112zM229.477 22.127c-1.773-1.521-2.244-3.501-2.244-5.216 0-1.201 0.381-3.288 2.117-4.844 1.303-1.167 3.023-1.873 5.72-1.873 1.122 0 1.791 0.071 2.623 0.176 0.688 0.088 1.267 0.247 1.811 0.3 0.198 0.019 0.27 0.107 0.27 0.212 0 0.143-0.053 0.355-0.090 0.973-0.037 0.583-0.018 1.556-0.055 1.909-0.018 0.265-0.055 0.407-0.217 0.407-0.145 0-0.182-0.141-0.182-0.389-0.016-0.548-0.252-1.167-0.704-1.627-0.599-0.617-2.010-1.096-3.676-1.096-1.574 0-2.606 0.389-3.403 1.096-1.32 1.184-1.664 2.864-1.664 4.579 0 4.208 3.276 6.295 5.7 6.295 1.612 0 2.589-0.176 3.313-0.989 0.308-0.336 0.545-0.849 0.616-1.167 0.055-0.283 0.091-0.355 0.235-0.355 0.127 0 0.164 0.124 0.164 0.265 0 0.212-0.217 1.751-0.399 2.352-0.090 0.3-0.162 0.388-0.47 0.513-0.725 0.283-2.101 0.405-3.258 0.405-2.48 0-4.561-0.531-6.209-1.927zM245.249 15.568c0-2.688 0-3.183-0.036-3.748-0.038-0.601-0.182-0.884-0.779-1.007-0.145-0.036-0.453-0.055-0.706-0.055-0.199 0-0.308-0.035-0.308-0.159 0-0.123 0.127-0.159 0.399-0.159 0.49 0 1.014 0.017 1.466 0.017 0.471 0.019 0.887 0.035 1.14 0.035 0.58 0 4.182 0 4.526-0.016 0.344-0.036 0.633-0.071 0.778-0.107 0.090-0.017 0.199-0.071 0.289-0.071s0.108 0.071 0.108 0.159c0 0.124-0.089 0.336-0.143 1.149-0.019 0.177-0.055 0.955-0.091 1.167-0.019 0.089-0.055 0.195-0.182 0.195-0.126 0-0.162-0.089-0.162-0.248 0-0.124-0.018-0.424-0.108-0.636-0.128-0.319-0.307-0.531-1.213-0.636-0.307-0.036-2.208-0.072-2.569-0.072-0.091 0-0.127 0.053-0.127 0.177v4.473c0 0.123 0.018 0.195 0.127 0.195 0.397 0 2.479 0 2.895-0.035 0.434-0.037 0.706-0.089 0.868-0.265 0.127-0.143 0.199-0.231 0.289-0.231 0.074 0 0.127 0.036 0.127 0.141s-0.072 0.389-0.143 1.291c-0.019 0.355-0.074 1.061-0.074 1.185 0 0.141 0 0.336-0.162 0.336-0.127 0-0.162-0.071-0.162-0.16-0.019-0.176-0.019-0.407-0.072-0.636-0.090-0.355-0.344-0.619-1.014-0.691-0.344-0.035-2.136-0.052-2.57-0.052-0.090 0-0.108 0.071-0.108 0.176v1.397c0 0.601-0.019 2.228 0 2.741 0.036 1.22 0.325 1.484 2.172 1.484 0.47 0 1.23 0 1.701-0.212 0.47-0.213 0.688-0.584 0.813-1.308 0.038-0.195 0.074-0.265 0.201-0.265 0.143 0 0.143 0.141 0.143 0.317 0 0.408-0.143 1.609-0.233 1.963-0.127 0.46-0.289 0.46-0.977 0.46-1.358 0-2.354-0.036-3.131-0.052-0.779-0.036-1.34-0.053-1.882-0.053-0.201 0-0.599 0-1.032 0.017-0.418 0-0.887 0.036-1.249 0.036-0.236 0-0.363-0.053-0.363-0.177 0-0.089 0.072-0.143 0.289-0.143 0.272 0 0.49-0.035 0.652-0.069 0.362-0.071 0.453-0.46 0.525-0.973 0.090-0.741 0.090-2.139 0.090-3.765v-3.112zM256.893 23.595c-0.289-0.124-0.344-0.212-0.344-0.601 0-0.973 0.072-2.033 0.090-2.316 0.018-0.265 0.072-0.46 0.218-0.46 0.162 0 0.18 0.16 0.18 0.3 0 0.231 0.072 0.603 0.164 0.903 0.399 1.308 1.466 1.785 2.588 1.785 1.628 0 2.424-1.079 2.424-2.016 0-0.865-0.272-1.679-1.773-2.828l-0.833-0.636c-1.991-1.521-2.679-2.759-2.679-4.191 0-1.945 1.665-3.341 4.182-3.341 1.175 0 1.937 0.176 2.408 0.3 0.162 0.036 0.252 0.088 0.252 0.212 0 0.231-0.074 0.744-0.074 2.123 0 0.388-0.053 0.529-0.198 0.529-0.127 0-0.182-0.105-0.182-0.317 0-0.16-0.090-0.707-0.471-1.168-0.27-0.335-0.796-0.865-1.972-0.865-1.339 0-2.154 0.76-2.154 1.821 0 0.812 0.418 1.432 1.919 2.545l0.506 0.371c2.191 1.609 2.969 2.829 2.969 4.509 0 1.025-0.399 2.245-1.702 3.076-0.905 0.567-1.918 0.725-2.877 0.725-1.050 0-1.864-0.124-2.642-0.46zM277.107 15.568c0-2.688 0-3.183-0.036-3.748-0.038-0.601-0.218-0.901-0.616-0.991-0.199-0.052-0.435-0.071-0.652-0.071-0.182 0-0.289-0.035-0.289-0.176 0-0.105 0.145-0.141 0.434-0.141 0.688 0 1.828 0.052 2.353 0.052 0.452 0 1.52-0.052 2.208-0.052 0.235 0 0.379 0.036 0.379 0.141 0 0.141-0.109 0.176-0.289 0.176s-0.326 0.019-0.543 0.055c-0.489 0.088-0.633 0.389-0.669 1.007-0.037 0.565-0.037 1.060-0.037 3.748v3.112c0 1.715 0 3.112 0.072 3.872 0.055 0.477 0.182 0.796 0.725 0.867 0.252 0.035 0.651 0.069 0.921 0.069 0.201 0 0.291 0.053 0.291 0.143 0 0.124-0.145 0.177-0.344 0.177-1.194 0-2.335-0.053-2.823-0.053-0.418 0-1.557 0.053-2.281 0.053-0.236 0-0.363-0.053-0.363-0.177 0-0.089 0.072-0.143 0.289-0.143 0.273 0 0.49-0.035 0.652-0.069 0.362-0.071 0.471-0.372 0.525-0.884 0.090-0.743 0.090-2.14 0.090-3.855v-3.112zM287.974 21.402c0.036 1.379 0.272 1.839 0.633 1.963 0.307 0.107 0.651 0.123 0.94 0.123 0.201 0 0.308 0.036 0.308 0.143 0 0.141-0.162 0.177-0.416 0.177-1.177 0-1.9-0.053-2.244-0.053-0.162 0-1.013 0.053-1.954 0.053-0.236 0-0.399-0.019-0.399-0.177 0-0.107 0.109-0.143 0.289-0.143 0.236 0 0.561-0.016 0.815-0.088 0.469-0.14 0.543-0.653 0.561-2.192l0.164-10.413c0-0.353 0.053-0.6 0.235-0.6 0.198 0 0.362 0.229 0.669 0.548 0.217 0.229 2.969 3.059 5.611 5.621 1.231 1.203 3.674 3.748 3.981 4.031h0.091l-0.182-7.937c-0.019-1.080-0.182-1.416-0.616-1.591-0.27-0.107-0.706-0.107-0.958-0.107-0.218 0-0.291-0.053-0.291-0.16 0-0.141 0.199-0.159 0.469-0.159 0.943 0 1.811 0.052 2.191 0.052 0.199 0 0.887-0.052 1.774-0.052 0.236 0 0.415 0.017 0.415 0.159 0 0.107-0.108 0.16-0.325 0.16-0.182 0-0.325 0-0.542 0.053-0.508 0.14-0.652 0.512-0.671 1.503l-0.198 11.156c0 0.388-0.072 0.548-0.236 0.548-0.198 0-0.416-0.196-0.614-0.389-1.141-1.061-3.457-3.376-5.339-5.199-1.972-1.908-3.981-4.065-4.306-4.401h-0.055l0.198 7.372zM303.905 23.595c-0.289-0.124-0.344-0.212-0.344-0.601 0-0.973 0.072-2.033 0.090-2.316 0.019-0.265 0.072-0.46 0.218-0.46 0.162 0 0.18 0.16 0.18 0.3 0 0.231 0.072 0.603 0.164 0.903 0.399 1.308 1.466 1.785 2.588 1.785 1.628 0 2.424-1.079 2.424-2.016 0-0.865-0.272-1.679-1.773-2.828l-0.833-0.636c-1.991-1.521-2.679-2.759-2.679-4.191 0-1.945 1.665-3.341 4.182-3.341 1.175 0 1.937 0.176 2.408 0.3 0.162 0.036 0.252 0.088 0.252 0.212 0 0.231-0.074 0.744-0.074 2.123 0 0.388-0.053 0.529-0.198 0.529-0.127 0-0.182-0.105-0.182-0.317 0-0.16-0.090-0.707-0.471-1.168-0.27-0.335-0.796-0.865-1.972-0.865-1.339 0-2.154 0.76-2.154 1.821 0 0.812 0.418 1.432 1.919 2.545l0.506 0.371c2.191 1.609 2.969 2.829 2.969 4.509 0 1.025-0.399 2.245-1.702 3.076-0.905 0.567-1.918 0.725-2.877 0.725-1.050 0-1.864-0.124-2.642-0.46zM319.425 11.431l-2.697 0.071c-1.050 0.036-1.485 0.123-1.757 0.512-0.18 0.267-0.27 0.479-0.306 0.619-0.037 0.143-0.091 0.213-0.201 0.213-0.127 0-0.162-0.089-0.162-0.283 0-0.283 0.344-1.892 0.379-2.033 0.055-0.231 0.109-0.336 0.217-0.336 0.146 0 0.328 0.176 0.779 0.212 0.525 0.052 1.212 0.088 1.81 0.088h7.167c0.579 0 0.977-0.052 1.249-0.088 0.27-0.053 0.416-0.088 0.487-0.088 0.127 0 0.146 0.105 0.146 0.371 0 0.372-0.055 1.592-0.055 2.051-0.018 0.177-0.055 0.283-0.162 0.283-0.146 0-0.182-0.088-0.199-0.352l-0.018-0.196c-0.037-0.46-0.525-0.955-2.136-0.989l-2.281-0.053v7.248c0 1.627 0 3.024 0.091 3.784 0.055 0.495 0.162 0.885 0.704 0.955 0.254 0.036 0.652 0.071 0.924 0.071 0.199 0 0.289 0.053 0.289 0.141 0 0.124-0.145 0.177-0.344 0.177-1.194 0-2.334-0.053-2.842-0.053-0.416 0-1.556 0.053-2.279 0.053-0.236 0-0.363-0.053-0.363-0.177 0-0.088 0.072-0.141 0.289-0.141 0.272 0 0.49-0.035 0.652-0.071 0.362-0.069 0.469-0.46 0.525-0.972 0.090-0.743 0.090-2.14 0.090-3.767v-7.248zM331.596 15.568c0-2.688 0-3.183-0.036-3.748-0.038-0.601-0.218-0.901-0.617-0.991-0.198-0.052-0.434-0.071-0.651-0.071-0.182 0-0.289-0.035-0.289-0.176 0-0.105 0.145-0.141 0.434-0.141 0.688 0 1.828 0.052 2.353 0.052 0.452 0 1.52-0.052 2.208-0.052 0.235 0 0.379 0.036 0.379 0.141 0 0.141-0.109 0.176-0.289 0.176s-0.326 0.019-0.543 0.055c-0.489 0.088-0.633 0.389-0.669 1.007-0.037 0.565-0.037 1.060-0.037 3.748v3.112c0 1.715 0 3.112 0.072 3.872 0.055 0.477 0.182 0.796 0.725 0.867 0.252 0.035 0.651 0.069 0.921 0.069 0.201 0 0.291 0.053 0.291 0.143 0 0.124-0.145 0.177-0.344 0.177-1.194 0-2.335-0.053-2.823-0.053-0.418 0-1.557 0.053-2.281 0.053-0.236 0-0.363-0.053-0.363-0.177 0-0.089 0.072-0.143 0.289-0.143 0.273 0 0.49-0.035 0.652-0.069 0.362-0.071 0.471-0.372 0.525-0.884 0.090-0.743 0.090-2.14 0.090-3.855v-3.112zM343.777 11.431l-2.697 0.071c-1.050 0.036-1.484 0.123-1.757 0.512-0.18 0.267-0.27 0.479-0.306 0.619-0.037 0.143-0.091 0.213-0.201 0.213-0.127 0-0.162-0.089-0.162-0.283 0-0.283 0.344-1.892 0.379-2.033 0.055-0.231 0.109-0.336 0.217-0.336 0.146 0 0.328 0.176 0.779 0.212 0.525 0.052 1.212 0.088 1.81 0.088h7.167c0.579 0 0.977-0.052 1.249-0.088 0.27-0.053 0.416-0.088 0.487-0.088 0.127 0 0.146 0.105 0.146 0.371 0 0.372-0.055 1.592-0.055 2.051-0.018 0.177-0.055 0.283-0.162 0.283-0.146 0-0.182-0.088-0.199-0.352l-0.018-0.196c-0.037-0.46-0.525-0.955-2.136-0.989l-2.281-0.053v7.248c0 1.627 0 3.024 0.091 3.784 0.055 0.495 0.162 0.885 0.704 0.955 0.254 0.036 0.652 0.071 0.924 0.071 0.199 0 0.289 0.053 0.289 0.141 0 0.124-0.145 0.177-0.344 0.177-1.194 0-2.334-0.053-2.842-0.053-0.416 0-1.556 0.053-2.279 0.053-0.236 0-0.363-0.053-0.363-0.177 0-0.088 0.072-0.141 0.289-0.141 0.273 0 0.49-0.035 0.652-0.071 0.362-0.069 0.469-0.46 0.525-0.972 0.090-0.743 0.090-2.14 0.090-3.767v-7.248zM355.677 15.568c0-2.688 0-3.183-0.036-3.748-0.037-0.601-0.182-0.884-0.779-1.007-0.145-0.036-0.453-0.055-0.706-0.055-0.199 0-0.307-0.035-0.307-0.159 0-0.123 0.127-0.159 0.397-0.159 0.959 0 2.099 0.052 2.644 0.052 0.434 0 1.574-0.052 2.226-0.052 0.27 0 0.399 0.036 0.399 0.159 0 0.124-0.109 0.159-0.291 0.159-0.199 0-0.308 0.019-0.524 0.055-0.489 0.088-0.635 0.389-0.67 1.007-0.037 0.565-0.037 1.060-0.037 3.748v2.475c0 2.564 0.525 3.643 1.413 4.349 0.813 0.655 1.647 0.725 2.262 0.725 0.797 0 1.774-0.247 2.498-0.955 0.995-0.972 1.050-2.564 1.050-4.384v-2.211c0-2.688 0-3.183-0.037-3.748-0.036-0.601-0.18-0.884-0.777-1.007-0.146-0.036-0.453-0.055-0.652-0.055s-0.307-0.035-0.307-0.159c0-0.123 0.126-0.159 0.379-0.159 0.924 0 2.064 0.052 2.081 0.052 0.217 0 1.357-0.052 2.064-0.052 0.254 0 0.379 0.036 0.379 0.159 0 0.124-0.109 0.159-0.326 0.159-0.198 0-0.308 0.019-0.525 0.055-0.487 0.088-0.633 0.389-0.669 1.007-0.036 0.565-0.036 1.060-0.036 3.748v1.892c0 1.963-0.199 4.049-1.72 5.321-1.284 1.079-2.589 1.273-3.764 1.273-0.959 0-2.697-0.053-4.018-1.22-0.923-0.813-1.611-2.121-1.611-4.685v-2.581zM376.336 11.431l-2.696 0.071c-1.051 0.036-1.485 0.123-1.758 0.512-0.18 0.267-0.27 0.479-0.306 0.619-0.037 0.143-0.091 0.213-0.201 0.213-0.127 0-0.162-0.089-0.162-0.283 0-0.283 0.344-1.892 0.379-2.033 0.055-0.231 0.109-0.336 0.218-0.336 0.145 0 0.326 0.176 0.778 0.212 0.525 0.052 1.213 0.088 1.81 0.088h7.167c0.579 0 0.977-0.052 1.249-0.088 0.27-0.053 0.416-0.088 0.487-0.088 0.127 0 0.146 0.105 0.146 0.371 0 0.372-0.055 1.592-0.055 2.051-0.018 0.177-0.055 0.283-0.162 0.283-0.146 0-0.182-0.088-0.199-0.352l-0.018-0.196c-0.037-0.46-0.525-0.955-2.136-0.989l-2.281-0.053v7.248c0 1.627 0 3.024 0.091 3.784 0.055 0.495 0.162 0.885 0.704 0.955 0.254 0.036 0.652 0.071 0.924 0.071 0.199 0 0.289 0.053 0.289 0.141 0 0.124-0.145 0.177-0.344 0.177-1.194 0-2.334-0.053-2.842-0.053-0.416 0-1.556 0.053-2.279 0.053-0.236 0-0.363-0.053-0.363-0.177 0-0.088 0.072-0.141 0.289-0.141 0.273 0 0.49-0.035 0.652-0.071 0.362-0.069 0.471-0.46 0.525-0.972 0.090-0.743 0.090-2.14 0.090-3.767v-7.248zM388.625 15.568c0-2.688 0-3.183-0.036-3.748-0.037-0.601-0.182-0.884-0.779-1.007-0.145-0.036-0.453-0.055-0.706-0.055-0.199 0-0.308-0.035-0.308-0.159 0-0.123 0.127-0.159 0.399-0.159 0.49 0 1.014 0.017 1.466 0.017 0.471 0.019 0.887 0.035 1.14 0.035 0.58 0 4.182 0 4.526-0.016 0.344-0.036 0.633-0.071 0.778-0.107 0.090-0.017 0.199-0.071 0.289-0.071s0.109 0.071 0.109 0.159c0 0.124-0.090 0.336-0.145 1.149-0.019 0.177-0.055 0.955-0.091 1.167-0.018 0.089-0.055 0.195-0.182 0.195-0.126 0-0.162-0.089-0.162-0.248 0-0.124-0.018-0.424-0.108-0.636-0.128-0.319-0.307-0.531-1.213-0.636-0.307-0.036-2.208-0.072-2.569-0.072-0.091 0-0.127 0.053-0.127 0.177v4.473c0 0.123 0.018 0.195 0.127 0.195 0.397 0 2.479 0 2.895-0.035 0.434-0.037 0.706-0.089 0.868-0.265 0.127-0.143 0.199-0.231 0.289-0.231 0.074 0 0.127 0.036 0.127 0.141s-0.072 0.389-0.143 1.291c-0.019 0.355-0.074 1.061-0.074 1.185 0 0.141 0 0.336-0.162 0.336-0.127 0-0.162-0.071-0.162-0.16-0.019-0.176-0.019-0.407-0.072-0.636-0.090-0.355-0.344-0.619-1.014-0.691-0.344-0.035-2.136-0.052-2.57-0.052-0.090 0-0.108 0.071-0.108 0.176v1.397c0 0.601-0.019 2.228 0 2.741 0.036 1.22 0.325 1.484 2.171 1.484 0.469 0 1.23 0 1.701-0.212 0.471-0.213 0.688-0.584 0.813-1.308 0.038-0.195 0.074-0.265 0.201-0.265 0.143 0 0.143 0.141 0.143 0.317 0 0.408-0.143 1.609-0.233 1.963-0.127 0.46-0.289 0.46-0.977 0.46-1.358 0-2.354-0.036-3.131-0.052-0.779-0.036-1.34-0.053-1.884-0.053-0.199 0-0.598 0-1.030 0.017-0.418 0-0.887 0.036-1.249 0.036-0.236 0-0.363-0.053-0.363-0.177 0-0.089 0.072-0.143 0.289-0.143 0.273 0 0.49-0.035 0.652-0.069 0.362-0.071 0.453-0.46 0.525-0.973 0.090-0.741 0.090-2.139 0.090-3.765v-3.112zM76.005 17.459c0-3.96-2.334-6.419-5.302-6.419-2.081 0-4.451 1.132-4.451 5.535 0 3.679 2.080 6.595 5.555 6.595 1.268 0 4.198-0.601 4.198-5.711zM85.585 16.965c0 0.195 0.035 0.265 0.162 0.317 0.379 0.124 0.924 0.177 1.376 0.177 0.723 0 0.96-0.071 1.284-0.3 0.545-0.388 1.069-1.203 1.069-2.652 0-2.511-1.702-3.236-2.769-3.236-0.453 0-0.778 0.017-0.96 0.071-0.127 0.036-0.162 0.107-0.162 0.248v5.375zM114.771 17.513c0 1.873 0.019 3.236 0.035 3.572 0.019 0.441 0.055 1.148 0.201 1.344 0.235 0.336 0.94 0.707 2.369 0.707 1.847 0 3.078-0.355 4.163-1.273 1.159-0.973 1.52-2.581 1.52-4.403 0-2.245-0.96-3.695-1.737-4.419-1.665-1.556-3.729-1.769-5.14-1.769-0.36 0-1.032 0.053-1.175 0.124-0.164 0.071-0.217 0.159-0.217 0.353-0.019 0.601-0.019 2.139-0.019 3.536v2.228zM140.269 16.965c0 0.195 0.036 0.265 0.162 0.317 0.379 0.124 0.924 0.177 1.376 0.177 0.723 0 0.959-0.071 1.284-0.3 0.545-0.388 1.069-1.203 1.069-2.652 0-2.511-1.701-3.236-2.769-3.236-0.453 0-0.778 0.017-0.959 0.071-0.127 0.036-0.162 0.107-0.162 0.248v5.375zM189.299 17.459c0-3.96-2.334-6.419-5.303-6.419-2.081 0-4.451 1.132-4.451 5.535 0 3.679 2.080 6.595 5.555 6.595 1.268 0 4.198-0.601 4.198-5.711zM216.303 16.965c0 0.195 0.036 0.265 0.162 0.317 0.379 0.124 0.924 0.177 1.376 0.177 0.723 0 0.959-0.071 1.284-0.3 0.545-0.388 1.069-1.203 1.069-2.652 0-2.511-1.701-3.236-2.769-3.236-0.453 0-0.778 0.017-0.959 0.071-0.127 0.036-0.162 0.107-0.162 0.248v5.375z"></path>
</svg>
