<!-- Generated by IcoMoon.io -->
<svg version="1.1" xmlns="http://www.w3.org/2000/svg" width="335" height="32" viewBox="0 0 335 32">
<title>logo-climate-watch</title>
<path fill="#113750" d="M27.251 26.321c-1.302 1.506-2.908 2.699-4.819 3.578s-4.113 1.318-6.605 1.318c-2.271 0-4.369-0.377-6.293-1.13s-3.593-1.82-5.006-3.201c-1.412-1.381-2.52-3.034-3.323-4.959s-1.205-4.045-1.205-6.361c0-2.371 0.408-4.519 1.225-6.444s1.945-3.564 3.386-4.917c1.44-1.353 3.129-2.392 5.068-3.118s4.029-1.088 6.273-1.088c2.077 0 4.119 0.37 6.127 1.109s3.635 1.82 4.881 3.243l-4.819 4.854c-0.665-0.921-1.537-1.604-2.617-2.050s-2.188-0.67-3.323-0.67c-1.246 0-2.389 0.23-3.427 0.69s-1.932 1.095-2.679 1.904c-0.748 0.809-1.329 1.764-1.745 2.866s-0.623 2.309-0.623 3.62c0 1.339 0.208 2.567 0.623 3.682s0.99 2.071 1.724 2.866c0.734 0.795 1.613 1.416 2.638 1.862s2.146 0.67 3.365 0.67c1.412 0 2.645-0.279 3.697-0.837s1.897-1.283 2.534-2.176l4.943 4.687zM31.261 30.422v-29.627h7.145v23.392h11.382v6.235h-18.527zM54.088 30.422v-29.627h7.145v29.627h-7.145zM94.945 30.422l0.166-20.965h-0.125l-7.644 20.965h-4.985l-7.436-20.965h-0.125l0.166 20.965h-6.688v-29.627h10.094l6.688 18.998h0.166l6.397-18.998h10.261v29.627h-6.937zM128.864 30.422l-2.285-5.817h-11.382l-2.16 5.817h-7.727l12.338-29.627h6.896l12.213 29.627h-7.893zM120.971 8.704l-3.739 10.169h7.394l-3.656-10.169zM150.28 6.905v23.518h-7.103v-23.518h-8.308v-6.11h23.72v6.11h-8.308zM162.805 30.422v-29.627h19.773v6.068h-12.919v5.566h12.213v5.733h-12.213v6.151h13.667v6.11h-20.521zM196.953 26.238h0.083l7.353-25.484h3.572l7.353 25.484h0.083l7.187-25.484h3.157l-8.682 29.627h-3.489l-7.394-25.442h-0.083l-7.394 25.442h-3.489l-8.682-29.627h3.157l7.27 25.484zM230.498 30.38h-3.282l12.711-29.627h2.908l12.628 29.627h-3.323l-3.24-7.783h-15.204l-3.199 7.783zM234.818 19.835h12.961l-6.48-15.734-6.48 15.734zM267.699 30.38h-2.991v-26.949h-9.845v-2.678h22.681v2.678h-9.845v26.949zM306.437 25.61c-0.498 0.753-1.101 1.465-1.807 2.134s-1.523 1.255-2.451 1.758c-0.928 0.502-1.952 0.9-3.074 1.193s-2.347 0.439-3.676 0.439c-2.216 0-4.265-0.391-6.148-1.172s-3.503-1.862-4.86-3.243c-1.357-1.381-2.416-3.020-3.178-4.917s-1.142-3.975-1.142-6.235c0-2.26 0.388-4.338 1.163-6.235s1.849-3.536 3.219-4.917c1.371-1.381 2.991-2.462 4.86-3.243s3.898-1.172 6.086-1.172c1.080 0 2.139 0.112 3.178 0.335s2.015 0.537 2.929 0.942c0.914 0.405 1.745 0.893 2.492 1.465s1.371 1.22 1.869 1.946l-2.492 1.841c-0.305-0.474-0.713-0.949-1.225-1.423s-1.115-0.893-1.807-1.255c-0.692-0.363-1.447-0.656-2.264-0.879s-1.696-0.335-2.638-0.335c-1.911 0-3.621 0.349-5.13 1.046s-2.79 1.639-3.843 2.825c-1.052 1.186-1.855 2.56-2.409 4.122s-0.831 3.208-0.831 4.938c0 1.73 0.284 3.376 0.852 4.938s1.378 2.936 2.43 4.122c1.052 1.186 2.333 2.127 3.843 2.825s3.206 1.046 5.089 1.046c1.689 0 3.296-0.349 4.819-1.046s2.797-1.813 3.822-3.348l2.326 1.506zM312.565 0.753h2.991v12.847h16.035v-12.847h2.991v29.627h-2.991v-14.018h-16.035v14.018h-2.991v-29.627z"></path>
</svg>
