<svg xmlns="http://www.w3.org/2000/svg" width="14" height="11" viewBox="0 0 14 11">
  <path fill-rule="evenodd" d="M14,3.8567889 L14,10 C14,10.5522847 13.5522847,11 13,11 L1,11 C0.44771525,11 6.76353751e-17,10.5522847 0,10 L0,3.85685122 L6.42035407,7.38884908 C6.60064494,7.48803161 6.80643183,7.51894097 6.99994336,7.48961666 C7.19345489,7.51894097 7.39924178,7.48803161 7.57953265,7.38884908 L14,3.8567889 Z M14,2.09620477 C13.9903332,2.10106708 13.9807321,2.10611896 13.9712022,2.1113616 L6.99994336,5.94642597 L0.0286845562,2.1113616 C0.0191918807,2.10613944 0.00962852417,2.10110655 4.16090773e-14,2.09626176 L0,1 L0,1 C-6.76353751e-17,0.44771525 0.44771525,1.01453063e-16 1,0 L1,0 L13,0 C13.5522847,-1.01453063e-16 14,0.44771525 14,1 L14,2.09620477 Z"/>
</svg>
