<!-- Generated by IcoMoon.io -->
<svg version="1.1" xmlns="http://www.w3.org/2000/svg" width="30" height="32" viewBox="0 0 30 32">
<title>map-zoom-in</title>
<path fill="#302463" d="M12.958 17.952h-10.308c-1.169 0-2.116-0.948-2.116-2.116v0 0c0-1.169 0.948-2.116 2.116-2.116h10.308v-11.179c0-1.178 0.955-2.133 2.133-2.133h0.171c1.178 0 2.133 0.955 2.133 2.133v11.179h10.308c1.169 0 2.116 0.947 2.116 2.116v0 0c0 1.169-0.948 2.116-2.116 2.116h-10.308v11.179c0 1.178-0.955 2.133-2.133 2.133h-0.171c-1.178 0-2.133-0.955-2.133-2.133v-11.179z"></path>
</svg>
