<!-- Generated by IcoMoon.io -->
<svg version="1.1" xmlns="http://www.w3.org/2000/svg" width="40" height="32" viewBox="0 0 40 32">
<title>map-fullscreen</title>
<path fill="#302463" d="M35.778 3.783v10.136c0 0.962 0.78 1.742 1.742 1.742s1.742-0.78 1.742-1.742v-11.723h-0.003c-0.053-1.057-0.927-1.898-1.997-1.898h-11.62c-0.962 0-1.742 0.78-1.742 1.742s0.78 1.742 1.742 1.742h10.136zM5.373 28.187v-10.136c0-0.962-0.78-1.742-1.742-1.742s-1.742 0.78-1.742 1.742v11.62c0 1.105 0.895 2 2 2h11.62c0.962 0 1.742-0.78 1.742-1.742s-0.78-1.742-1.742-1.742h-10.136z"></path>
</svg>
