<!-- Generated by IcoMoon.io -->
<svg version="1.1" xmlns="http://www.w3.org/2000/svg" width="96" height="32" viewBox="0 0 96 32">
<title>more-horiz</title>
<path fill="#b1b1c1" d="M48 3.906c3.188 0 6 1.219 8.438 3.656s3.656 5.25 3.656 8.438c0 3.188-1.219 6-3.656 8.438s-5.25 3.656-8.438 3.656c-3.188 0-6-1.219-8.438-3.656s-3.656-5.25-3.656-8.438c0-3.188 1.219-6 3.656-8.438s5.25-3.656 8.438-3.656zM84 3.906c3.188 0 6 1.219 8.438 3.656s3.656 5.25 3.656 8.438c0 3.188-1.219 6-3.656 8.438s-5.25 3.656-8.438 3.656c-3.188 0-6-1.219-8.438-3.656s-3.656-5.25-3.656-8.438c0-3.188 1.219-6 3.656-8.438s5.25-3.656 8.438-3.656zM12 3.906c3.188 0 6 1.219 8.438 3.656s3.656 5.25 3.656 8.438c0 3.188-1.219 6-3.656 8.438s-5.25 3.656-8.438 3.656c-3.188 0-6-1.219-8.438-3.656s-3.656-5.25-3.656-8.438c0-3.188 1.219-6 3.656-8.438s5.25-3.656 8.438-3.656z"></path>
</svg>
