<!-- Generated by IcoMoon.io -->
<svg version="1.1" xmlns="http://www.w3.org/2000/svg" width="35" height="32" viewBox="0 0 35 32">
<title>combined-shape</title>
<path fill="#868697" d="M15.107 13.6h-10.39c-1.325 0-2.4 1.075-2.4 2.4s1.075 2.4 2.4 2.4v0h10.387v10.4c0 1.325 1.075 2.4 2.4 2.4s2.4-1.075 2.4-2.4v0-10.4h10.39c1.325 0 2.4-1.075 2.4-2.4s-1.075-2.4-2.4-2.4v0h-10.39v-10.4c0.001-0.026 0.002-0.057 0.002-0.088 0-1.325-1.075-2.4-2.4-2.4s-2.4 1.075-2.4 2.4c0 0.031 0.001 0.062 0.002 0.092l-0-0.004v10.4z"></path>
</svg>
