<svg xmlns="http://www.w3.org/2000/svg" width="200" height="36" viewBox="0 0 200 36">
  <defs>
    <linearGradient id="a" x1=".042%" x2="100.14%" y1="50.05%" y2="50.05%">
      <stop offset=".133%" stop-color="#6FCBD2"/>
      <stop offset="100%" stop-color="#077E9B"/>
    </linearGradient>
    <linearGradient id="b" x1=".01%" x2="99.986%" y1="49.888%" y2="49.888%">
      <stop offset=".133%" stop-color="#6FCBD2"/>
      <stop offset="100%" stop-color="#077E9B"/>
    </linearGradient>
    <linearGradient id="c" x1=".041%" y1="49.974%" y2="49.974%">
      <stop offset=".133%" stop-color="#6FCBD2"/>
      <stop offset="100%" stop-color="#077E9B"/>
    </linearGradient>
    <linearGradient id="d" x1=".072%" x2="100.025%" y1="50.068%" y2="50.068%">
      <stop offset=".133%" stop-color="#6FCBD2"/>
      <stop offset="100%" stop-color="#077E9B"/>
    </linearGradient>
    <linearGradient id="e" x1="-.071%" x2="100.046%" y1="50.022%" y2="50.022%">
      <stop offset=".133%" stop-color="#6FCBD2"/>
      <stop offset="100%" stop-color="#077E9B"/>
    </linearGradient>
    <linearGradient id="f" x1=".007%" x2="99.971%" y1="50.115%" y2="50.115%">
      <stop offset=".133%" stop-color="#6FCBD2"/>
      <stop offset="100%" stop-color="#077E9B"/>
    </linearGradient>
    <linearGradient id="g" x1=".008%" x2="100.031%" y1="49.897%" y2="49.897%">
      <stop offset=".133%" stop-color="#6FCBD2"/>
      <stop offset="100%" stop-color="#077E9B"/>
    </linearGradient>
    <linearGradient id="h" x1="-.014%" x2="99.943%" y1="50.16%" y2="50.16%">
      <stop offset=".133%" stop-color="#6FCBD2"/>
      <stop offset="100%" stop-color="#077E9B"/>
    </linearGradient>
    <linearGradient id="i" x1="-.049%" x2="99.91%" y1="49.979%" y2="49.979%">
      <stop offset=".133%" stop-color="#6FCBD2"/>
      <stop offset="100%" stop-color="#077E9B"/>
    </linearGradient>
    <linearGradient id="j" x1="-.049%" x2="99.904%" y1="50.062%" y2="50.062%">
      <stop offset=".133%" stop-color="#6FCBD2"/>
      <stop offset="100%" stop-color="#077E9B"/>
    </linearGradient>
    <linearGradient id="k" x1=".021%" x2="100.043%" y1="49.934%" y2="49.934%">
      <stop offset=".133%" stop-color="#6FCBD2"/>
      <stop offset="100%" stop-color="#077E9B"/>
    </linearGradient>
    <linearGradient id="l" x1=".021%" x2="100.046%" y1="50.115%" y2="50.115%">
      <stop offset=".133%" stop-color="#6FCBD2"/>
      <stop offset="100%" stop-color="#077E9B"/>
    </linearGradient>
    <linearGradient id="m" x1=".021%" x2="100.046%" y1="49.928%" y2="49.928%">
      <stop offset=".133%" stop-color="#6FCBD2"/>
      <stop offset="100%" stop-color="#077E9B"/>
    </linearGradient>
  </defs>
  <g fill="none">
    <g opacity=".8" transform="translate(.87 4.2)">
      <path fill="url(#a)" d="M0.434782609,15.72 C0.31884058,15.72 0.231884059,15.69 0.144927537,15.6 C5.39897148e-10,15.45 5.39897148e-10,15.18 0.144927537,15.03 C0.492753624,14.67 8.7826087,6.33 12.7826087,5.97 C14.7536232,5.79 17.2753623,7.38 19.7101449,8.94 C21.6811594,10.2 23.7391304,11.52 25.2463768,11.64 C28.4057971,11.94 34.7536232,9.81 37.4782609,8.58 C40.8695652,7.05 49.7101449,0.21 49.7971014,0.15 C49.9710145,0.03 50.2028986,0.06 50.3478261,0.24 C50.4637681,0.42 50.4347826,0.66 50.2608696,0.81 C49.884058,1.08 41.2463768,7.8 37.7681159,9.36 C35.2753623,10.47 28.6666667,12.78 25.1594203,12.48 C23.4782609,12.33 21.4202899,11.01 19.2753623,9.66 C16.9565217,8.19 14.5507246,6.63 12.8115942,6.81 C9.07246377,7.17 0.724637682,15.57 0.63768116,15.66 C0.63768116,15.69 0.550724638,15.72 0.434782609,15.72 Z" opacity=".6" transform="translate(0 8.7)"/>
      <path fill="url(#b)" d="M27.2463768,19.53 C26.4637681,19.53 25.7681159,19.47 25.1884058,19.32 C23.1014493,18.78 21.1594203,16.41 19.1304348,13.89 C17.0434783,11.34 14.8985507,8.7 12.8405797,8.52 C12.7826087,8.52 12.6956522,8.52 12.6086957,8.52 C9.01449275,8.52 0.782608696,15.6 0.695652174,15.66 C0.52173913,15.81 0.289855072,15.78 0.144927536,15.6 C2.11636264e-15,15.42 0.0289855072,15.18 0.202898551,15.03 C0.550724638,14.73 9.13043478,7.38 12.8985507,7.71 C15.3043478,7.92 17.5362319,10.68 19.7101449,13.38 C21.5942029,15.69 23.5072464,18.06 25.3623188,18.54 C28.2028986,19.26 34.8115942,17.76 37.4782609,16.17 C41.826087,13.56 49.6811594,0.45 49.7681159,0.33 C49.884058,0.15 50.115942,0.09 50.3188406,0.21 C50.4927536,0.33 50.5507246,0.57 50.4347826,0.78 C50.115942,1.32 42.4057971,14.19 37.884058,16.92 C35.7681159,18.12 30.7536232,19.53 27.2463768,19.53 Z" transform="translate(0 5.1)"/>
      <path fill="url(#c)" d="M29.5072464,16.17 C27.7971014,16.17 26.2318841,16.02 25.1594203,15.75 C23.3623188,15.27 21.4492754,13.44 19.4492754,11.52 C17.1884058,9.36 14.8405797,7.11 12.8405797,7.11 C9.15942029,7.11 0.782608696,15.54 0.695652174,15.63 C0.550724638,15.78 0.289855073,15.78 0.144927537,15.63 C5.3990537e-10,15.48 5.3990537e-10,15.21 0.144927537,15.06 C0.492753624,14.7 8.8115942,6.3 12.8405797,6.3 C15.1304348,6.3 17.5942029,8.64 19.9710145,10.92 C21.826087,12.69 23.7391304,14.52 25.3623188,14.94 C28.1449275,15.69 34.7826087,15.39 37.5072464,14.07 C41.7101449,12.06 49.6811594,0.39 49.7681159,0.27 C49.884058,0.09 50.1449275,0.03 50.3188406,0.18 C50.4927536,0.3 50.5507246,0.57 50.4057971,0.75 C50.0869565,1.23 42.2318841,12.72 37.826087,14.82 C35.9710145,15.72 32.5217391,16.17 29.5072464,16.17 Z" opacity=".7" transform="translate(0 5.1)"/>
      <path fill="url(#d)" d="M25.884058,22.26 C25.6521739,22.26 25.4202899,22.23 25.1884058,22.2 C22.6376812,21.78 20.6666667,18.42 18.7536232,15.15 C16.9275362,12.03 15.0144928,8.79 12.7826087,8.49 C9.94202899,8.07 3.07246377,13.5 0.666666667,15.63 C0.492753623,15.78 0.260869566,15.75 0.115942029,15.57 C-0.0289855069,15.39 3.07857306e-10,15.15 0.144927537,15 C0.521739131,14.67 9.10144928,7.14 12.8695652,7.68 C15.4782609,8.04 17.4492754,11.46 19.3913043,14.73 C21.2173913,17.82 23.1014493,21.03 25.3043478,21.39 C28.6956522,21.96 35.0434783,16.89 37.4202899,15 C41.1884058,12 49.6811594,0.36 49.7681159,0.24 C49.884058,0.06 50.1449275,0.03 50.3188406,0.15 C50.4927536,0.27 50.5217391,0.54 50.4057971,0.72 C50.057971,1.2 41.7681159,12.57 37.9130435,15.63 C34.0289855,18.78 29.2173913,22.26 25.884058,22.26 Z" transform="translate(0 5.1)"/>
      <path fill="url(#e)" d="M25.884058,30.3 C25.6521739,30.3 25.4202899,30.27 25.1884058,30.21 C22.6086957,29.61 20.7246377,25.23 18.7536232,20.58 C16.8985507,16.29 15.0144928,11.82 12.8115942,11.4 C10.0289855,10.83 3.15942029,18.27 0.782608696,21.18 C0.637681159,21.36 0.405797101,21.36 0.231884058,21.24 C0.0579710145,21.09 0.0579710145,20.85 0.173913043,20.67 C0.202898551,20.64 2.4057971,17.97 5.04347826,15.39 C8.66666667,11.88 11.3333333,10.26 12.9565217,10.59 C15.5652174,11.1 17.4782609,15.54 19.4782609,20.25 C21.3043478,24.51 23.1884058,28.92 25.3623188,29.43 C28.7246377,30.21 35.0144928,23.25 37.3913043,20.67 C41.1594203,16.53 49.6521739,0.57 49.7391304,0.39 C49.8550725,0.18 50.0869565,0.12 50.2608696,0.24 C50.4637681,0.36 50.5217391,0.6 50.4057971,0.78 C50.057971,1.44 41.7681159,17.01 37.942029,21.21 C34.057971,25.5 29.2463768,30.3 25.884058,30.3 Z"/>
      <path fill="url(#f)" d="M0.434782609,9.45 C0.289855072,9.45 0.144927536,9.36 0.0869565217,9.21 C-3.46944695e-16,9 0.0869565217,8.76 0.289855072,8.67 C0.666666667,8.49 9.50724638,4.41 12.7536232,3.45 C13.6231884,3.18 21.4492754,0.900000001 25.3043478,1.11 C26.8985507,1.2 29.0144928,2.07 31.2463768,3 C33.5942029,3.99 36.057971,4.98 37.6811594,4.95 C40.9275362,4.83 49.826087,0.120000001 49.942029,0.0600000011 C50.1449275,-0.0299999989 50.3768116,0.0300000011 50.4637681,0.240000001 C50.5507246,0.450000001 50.4927536,0.690000001 50.2898551,0.780000001 C49.9130435,0.990000001 41.1304348,5.61 37.7101449,5.73 C35.9130435,5.82 33.3623188,4.74 30.9275362,3.72 C28.8695652,2.85 26.7246377,1.95 25.2463768,1.89 C22.2318841,1.71 16.115942,3.27 12.9565217,4.2 C9.76811594,5.16 0.695652174,9.33 0.608695652,9.36 C0.550724638,9.45 0.492753623,9.45 0.434782609,9.45 Z" transform="translate(0 14.7)"/>
      <path fill="url(#g)" d="M27.7101449,11.73 C26.7826087,11.73 25.9130435,11.67 25.2173913,11.55 C23.5072464,11.25 21.4202899,9.9 19.2463768,8.46 C16.9565217,6.96 14.6086957,5.4 12.8405797,5.28 C9.68115942,5.07 0.724637681,9.39 0.608695652,9.45 C0.405797101,9.54 0.173913043,9.45 0.0869565217,9.27 C4.57273108e-15,9.06 0.0869565217,8.82 0.260869565,8.73 C0.637681159,8.55 9.50724638,4.26 12.8695652,4.5 C14.8405797,4.65 17.2753623,6.24 19.6521739,7.8 C21.6811594,9.12 23.7681159,10.5 25.3333333,10.77 C28.4057971,11.31 34.8115942,10.44 37.5362319,9.39 C41.1014493,7.98 49.7391304,0.27 49.826087,0.18 C50,0.03 50.2318841,0.06 50.3768116,0.21 C50.5217391,0.39 50.4927536,0.63 50.3478261,0.78 C50,1.11 41.5362319,8.67 37.826087,10.11 C35.5942029,10.98 31.1304348,11.73 27.7101449,11.73 Z" transform="translate(0 12.6)"/>
      <path fill="url(#h)" d="M29.9710145,9.78 C28.1449275,9.78 26.4347826,9.66 25.2173913,9.45 C23.6521739,9.18 21.7101449,8.16 19.6231884,7.05 C17.1884058,5.76 14.6666667,4.44 12.8695652,4.44 C9.62318841,4.44 0.724637681,9.36 0.637681159,9.39 C0.434782609,9.48 0.202898551,9.42 0.115942029,9.21 C-1.63757896e-15,9 0.0869565217,8.76 0.289855072,8.67 C0.666666667,8.46 9.44927536,3.63 12.8985507,3.63 C14.8695652,3.63 17.4782609,5.01 20,6.33 C22.0289855,7.38 23.942029,8.4 25.3623188,8.64 C28.4057971,9.15 34.7826087,9.03 37.5942029,8.13 C41.0724638,7.02 49.7971014,0.180000001 49.884058,0.120000001 C50.057971,-0.0299999995 50.2898551,0.0300000005 50.4347826,0.210000001 C50.5797101,0.390000001 50.5217391,0.630000001 50.3478261,0.780000001 C50,1.08 41.4492754,7.77 37.826087,8.94 C35.9710145,9.51 32.8405797,9.78 29.9710145,9.78 Z" opacity=".6" transform="translate(0 12.6)"/>
      <path fill="url(#i)" d="M26,13.26 C25.7391304,13.26 25.4782609,13.23 25.2463768,13.2 C23.2753623,12.93 21.0434783,11.01 18.8695652,9.15 C16.7826087,7.35 14.6086957,5.46 12.8405797,5.25 C9.71014493,4.89 0.724637681,9.36 0.637681159,9.42 C0.434782609,9.51 0.202898551,9.42 0.115942029,9.24 C0.0289855072,9.03 0.115942029,8.79 0.289855072,8.7 C0.666666667,8.52 9.56521739,4.08 12.9275362,4.47 C14.9275362,4.71 17.1884058,6.66 19.3913043,8.55 C21.4492754,10.35 23.5942029,12.18 25.3623188,12.42 C28.3768116,12.84 34.2898551,10.26 37.5652174,8.7 C40.9275362,7.08 49.826087,0.21 49.9130435,0.15 C50.0869565,0.03 50.3188406,0.06 50.4637681,0.24 C50.5797101,0.42 50.5507246,0.66 50.3768116,0.81 C50,1.08 41.3333333,7.8 37.884058,9.45 C34.7536232,10.92 29.3333333,13.26 26,13.26 Z" opacity=".4" transform="translate(0 12.6)"/>
      <path fill="url(#j)" d="M25.3913043,11.55 C25.3333333,11.55 25.3043478,11.55 25.2753623,11.55 C23.1884058,11.49 20.8695652,9.45 18.6376812,7.47 C16.6086957,5.7 14.5507246,3.87 12.8405797,3.66 C9.71014493,3.3 0.724637681,7.65 0.637681159,7.68 C0.434782609,7.77 0.202898551,7.68 0.115942029,7.5 C0.0289855072,7.29 0.115942029,7.05 0.289855072,6.96 C0.666666667,6.78 9.56521739,2.43 12.9275362,2.85 C14.8695652,3.09 16.9275362,4.92 19.1304348,6.84 C21.2753623,8.73 23.4782609,10.68 25.3043478,10.74 C25.3333333,10.74 25.3623188,10.74 25.4202899,10.74 C27.5362319,10.74 30.5217391,8.67 33.1304348,6.84 C34.7826087,5.7 36.3188406,4.62 37.5652174,4.08 C40.5217391,2.85 49.6231884,0.33 50.0289855,0.21 C50.2318841,0.15 50.4637681,0.27 50.5217391,0.51 C50.5797101,0.72 50.4637681,0.96 50.2318841,1.02 C50.1449275,1.05 40.7826087,3.63 37.8550725,4.86 C36.6666667,5.34 35.1594203,6.42 33.5652174,7.53 C30.8405797,9.42 27.7681159,11.55 25.3913043,11.55 Z" opacity=".6" transform="translate(0 11.7)"/>
      <path fill="url(#k)" d="M0.434782609,16.2 C0.347826088,16.2 0.260869566,16.17 0.202898551,16.11 C0.0289855079,15.99 6.91063262e-10,15.72 0.11594203,15.54 C0.434782609,15.09 8.26086957,4.35 12.7826087,3.51 C14.8115942,3.15 17.5652174,4.65 20.2028986,6.15 C22.115942,7.23 23.942029,8.25 25.3043478,8.43 C28.2318841,8.85 34.5507246,8.28 37.5362319,7.35 C40.9275362,6.27 49.7681159,0.21 49.8550725,0.15 C50.0289855,0.03 50.2898551,0.09 50.4057971,0.27 C50.5217391,0.45 50.4637681,0.72 50.2898551,0.84 C49.9130435,1.08 41.2753623,7.05 37.7681159,8.16 C34.6666667,9.15 28.2028986,9.72 25.1884058,9.27 C23.6811594,9.06 21.7971014,8.01 19.826087,6.9 C17.3043478,5.49 14.6666667,4.02 12.8985507,4.35 C8.69565217,5.13 0.811594204,15.96 0.724637682,16.05 C0.695652175,16.14 0.579710146,16.2 0.434782609,16.2 Z" opacity=".4" transform="translate(0 10.2)"/>
      <path fill="url(#l)" d="M0.434782609,16.2 C0.347826088,16.2 0.289855073,16.17 0.202898551,16.11 C0.0289855079,15.99 6.91063283e-10,15.72 0.11594203,15.54 C0.434782609,15.06 8.20289855,3.96 12.7536232,2.88 C14.7826087,2.4 17.6521739,3.72 20.4637681,4.98 C22.2898551,5.82 24.0289855,6.6 25.3043478,6.78 C28.4347826,7.2 34.7246377,7.11 37.5652174,6.39 C40.8985507,5.55 49.7971014,0.15 49.884058,0.0900000004 C50.057971,-0.0299999996 50.3188406,0.0300000004 50.4057971,0.24 C50.5217391,0.42 50.4637681,0.69 50.2608696,0.78 C49.884058,0.99 41.1884058,6.27 37.7391304,7.14 C34.7246377,7.92 28.4057971,7.98 25.1884058,7.56 C23.826087,7.38 22.0289855,6.57 20.1449275,5.7 C17.5942029,4.53 14.6956522,3.21 12.9275362,3.63 C8.63768116,4.62 0.811594204,15.87 0.753623189,15.96 C0.695652175,16.14 0.579710146,16.2 0.434782609,16.2 Z" transform="translate(0 10.2)"/>
      <path fill="url(#m)" d="M0.434782609,16.2 C0.347826088,16.2 0.260869566,16.17 0.202898551,16.11 C0.0289855079,15.99 6.91063283e-10,15.72 0.11594203,15.54 C0.434782609,15.09 8.23188406,4.14 12.7826087,3.51 C14.8405797,3.21 17.3913043,5.01 19.8550725,6.78 C21.7971014,8.16 23.7971014,9.57 25.3043478,9.75 C28.4927536,10.11 34.9275362,7.83 37.5362319,6.84 C40.7826087,5.61 49.7971014,0.18 49.884058,0.15 C50.057971,0.03 50.3188406,0.09 50.4057971,0.3 C50.5217391,0.48 50.4637681,0.75 50.2608696,0.84 C49.884058,1.05 41.1014493,6.33 37.7971014,7.59 C35.1304348,8.61 28.5507246,10.95 25.2173913,10.56 C23.5072464,10.38 21.5362319,8.94 19.4202899,7.47 C17.0724638,5.82 14.6666667,4.11 12.8985507,4.35 C8.66666667,4.95 0.840579711,15.93 0.753623189,16.05 C0.695652175,16.14 0.579710146,16.2 0.434782609,16.2 Z" transform="translate(0 10.2)"/>
    </g>
    <rect width="1.826" height="35.91" x=".029" fill="#FFFFFF"/>
    <rect width="1.826" height="35.91" x="50.493" fill="#FFFFFF"/>
    <path fill="#FFFFFF" d="M68.2608696,16.71 L68.2608696,21.03 L66.4637681,21.03 L66.4637681,10.2 L69.5652174,10.2 C70.9855072,10.2 72.057971,10.47 72.7246377,10.98 C73.4202899,11.49 73.7391304,12.3 73.7391304,13.35 C73.7391304,14.7 73.0144928,15.66 71.5942029,16.23 L74.7246377,21.03 L72.6666667,21.03 L70.0289855,16.71 L68.2608696,16.71 L68.2608696,16.71 Z M68.2608696,15.24 L69.5072464,15.24 C70.3478261,15.24 70.9565217,15.09 71.3333333,14.79 C71.7101449,14.49 71.9130435,14.04 71.9130435,13.44 C71.9130435,12.84 71.7101449,12.39 71.3043478,12.12 C70.8985507,11.85 70.2898551,11.73 69.4492754,11.73 L68.2608696,11.73 L68.2608696,15.24 Z"/>
    <polygon fill="#FFFFFF" points="83.42 21.03 77.159 21.03 77.159 10.2 83.42 10.2 83.42 11.7 78.986 11.7 78.986 14.64 83.159 14.64 83.159 16.11 78.986 16.11 78.986 19.5 83.42 19.5"/>
    <path fill="#FFFFFF" d="M92.9565217,18.09 C92.9565217,19.05 92.6086957,19.8 91.884058,20.34 C91.1594203,20.88 90.2028986,21.15 88.9565217,21.15 C87.7101449,21.15 86.6956522,20.97 85.884058,20.58 L85.884058,18.9 C86.3768116,19.14 86.9275362,19.32 87.4782609,19.44 C88.057971,19.56 88.5797101,19.65 89.0724638,19.65 C89.7971014,19.65 90.3188406,19.53 90.6666667,19.26 C91.0144928,18.99 91.1884058,18.63 91.1884058,18.18 C91.1884058,17.79 91.0434783,17.43 90.7246377,17.16 C90.4057971,16.89 89.7681159,16.56 88.7826087,16.17 C87.7681159,15.78 87.0724638,15.3 86.6376812,14.79 C86.2028986,14.28 86.0289855,13.65 86.0289855,12.93 C86.0289855,12.03 86.3478261,11.31 87.0144928,10.8 C87.6811594,10.29 88.5507246,10.02 89.6521739,10.02 C90.7246377,10.02 91.7681159,10.26 92.8115942,10.71 L92.2318841,12.15 C91.2463768,11.76 90.3768116,11.55 89.5942029,11.55 C89.0144928,11.55 88.5797101,11.67 88.2608696,11.91 C87.9710145,12.15 87.7971014,12.48 87.7971014,12.9 C87.7971014,13.17 87.8550725,13.41 87.9710145,13.62 C88.0869565,13.83 88.2898551,14.01 88.5797101,14.19 C88.8695652,14.37 89.3623188,14.61 90.0869565,14.88 C90.8985507,15.21 91.5072464,15.51 91.884058,15.81 C92.2608696,16.11 92.5507246,16.41 92.7246377,16.77 C92.8985507,17.13 92.9565217,17.58 92.9565217,18.09 Z"/>
    <polygon fill="#FFFFFF" points="95.797 21.03 95.797 10.2 97.594 10.2 97.594 21.03"/>
    <polygon fill="#FFFFFF" points="101.13 21.03 101.13 10.2 102.928 10.2 102.928 19.5 107.594 19.5 107.594 21.03"/>
    <polygon fill="#FFFFFF" points="110.174 21.03 110.174 10.2 111.971 10.2 111.971 21.03"/>
    <polygon fill="#FFFFFF" points="121.768 21.03 115.507 21.03 115.507 10.2 121.768 10.2 121.768 11.7 117.333 11.7 117.333 14.64 121.507 14.64 121.507 16.11 117.333 16.11 117.333 19.5 121.768 19.5"/>
    <path fill="#FFFFFF" d="M133.971014 21.03L131.768116 21.03 126.318841 12.42 126.26087 12.42 126.289855 12.9C126.347826 13.83 126.405797 14.67 126.405797 15.42L126.405797 21.03 124.753623 21.03 124.753623 10.2 126.956522 10.2 132.376812 18.78 132.434783 18.78C132.434783 18.66 132.405797 18.24 132.376812 17.55 132.347826 16.83 132.318841 16.29 132.318841 15.87L132.318841 10.2 133.971014 10.2 133.971014 21.03zM142.26087 11.58C141.217391 11.58 140.405797 11.94 139.797101 12.66 139.188406 13.38 138.898551 14.37 138.898551 15.63 138.898551 16.95 139.188406 17.97 139.768116 18.63 140.347826 19.32 141.15942 19.65 142.26087 19.65 142.724638 19.65 143.188406 19.59 143.623188 19.5 144.057971 19.41 144.521739 19.29 144.985507 19.14L144.985507 20.67C144.115942 21 143.130435 21.15 142.028986 21.15 140.405797 21.15 139.15942 20.67 138.289855 19.71 137.42029 18.75 136.985507 17.37 136.985507 15.6 136.985507 14.49 137.188406 13.5 137.623188 12.66 138.057971 11.82 138.666667 11.16 139.449275 10.71 140.231884 10.26 141.188406 10.05 142.26087 10.05 143.391304 10.05 144.434783 10.29 145.391304 10.74L144.753623 12.21C144.376812 12.03 144 11.88 143.565217 11.76 143.130435 11.64 142.724638 11.58 142.26087 11.58z"/>
    <polygon fill="#FFFFFF" points="154.261 21.03 148 21.03 148 10.2 154.261 10.2 154.261 11.7 149.826 11.7 149.826 14.64 154 14.64 154 16.11 149.826 16.11 149.826 19.5 154.261 19.5"/>
    <path fill="#FFFFFF" d="M66.4637681 32.49C66.4637681 31.83 66.6376812 31.29 66.9565217 30.81 67.2753623 30.33 67.8550725 29.85 68.6956522 29.37 68.2028986 28.83 67.884058 28.35 67.7101449 27.99 67.5362319 27.6 67.4492754 27.21 67.4492754 26.82 67.4492754 26.07 67.7101449 25.47 68.2608696 25.05 68.8115942 24.63 69.5362319 24.39 70.4637681 24.39 71.3623188 24.39 72.057971 24.6 72.5797101 25.02 73.1014493 25.44 73.3333333 26.01 73.3333333 26.73 73.3333333 27.3 73.1594203 27.81 72.8115942 28.26 72.4637681 28.71 71.9130435 29.19 71.1014493 29.64L73.7101449 32.1C74.115942 31.56 74.4637681 30.81 74.7246377 29.79L76.5507246 29.79C76.2028986 31.2 75.6231884 32.34 74.8695652 33.21L77.1594203 35.37 74.8695652 35.37 73.7391304 34.29C73.2173913 34.68 72.6666667 35.01 72.0869565 35.19 71.5072464 35.4 70.8695652 35.49 70.1449275 35.49 68.9855072 35.49 68.0869565 35.22 67.4202899 34.68 66.7826087 34.17 66.4637681 33.42 66.4637681 32.49zM70.2608696 34.02C71.1884058 34.02 71.9710145 33.75 72.6376812 33.24L69.7391304 30.45C69.2173913 30.78 68.8405797 31.11 68.6376812 31.38 68.4347826 31.68 68.3478261 32.01 68.3478261 32.37 68.3478261 32.85 68.5217391 33.24 68.8695652 33.54 69.2173913 33.87 69.6811594 34.02 70.2608696 34.02zM69.1304348 26.88C69.1304348 27.18 69.2173913 27.48 69.3913043 27.75 69.5652174 28.02 69.7971014 28.32 70.0869565 28.62 70.6666667 28.29 71.0434783 28.02 71.2753623 27.75 71.5072464 27.48 71.6231884 27.18 71.6231884 26.82 71.6231884 26.49 71.5072464 26.25 71.3043478 26.04 71.0724638 25.86 70.7826087 25.74 70.4347826 25.74 70.0289855 25.74 69.7101449 25.83 69.4782609 26.04 69.2463768 26.25 69.1304348 26.55 69.1304348 26.88zM86.8405797 27.81C86.8405797 28.95 86.4637681 29.79 85.7101449 30.42 84.9565217 31.05 83.884058 31.32 82.4927536 31.32L81.3333333 31.32 81.3333333 35.37 79.5362319 35.37 79.5362319 24.54 82.7246377 24.54C84.115942 24.54 85.1304348 24.81 85.826087 25.38 86.4927536 25.92 86.8405797 26.73 86.8405797 27.81zM81.3333333 29.82L82.2898551 29.82C83.2173913 29.82 83.884058 29.67 84.3188406 29.34 84.7536232 29.01 84.9565217 28.53 84.9565217 27.87 84.9565217 27.24 84.7536232 26.79 84.3768116 26.49 84 26.19 83.3913043 26.04 82.5507246 26.04L81.3043478 26.04 81.3043478 29.82 81.3333333 29.82zM91.3333333 31.05L91.3333333 35.37 89.5362319 35.37 89.5362319 24.54 92.6666667 24.54C94.0869565 24.54 95.1594203 24.81 95.826087 25.32 96.5217391 25.83 96.8405797 26.64 96.8405797 27.69 96.8405797 29.04 96.115942 30 94.6956522 30.57L97.826087 35.37 95.7681159 35.37 93.1304348 31.05 91.3333333 31.05zM91.3333333 29.58L92.5797101 29.58C93.4202899 29.58 94.0289855 29.43 94.4057971 29.13 94.7826087 28.83 94.9855072 28.38 94.9855072 27.78 94.9855072 27.18 94.7826087 26.73 94.3768116 26.46 93.9710145 26.19 93.3623188 26.07 92.5217391 26.07L91.3333333 26.07 91.3333333 29.58z"/>
    <polygon fill="#FFFFFF" points="106.493 35.37 100.232 35.37 100.232 24.54 106.493 24.54 106.493 26.04 102.058 26.04 102.058 28.98 106.232 28.98 106.232 30.45 102.058 30.45 102.058 33.84 106.493 33.84"/>
    <path fill="#FFFFFF" d="M116.811594 27.81C116.811594 28.95 116.434783 29.79 115.681159 30.42 114.927536 31.05 113.855072 31.32 112.463768 31.32L111.304348 31.32 111.304348 35.37 109.507246 35.37 109.507246 24.54 112.695652 24.54C114.086957 24.54 115.101449 24.81 115.797101 25.38 116.463768 25.92 116.811594 26.73 116.811594 27.81zM111.304348 29.82L112.26087 29.82C113.188406 29.82 113.855072 29.67 114.289855 29.34 114.724638 29.01 114.927536 28.53 114.927536 27.87 114.927536 27.24 114.724638 26.79 114.347826 26.49 113.971014 26.19 113.362319 26.04 112.521739 26.04L111.304348 26.04 111.304348 29.82zM125.826087 35.37L124.724638 32.37 120.492754 32.37 119.42029 35.37 117.507246 35.37 121.652174 24.51 123.623188 24.51 127.768116 35.37 125.826087 35.37zM124.231884 30.84L123.188406 27.9C123.101449 27.69 123.014493 27.39 122.869565 26.97 122.724638 26.55 122.637681 26.22 122.57971 26.04 122.434783 26.64 122.231884 27.3 121.971014 28.02L120.985507 30.84 124.231884 30.84 124.231884 30.84zM131.913043 31.05L131.913043 35.37 130.115942 35.37 130.115942 24.54 133.246377 24.54C134.666667 24.54 135.73913 24.81 136.405797 25.32 137.101449 25.83 137.42029 26.64 137.42029 27.69 137.42029 29.04 136.695652 30 135.275362 30.57L138.405797 35.37 136.347826 35.37 133.710145 31.05 131.913043 31.05zM131.913043 29.58L133.15942 29.58C134 29.58 134.608696 29.43 134.985507 29.13 135.362319 28.83 135.565217 28.38 135.565217 27.78 135.565217 27.18 135.362319 26.73 134.956522 26.46 134.550725 26.19 133.942029 26.07 133.101449 26.07L131.913043 26.07 131.913043 29.58 131.913043 29.58z"/>
    <polygon fill="#FFFFFF" points="147.043 35.37 140.783 35.37 140.783 24.54 147.043 24.54 147.043 26.04 142.609 26.04 142.609 28.98 146.783 28.98 146.783 30.45 142.609 30.45 142.609 33.84 147.043 33.84"/>
    <path fill="#FFFFFF" d="M159.043478 29.85C159.043478 31.65 158.550725 33 157.536232 33.93 156.521739 34.86 155.072464 35.34 153.15942 35.34L150.057971 35.34 150.057971 24.51 153.478261 24.51C155.246377 24.51 156.608696 24.96 157.594203 25.89 158.550725 26.85 159.043478 28.17 159.043478 29.85zM157.130435 29.91C157.130435 27.33 155.884058 26.04 153.42029 26.04L151.855072 26.04 151.855072 33.9 153.130435 33.9C155.797101 33.87 157.130435 32.55 157.130435 29.91zM171.246377 35.37L169.043478 35.37 163.594203 26.76 163.536232 26.76 163.565217 27.24C163.623188 28.17 163.681159 29.01 163.681159 29.76L163.681159 35.37 162.028986 35.37 162.028986 24.54 164.231884 24.54 169.652174 33.12 169.710145 33.12C169.710145 33 169.681159 32.58 169.652174 31.89 169.623188 31.17 169.594203 30.63 169.594203 30.21L169.594203 24.54 171.246377 24.54 171.246377 35.37 171.246377 35.37z"/>
    <polygon fill="#FFFFFF" points="181.043 35.37 174.783 35.37 174.783 24.54 181.043 24.54 181.043 26.04 176.609 26.04 176.609 28.98 180.783 28.98 180.783 30.45 176.609 30.45 176.609 33.84 181.043 33.84"/>
    <path fill="#FFFFFF" d="M190.57971 32.43C190.57971 33.39 190.231884 34.14 189.507246 34.68 188.782609 35.22 187.826087 35.49 186.57971 35.49 185.333333 35.49 184.318841 35.31 183.507246 34.92L183.507246 33.24C184 33.48 184.550725 33.66 185.101449 33.78 185.681159 33.9 186.202899 33.99 186.695652 33.99 187.42029 33.99 187.942029 33.87 188.289855 33.6 188.637681 33.33 188.811594 32.97 188.811594 32.52 188.811594 32.13 188.666667 31.77 188.347826 31.5 188.028986 31.23 187.391304 30.9 186.405797 30.51 185.391304 30.12 184.695652 29.64 184.26087 29.13 183.826087 28.62 183.652174 27.99 183.652174 27.27 183.652174 26.37 183.971014 25.65 184.637681 25.14 185.304348 24.63 186.173913 24.36 187.275362 24.36 188.347826 24.36 189.391304 24.6 190.434783 25.05L189.855072 26.49C188.869565 26.1 188 25.89 187.217391 25.89 186.637681 25.89 186.202899 26.01 185.884058 26.25 185.594203 26.49 185.42029 26.82 185.42029 27.24 185.42029 27.51 185.478261 27.75 185.594203 27.96 185.710145 28.17 185.913043 28.35 186.202899 28.53 186.492754 28.71 186.985507 28.95 187.710145 29.22 188.521739 29.55 189.130435 29.85 189.507246 30.15 189.884058 30.45 190.173913 30.75 190.347826 31.11 190.521739 31.47 190.57971 31.92 190.57971 32.43zM199.942029 32.43C199.942029 33.39 199.594203 34.14 198.869565 34.68 198.144928 35.22 197.188406 35.49 195.942029 35.49 194.695652 35.49 193.681159 35.31 192.869565 34.92L192.869565 33.24C193.362319 33.48 193.913043 33.66 194.463768 33.78 195.043478 33.9 195.565217 33.99 196.057971 33.99 196.782609 33.99 197.304348 33.87 197.652174 33.6 198 33.33 198.173913 32.97 198.173913 32.52 198.173913 32.13 198.028986 31.77 197.710145 31.5 197.391304 31.23 196.753623 30.9 195.768116 30.51 194.753623 30.12 194.057971 29.64 193.623188 29.13 193.188406 28.62 193.014493 27.99 193.014493 27.27 193.014493 26.37 193.333333 25.65 194 25.14 194.666667 24.63 195.536232 24.36 196.637681 24.36 197.710145 24.36 198.753623 24.6 199.797101 25.05L199.217391 26.49C198.231884 26.1 197.362319 25.89 196.57971 25.89 196 25.89 195.565217 26.01 195.246377 26.25 194.956522 26.49 194.782609 26.82 194.782609 27.24 194.782609 27.51 194.84058 27.75 194.956522 27.96 195.072464 28.17 195.275362 28.35 195.565217 28.53 195.855072 28.71 196.347826 28.95 197.072464 29.22 197.884058 29.55 198.492754 29.85 198.869565 30.15 199.246377 30.45 199.536232 30.75 199.710145 31.11 199.884058 31.47 199.942029 31.92 199.942029 32.43z"/>
    <g fill="#FFFFFF" transform="translate(66.377 .6)">
      <path d="M4.08695652 1.95C4.08695652 2.58 3.88405797 3.06 3.44927536 3.39 3.04347826 3.72 2.43478261 3.9 1.68115942 3.9L1.04347826 3.9 1.04347826 6.12.0579710145 6.12.0579710145.18 1.79710145.18C2.55072464.18 3.13043478.33 3.50724638.63 3.91304348.93 4.08695652 1.38 4.08695652 1.95zM1.07246377 3.06L1.5942029 3.06C2.11594203 3.06 2.46376812 2.97 2.72463768 2.79 2.95652174 2.61 3.07246377 2.34 3.07246377 1.98 3.07246377 1.65 2.95652174 1.38 2.75362319 1.23 2.55072464 1.05 2.20289855.99 1.76811594.99L1.07246377.99 1.07246377 3.06zM9.62318841 6.12L9.01449275 4.47 6.69565217 4.47 6.08695652 6.12 5.04347826 6.12 7.30434783.15 8.37681159.15 10.6376812 6.12 9.62318841 6.12zM8.75362319 3.63L8.17391304 2.01C8.14492754 1.89 8.08695652 1.74 8 1.5 7.91304348 1.26 7.88405797 1.11 7.85507246.99 7.76811594 1.32 7.68115942 1.68 7.53623188 2.07L6.98550725 3.63 8.75362319 3.63zM13.5072464 3.72L13.5072464 6.09 12.5217391 6.09 12.5217391.15 14.2318841.15C15.0144928.15 15.5942029.3 15.9710145.57 16.3478261.87 16.5217391 1.29 16.5217391 1.86 16.5217391 2.61 16.115942 3.12 15.3333333 3.45L17.0434783 6.09 15.942029 6.09 14.4927536 3.72 13.5072464 3.72 13.5072464 3.72zM13.5072464 2.94L14.2028986 2.94C14.6666667 2.94 15.0144928 2.85 15.2173913 2.7 15.4202899 2.52 15.5362319 2.28 15.5362319 1.95 15.5362319 1.62 15.4202899 1.38 15.1884058 1.23 14.9565217 1.08 14.6376812 1.02 14.173913 1.02L13.5072464 1.02 13.5072464 2.94z"/>
      <polygon points="21.014 6.12 20.029 6.12 20.029 1.02 18.232 1.02 18.232 .18 22.812 .18 22.812 1.02 21.014 1.02 21.014 6.12"/>
      <path d="M29.7681159,6.12 L28.5507246,6.12 L25.5652174,1.38 L25.5362319,1.38 L25.5652174,1.65 C25.5942029,2.16 25.6231884,2.61 25.6231884,3.03 L25.6231884,6.12 L24.7246377,6.12 L24.7246377,0.18 L25.942029,0.18 L28.9275362,4.89 L28.9565217,4.89 C28.9565217,4.83 28.9275362,4.59 28.9275362,4.2 C28.8985507,3.81 28.8985507,3.51 28.8985507,3.27 L28.8985507,0.15 L29.7971014,0.15 L29.7971014,6.12 L29.7681159,6.12 Z"/>
      <polygon points="35.681 6.12 32.232 6.12 32.232 .18 35.681 .18 35.681 .99 33.246 .99 33.246 2.61 35.536 2.61 35.536 3.42 33.246 3.42 33.246 5.28 35.681 5.28"/>
      <path d="M38.8695652 3.72L38.8695652 6.09 37.884058 6.09 37.884058.15 39.5942029.15C40.3768116.15 40.9565217.3 41.3333333.57 41.7101449.87 41.884058 1.29 41.884058 1.86 41.884058 2.61 41.4782609 3.12 40.6956522 3.45L42.4057971 6.09 41.2753623 6.09 39.826087 3.72 38.8695652 3.72 38.8695652 3.72zM38.8695652 2.94L39.5652174 2.94C40.0289855 2.94 40.3768116 2.85 40.5797101 2.7 40.7826087 2.52 40.8985507 2.28 40.8985507 1.95 40.8985507 1.62 40.7826087 1.38 40.5507246 1.23 40.3188406 1.08 40 1.02 39.5362319 1.02L38.8695652 1.02 38.8695652 2.94zM48 4.5C48 5.04 47.7971014 5.43 47.4202899 5.73 47.0434783 6.03 46.4927536 6.18 45.7971014 6.18 45.1014493 6.18 44.5507246 6.09 44.115942 5.88L44.115942 4.95C44.4057971 5.07 44.6956522 5.19 44.9855072 5.25 45.3043478 5.31 45.5942029 5.37 45.8550725 5.37 46.2608696 5.37 46.5507246 5.31 46.7246377 5.16 46.8985507 5.01 47.0144928 4.83 47.0144928 4.56 47.0144928 4.35 46.9275362 4.14 46.7536232 3.99 46.5797101 3.84 46.2318841 3.66 45.6811594 3.45 45.1304348 3.24 44.7246377 2.97 44.5217391 2.7 44.2898551 2.43 44.173913 2.07 44.173913 1.68 44.173913 1.17 44.3478261.78 44.7246377.51 45.0724638.24 45.5652174.09 46.173913.09 46.7536232.09 47.3333333.21 47.9130435.45L47.5942029 1.23C47.0434783 1.02 46.5797101.9 46.1449275.9 45.826087.9 45.5652174.96 45.4202899 1.11 45.2463768 1.26 45.1594203 1.44 45.1594203 1.65 45.1594203 1.8 45.1884058 1.95 45.2463768 2.04 45.3043478 2.16 45.4202899 2.25 45.5652174 2.34 45.7101449 2.43 46 2.58 46.3768116 2.73 46.8115942 2.91 47.1594203 3.09 47.3623188 3.24 47.5652174 3.39 47.7101449 3.57 47.826087 3.78 47.942029 3.99 48 4.23 48 4.5z"/>
      <polygon points="54.87 6.12 53.884 6.12 53.884 3.45 51.072 3.45 51.072 6.12 50.087 6.12 50.087 .18 51.072 .18 51.072 2.61 53.884 2.61 53.884 .18 54.87 .18"/>
      <polygon points="57.362 6.12 57.362 .18 58.348 .18 58.348 6.12"/>
      <path d="M64.8695652,1.95 C64.8695652,2.58 64.6666667,3.06 64.2318841,3.39 C63.826087,3.72 63.2173913,3.9 62.4637681,3.9 L61.826087,3.9 L61.826087,6.12 L60.8405797,6.12 L60.8405797,0.18 L62.5797101,0.18 C63.3333333,0.18 63.9130435,0.33 64.2898551,0.63 C64.6956522,0.93 64.8695652,1.38 64.8695652,1.95 Z M61.8550725,3.06 L62.3768116,3.06 C62.8985507,3.06 63.2463768,2.97 63.5072464,2.79 C63.7391304,2.61 63.8550725,2.34 63.8550725,1.98 C63.8550725,1.65 63.7391304,1.38 63.5362319,1.23 C63.3333333,1.05 62.9855072,0.99 62.5507246,0.99 L61.8550725,0.99 L61.8550725,3.06 Z"/>
      <polygon points="71.246 6.12 70.261 6.12 70.261 .18 73.681 .18 73.681 .99 71.246 .99 71.246 2.85 73.536 2.85 73.536 3.69 71.246 3.69"/>
      <path d="M81.1304348 3.12C81.1304348 4.08 80.8695652 4.83 80.3768116 5.37 79.884058 5.91 79.1884058 6.18 78.2898551 6.18 77.3623188 6.18 76.6666667 5.91 76.173913 5.37 75.6811594 4.83 75.4492754 4.08 75.4492754 3.09 75.4492754 2.1 75.7101449 1.35 76.2028986.84 76.6956522.3 77.3913043.06 78.3188406.06 79.2173913.06 79.9130435.33 80.4057971.87 80.8985507 1.41 81.1304348 2.16 81.1304348 3.12zM76.4927536 3.12C76.4927536 3.84 76.6376812 4.41 76.9565217 4.8 77.2463768 5.19 77.7101449 5.37 78.2898551 5.37 78.8695652 5.37 79.3333333 5.19 79.6231884 4.8 79.9130435 4.44 80.0869565 3.87 80.0869565 3.12 80.0869565 2.4 79.942029 1.83 79.6521739 1.47 79.3623188 1.08 78.8985507.9 78.3188406.9 77.7101449.9 77.2753623 1.08 76.9565217 1.47 76.6376812 1.83 76.4927536 2.4 76.4927536 3.12zM84.3188406 3.72L84.3188406 6.09 83.3333333 6.09 83.3333333.15 85.0434783.15C85.826087.15 86.4057971.3 86.7826087.57 87.1594203.87 87.3333333 1.29 87.3333333 1.86 87.3333333 2.61 86.9275362 3.12 86.1449275 3.45L87.8550725 6.09 86.7246377 6.09 85.2753623 3.72 84.3188406 3.72 84.3188406 3.72zM84.3188406 2.94L85.0144928 2.94C85.4782609 2.94 85.826087 2.85 86.0289855 2.7 86.2318841 2.52 86.3478261 2.28 86.3478261 1.95 86.3478261 1.62 86.2318841 1.38 86 1.23 85.7681159 1.08 85.4492754 1.02 84.9855072 1.02L84.3188406 1.02 84.3188406 2.94z"/>
    </g>
  </g>
</svg>
