<svg width="100" height="8" xmlns="http://www.w3.org/2000/svg"><path d="M5.303 3.89c.246-.333.368-.737.368-1.213 0-.394-.067-.722-.202-.986a1.661 1.661 0 0 0-.548-.628A2.294 2.294 0 0 0 4.12.72a4.508 4.508 0 0 0-.967-.11H.667v6.777h1.468V4.635h.632l1.395 2.753h1.764L4.228 4.533c.472-.09.83-.31 1.075-.642zm-1.277-.794a.697.697 0 0 1-.297.223c-.12.048-.253.05-.401.059-.148.01-.288-.013-.42-.013h-.773V1.882h.868c.132 0 .267.012.405.03.138.02.261.058.368.111a.7.7 0 0 1 .264.234.719.719 0 0 1 .104.41c0 .184-.04.327-.118.429zm3.982 1.54v1.27h3.146v1.482H6.539V.612h4.405v1.482H8.008v1.059h2.936v1.482H8.008zm7.626-.817c.229.14.42.327.57.562.151.235.226.549.226.942 0 .375-.069.702-.207.98-.138.28-.325.512-.561.696-.236.184-.51.32-.82.41a3.57 3.57 0 0 1-.986.133c-.434 0-.836-.067-1.207-.2a3.019 3.019 0 0 1-1.037-.648l1.047-1.161c.15.203.34.36.57.47a1.61 1.61 0 0 0 1.075.125c.122-.029.233-.072.33-.129a.713.713 0 0 0 .236-.219.551.551 0 0 0 .09-.314.572.572 0 0 0-.232-.48 2.12 2.12 0 0 0-.58-.3 18.236 18.236 0 0 0-.754-.248 3.364 3.364 0 0 1-.754-.333 1.826 1.826 0 0 1-.58-.552c-.154-.229-.231-.53-.231-.905 0-.362.07-.679.212-.952.141-.273.33-.501.566-.686.236-.183.507-.321.815-.414.308-.092.626-.138.953-.138.377 0 .741.054 1.093.162.353.108.67.29.953.543l-1.009 1.114a1.05 1.05 0 0 0-.486-.338 1.728 1.728 0 0 0-.58-.11c-.106 0-.217.013-.33.038-.113.026-.22.066-.32.12a.706.706 0 0 0-.245.213.546.546 0 0 0-.095.324c0 .204.076.359.227.467.15.108.34.2.57.276.23.076.476.152.74.228.264.077.511.185.74.324zm7.463-2.404c.321.308.57.68.75 1.119.18.438.269.927.269 1.466 0 .54-.09 1.028-.269 1.466-.18.438-.429.811-.75 1.119-.32.308-.7.544-1.14.71a4.08 4.08 0 0 1-1.443.247 4.08 4.08 0 0 1-1.443-.248 3.294 3.294 0 0 1-1.141-.71c-.32-.307-.57-.68-.75-1.118A3.842 3.842 0 0 1 16.91 4c0-.54.09-1.028.269-1.466.18-.438.43-.81.75-1.119.32-.308.7-.544 1.14-.71a4.08 4.08 0 0 1 1.444-.247 4.08 4.08 0 0 1 1.442.248c.44.165.82.401 1.141.71zm-.655 3.456a2 2 0 0 1-.42.686c-.182.193-.4.344-.655.452a2.165 2.165 0 0 1-.853.162c-.315 0-.6-.054-.854-.162a1.918 1.918 0 0 1-1.075-1.138A2.49 2.49 0 0 1 18.44 4c0-.31.049-.6.146-.866A1.921 1.921 0 0 1 19.66 1.99c.255-.108.54-.162.854-.162.314 0 .598.054.853.162a1.92 1.92 0 0 1 1.075 1.143c.097.266.146.555.146.866 0 .318-.049.608-.146.871zm6.54-.157V.612h1.468v4.16c0 .399-.04.767-.16 1.104a2.39 2.39 0 0 1-.513.876 2.445 2.445 0 0 1-.883.58c-.352.14-.76.21-1.219.21-.465 0-.878-.07-1.23-.21a2.476 2.476 0 0 1-.891-.58 2.478 2.478 0 0 1-.551-.876 3.286 3.286 0 0 1-.216-1.105V.611h1.468v4.103c0 .21.07.403.137.58.066.179.197.333.316.463.12.13.262.231.429.304.166.073.346.11.54.11a1.256 1.256 0 0 0 .955-.414c.12-.13.203-.284.27-.462.065-.178.08-.372.08-.58zm7.345-.823c-.245.333-.603.553-1.075.642l1.697 2.855h-1.763L33.79 4.635h-.824v2.753h-1.469V.612h2.679c.34 0 .662.042.967.109.305.066.572.186.801.342.23.156.412.365.547.628.135.264.203.592.203.986 0 .476-.123.88-.368 1.214zm-1.278-.795a.697.697 0 0 1-.297.223c-.12.048-.253.05-.4.059-.148.01-.288-.013-.42-.013h-.965V1.882h1.06c.131 0 .266.012.404.03.139.02.262.058.368.111a.7.7 0 0 1 .264.234.719.719 0 0 1 .104.41c0 .184-.04.327-.118.429zm6.257 2.884c.233-.127.424-.304.575-.533l1.226.924a2.56 2.56 0 0 1-1.075.885c-.434.19-.88.286-1.339.286a4.08 4.08 0 0 1-1.443-.248 3.294 3.294 0 0 1-1.14-.71c-.321-.307-.571-.68-.75-1.118A3.842 3.842 0 0 1 37.09 4c0-.54.09-1.028.27-1.466.179-.438.429-.81.75-1.119.32-.308.7-.544 1.14-.71a4.08 4.08 0 0 1 1.443-.247c.189 0 .385.018.59.053.204.035.405.09.603.166.198.076.388.178.57.305.183.127.346.282.49.467l-1.13.933a1.451 1.451 0 0 0-.534-.41 1.761 1.761 0 0 0-.73-.143 1.826 1.826 0 0 0-1.382.614 2.109 2.109 0 0 0-.405.69 2.503 2.503 0 0 0-.146.867c0 .318.048.608.146.871.097.264.23.492.4.686.17.193.37.344.6.452.229.108.475.162.74.162.301 0 .568-.064.8-.19zm3.826-1.345v1.27h3.355v1.483h-4.824V.612h4.615v1.482h-3.146v1.059h2.936v1.482h-2.936zM57.252.612h.64L55.95 7.388h-.763l-1.688-5.93h-.02l-1.687 5.93h-.764L49.085.612h.642l1.66 5.93h.018l1.688-5.93h.792l1.688 5.93h.019l1.66-5.93zm3.394 0h.641l2.81 6.776H63.4l-.727-1.906h-3.536l-.754 1.906h-.65L60.645.612zm-1.264 4.447l1.556-3.694 1.51 3.694h-3.066zm4.626-3.812V.612h5.244v.635h-2.307v6.141h-.63v-6.14h-2.307zm10.528 5.147a2.06 2.06 0 0 0 .415-.47l.509.39c-.32.438-.691.752-1.112.942-.422.19-.878.286-1.368.286-.509 0-.976-.088-1.4-.262a3.154 3.154 0 0 1-1.09-.733 3.375 3.375 0 0 1-.707-1.124A3.881 3.881 0 0 1 69.53 4c0-.514.085-.987.254-1.419.17-.431.406-.804.708-1.118.301-.314.665-.56 1.089-.738a3.59 3.59 0 0 1 1.4-.267c.453 0 .876.081 1.268.243.393.162.737.433 1.033.814l-.51.429a1.855 1.855 0 0 0-.796-.696 2.404 2.404 0 0 0-.995-.219 2.91 2.91 0 0 0-1.174.229 2.616 2.616 0 0 0-.89.628c-.246.267-.435.581-.567.943A3.392 3.392 0 0 0 70.151 4c0 .419.066.81.198 1.171.132.362.321.676.566.943.245.266.542.476.891.628.35.152.74.228 1.174.228a2.388 2.388 0 0 0 1.06-.252c.174-.086.339-.194.496-.324zM80.787.612h.63v6.776h-.63V4.212h-3.775v3.176h-.63V.612h.63v2.964h3.775V.612z" fill="#FFF" fill-rule="evenodd" opacity=".7"/></svg>