<!-- Generated by IcoMoon.io -->
<svg version="1.1" xmlns="http://www.w3.org/2000/svg" width="32" height="32" viewBox="0 0 32 32">
<title>share</title>
<path fill="#302463" d="M9.755 19.981c-0.946 1.232-2.434 2.026-4.107 2.026-2.859 0-5.176-2.318-5.176-5.176s2.318-5.176 5.176-5.176c1.673 0 3.161 0.794 4.107 2.026l11.512-6.348c-0.059-0.313-0.090-0.635-0.090-0.965 0-2.859 2.318-5.176 5.176-5.176s5.176 2.318 5.176 5.176c0 2.859-2.318 5.176-5.176 5.176-1.513 0-2.875-0.65-3.822-1.685l-11.732 6.47c0.016 0.165 0.024 0.333 0.024 0.503s-0.008 0.337-0.024 0.503l11.446 6.312c0.946-1.232 2.434-2.026 4.108-2.026 2.859 0 5.176 2.318 5.176 5.176s-2.318 5.176-5.176 5.176c-2.859 0-5.176-2.318-5.176-5.176 0-0.17 0.008-0.337 0.024-0.503l-11.446-6.312zM5.647 19.183c1.3 0 2.353-1.053 2.353-2.353s-1.053-2.353-2.353-2.353c-1.3 0-2.353 1.053-2.353 2.353s1.053 2.353 2.353 2.353zM26.353 8.72c1.299 0 2.353-1.053 2.353-2.353s-1.053-2.353-2.353-2.353c-1.299 0-2.353 1.053-2.353 2.353s1.053 2.353 2.353 2.353zM26.353 29.149c1.299 0 2.353-1.053 2.353-2.353s-1.053-2.353-2.353-2.353c-1.299 0-2.353 1.053-2.353 2.353s1.053 2.353 2.353 2.353z"></path>
</svg>
