<!-- Generated by IcoMoon.io -->
<svg version="1.1" xmlns="http://www.w3.org/2000/svg" width="32" height="32" viewBox="0 0 32 32">
<title>sidebar-close</title>
<path d="M2.588 5.439c-0.807-0.807-0.83-2.101-0.040-2.891s2.084-0.767 2.891 0.040l10.77 10.77 10.77-10.77c0.807-0.807 2.101-0.83 2.891-0.040s0.767 2.084-0.040 2.891l-10.523 10.523 10.523 10.523c0.807 0.807 0.83 2.101 0.040 2.891s-2.084 0.767-2.891-0.040l-10.77-10.77-10.77 10.77c-0.807 0.807-2.101 0.83-2.891 0.040s-0.767-2.084 0.040-2.891l10.523-10.523-10.523-10.523z"></path>
</svg>
