<svg xmlns="http://www.w3.org/2000/svg" width="13" height="11" viewBox="0 0 13 11">
  <path d="M13,1.30180769 C12.5217242,1.52307692 12.0080958,1.67242308 11.4680545,1.73884615 C12.0186609,1.39530769 12.4416729,0.851230769 12.6411915,0.203076923 C12.1255314,0.520807692 11.5550138,0.752653846 10.9475181,0.876615385 C10.4607089,0.337192308 9.76747312,0 8.99987497,0 C7.52685046,0 6.33339585,1.243 6.33339585,2.77665385 C6.33339585,2.99411538 6.35655789,3.2065 6.40206927,3.40957692 C4.18542136,3.29365385 2.22030508,2.18815385 0.904538635,0.508115385 C0.675356339,0.9185 0.543698425,1.39530769 0.543698425,1.90426923 C0.543698425,2.86803846 1.01465991,3.71757692 1.72983871,4.21596154 C1.29301075,4.20115385 0.881782946,4.07676923 0.52216179,3.86861538 C0.521755439,3.88003846 0.521755439,3.89230769 0.521755439,3.90330769 C0.521755439,5.24911538 1.44092273,6.37153846 2.66119655,6.62665385 C2.43770318,6.68969231 2.20201925,6.72396154 1.95861465,6.72396154 C1.78632158,6.72396154 1.61971743,6.70661538 1.45717679,6.67446154 C1.79607402,7.777 2.78147662,8.58 3.94811203,8.60284615 C3.03585271,9.34746154 1.88587772,9.79211538 0.636346587,9.79211538 C0.420980245,9.79211538 0.208458365,9.779 0,9.75319231 C1.18004501,10.5401154 2.58195799,11 4.08830333,11 C8.99377969,11 11.6769192,6.76880769 11.6769192,3.09903846 C11.6769192,2.97888462 11.6736684,2.85873077 11.6687922,2.73942308 C12.1901413,2.34807692 12.6420043,1.85942308 13,1.30180769 Z"/>
</svg>
