
<svg width="37" height="42" xmlns="http://www.w3.org/2000/svg"><path d="M-.06 31.419C3.638 37.754 10.455 42 18.247 42c8.003 0 14.978-4.48 18.6-11.102-1.324-.737-2.637-1.107-3.382-1.064-1.685.098-7.535-1.727-7.535-1.727l-.698-1.144s.289-5.596.385-6.788c.096-1.193.337-1.558.337-1.558s.169.146.41.146c.24 0 .526-.352.585-1.092.078-.965-.086-2.231-.086-2.066 0-.846.369-1.185.176-1.672-.114-.287-.361-.29-.545-.245.104-.402.186-.755.207-.91.072-.56.192-2.385 0-3.335-.193-.948-1.445-3.674-1.95-4.574-.506-.9-1.726-.828-.7-.754.338.024-1.162-.782-.818-.803.385-.025-.554-.366-.554-.366s.096-.73-.144-.656c-.304.092-.578-.633-.964-.22-.385.414-.24-.997-.457-.583-.217.413-.968-.254-1.277-.098-.384.195.771-.468.193-.413-.265.025-.867-.089-1.252.194-.413.304.096-.535-.265-.073-.325.416-1.738.282-2.141.587.114-.23.248-.54.143-.392-.193.267-1.036.73-1.446 1.143-.409.414.602-.827.169-.486-.485.38-1.204.73-1.469 1.363-.265.632-.24-1.047-.265-.366-.013.385-.482.584-.674 1.023-.193.439-.056-.352-.334.296-.224.525-.316.239-.605 1.139-.29.9-.362-.024-.65.755-.29.778-.362 1.532-.771 2.895-.404 1.344.082 5.432.489 6.384a.659.659 0 0 0-.312.03c-.506.173.56 1.545.728 2.129.168.584.139.983.475 1.908.337.925 1.109.498 1.109.498l.93 3.894-.336 3.602s-4.231 1.157-6.284 1.435c-3.583.487-5.85 1.472-7.33 2.485z" fill="#FFF" fill-rule="evenodd"/></svg>